<svg width="90" height="90" viewBox="0 0 90 90" fill="none" xmlns="http://www.w3.org/2000/svg">
<g id="Group 1171276115">
<rect id="Rectangle 4525" width="90" height="90" fill="#0CE5D8"/>
<path id="Vector" d="M38.3333 45C38.3333 48.6837 41.3171 51.6667 45 51.6667C45.5749 51.6667 46.1331 51.5958 46.6669 51.4585C48.9376 55.5585 53.3129 58.3333 58.3333 58.3333C58.8961 58.3333 59.4497 58.2998 59.9956 58.2289C56.3333 62.3792 50.9743 65 44.9992 65C33.9542 65.0008 25 56.0466 25 45C25 33.9534 33.9542 25 45 25C50.9751 25 56.3333 27.6208 59.9964 31.7711C63.1128 35.2962 65.0008 39.9255 65.0008 45.0008C65.0008 48.6845 62.017 51.6674 58.3341 51.6674C54.6511 51.6674 51.6674 48.6837 51.6674 45.0008C51.6674 41.8928 49.5423 39.2842 46.6676 38.5423C46.1346 38.405 45.5757 38.3341 45.0008 38.3341C41.3171 38.3341 38.3341 41.3178 38.3341 45.0008L38.3333 45Z" fill="black"/>
</g>
</svg>
