<svg width="198" height="49" viewBox="0 0 198 49" fill="none" xmlns="http://www.w3.org/2000/svg">
<g id="Logo">
<path id="Vector" d="M62.0281 29.9082H54.7215L53.5123 33.3793H49.6484L56.2456 15.1367H60.53L67.1277 33.3793H63.2373L62.0281 29.9082ZM61.0297 26.9854L58.375 19.3647L55.7199 26.9854H61.0297Z" fill="white"/>
<path id="Vector_2" d="M82.2918 18.9219V33.3803H78.5857V31.5537C78.1126 32.1801 77.4908 32.6758 76.7196 33.0412C75.9662 33.3893 75.1424 33.5632 74.2492 33.5632C73.1099 33.5632 72.1024 33.328 71.2265 32.8582C70.3501 32.3712 69.658 31.6667 69.1496 30.7443C68.6591 29.8047 68.4141 28.6912 68.4141 27.4039V18.9219H72.0937V26.8819C72.0937 28.0303 72.3826 28.9178 72.9609 29.5442C73.5392 30.1529 74.3278 30.4575 75.3267 30.4575C76.3429 30.4575 77.1402 30.1529 77.7185 29.5442C78.2968 28.9178 78.5857 28.0303 78.5857 26.8819V18.9219H82.2918Z" fill="white"/>
<path id="Vector_3" d="M89.1515 21.9245V28.919C89.1515 29.4061 89.2653 29.7629 89.4935 29.9889C89.7385 30.1977 90.1417 30.3021 90.7022 30.3021H92.411V33.3815H90.0978C86.9965 33.3815 85.4454 31.8854 85.4454 28.8927V21.9245H83.7109V18.9231H85.4454V15.3477H89.1515V18.9231H92.411V21.9245H89.1515Z" fill="white"/>
<path id="Vector_4" d="M100.472 33.6159C99.0701 33.6159 97.8083 33.3113 96.6869 32.7026C95.5655 32.0762 94.6805 31.1974 94.0322 30.0662C93.4014 28.9355 93.0859 27.6305 93.0859 26.1516C93.0859 24.6727 93.4101 23.3677 94.0583 22.2369C94.7244 21.1059 95.6268 20.236 96.7656 19.627C97.9048 19.0007 99.1752 18.6875 100.577 18.6875C101.979 18.6875 103.249 19.0007 104.388 19.627C105.527 20.236 106.421 21.1059 107.069 22.2369C107.735 23.3677 108.068 24.6727 108.068 26.1516C108.068 27.6305 107.726 28.9355 107.043 30.0662C106.377 31.1974 105.466 32.0762 104.309 32.7026C103.17 33.3113 101.891 33.6159 100.472 33.6159ZM100.472 30.4316C101.138 30.4316 101.76 30.275 102.338 29.9618C102.934 29.6313 103.407 29.1443 103.757 28.5006C104.108 27.8565 104.283 27.074 104.283 26.1516C104.283 24.7771 103.915 23.7245 103.179 22.9937C102.461 22.2456 101.576 21.8715 100.524 21.8715C99.4728 21.8715 98.5882 22.2456 97.8696 22.9937C97.1688 23.7245 96.8181 24.7771 96.8181 26.1516C96.8181 27.5261 97.1601 28.5873 97.8435 29.3358C98.5443 30.0662 99.4202 30.4316 100.472 30.4316Z" fill="white"/>
<path id="Vector_5" d="M127.802 18.7148C129.59 18.7148 131.027 19.2629 132.113 20.359C133.217 21.4378 133.769 22.9513 133.769 24.9V33.382H130.089V25.3961C130.089 24.265 129.8 23.4039 129.222 22.8124C128.643 22.2033 127.855 21.8988 126.856 21.8988C125.857 21.8988 125.06 22.2033 124.464 22.8124C123.886 23.4039 123.597 24.265 123.597 25.3961V33.382H119.917V25.3961C119.917 24.265 119.628 23.4039 119.05 22.8124C118.471 22.2033 117.683 21.8988 116.684 21.8988C115.668 21.8988 114.862 22.2033 114.266 22.8124C113.688 23.4039 113.399 24.265 113.399 25.3961V33.382H109.719V18.9236H113.399V20.6722C113.872 20.0633 114.476 19.5848 115.212 19.2368C115.966 18.8888 116.789 18.7148 117.683 18.7148C118.822 18.7148 119.838 18.9584 120.732 19.4456C121.626 19.9154 122.318 20.5939 122.808 21.4813C123.282 20.6461 123.965 19.9762 124.859 19.4717C125.77 18.9671 126.751 18.7148 127.802 18.7148Z" fill="white"/>
<path id="Vector_6" d="M135.266 26.0994C135.266 24.6378 135.555 23.3418 136.133 22.2108C136.729 21.0798 137.526 20.2099 138.525 19.6009C139.541 18.992 140.671 18.6875 141.916 18.6875C143.002 18.6875 143.948 18.905 144.754 19.34C145.578 19.7749 146.235 20.323 146.726 20.9842V18.9224H150.432V33.3807H146.726V31.2668C146.253 31.9454 145.595 32.511 144.754 32.9631C143.931 33.3984 142.976 33.6159 141.889 33.6159C140.663 33.6159 139.541 33.3027 138.525 32.6762C137.526 32.0498 136.729 31.171 136.133 30.0403C135.555 28.8919 135.266 27.5783 135.266 26.0994ZM146.726 26.1516C146.726 25.2642 146.55 24.5075 146.2 23.8811C145.85 23.2374 145.376 22.7504 144.781 22.4195C144.185 22.0716 143.545 21.8976 142.862 21.8976C142.179 21.8976 141.548 22.0629 140.97 22.3934C140.391 22.724 139.918 23.2111 139.55 23.8548C139.2 24.4812 139.024 25.2297 139.024 26.0994C139.024 26.9696 139.2 27.7349 139.55 28.3962C139.918 29.0399 140.391 29.5356 140.97 29.8837C141.565 30.2319 142.196 30.4057 142.862 30.4057C143.545 30.4057 144.185 30.2405 144.781 29.9096C145.376 29.5619 145.85 29.0748 146.2 28.4484C146.55 27.8043 146.726 27.039 146.726 26.1516Z" fill="white"/>
<path id="Vector_7" d="M157.254 21.9245V28.919C157.254 29.4061 157.367 29.7629 157.595 29.9889C157.841 30.1977 158.244 30.3021 158.804 30.3021H160.513V33.3815H158.2C155.098 33.3815 153.547 31.8854 153.547 28.8927V21.9245H151.812V18.9231H153.547V15.3477H157.254V18.9231H160.513V21.9245H157.254Z" fill="white"/>
<path id="Vector_8" d="M163.979 17.202C163.331 17.202 162.788 17.0019 162.35 16.6018C161.929 16.1842 161.719 15.6709 161.719 15.062C161.719 14.453 161.929 13.9484 162.35 13.5482C162.788 13.1307 163.331 12.9219 163.979 12.9219C164.627 12.9219 165.162 13.1307 165.582 13.5482C166.021 13.9484 166.24 14.453 166.24 15.062C166.24 15.6709 166.021 16.1842 165.582 16.6018C165.162 17.0019 164.627 17.202 163.979 17.202ZM165.792 18.9245V33.3829H162.113V18.9245H165.792Z" fill="white"/>
<path id="Vector_9" d="M174.839 33.6159C173.437 33.6159 172.176 33.3113 171.054 32.7026C169.933 32.0762 169.048 31.1974 168.399 30.0662C167.769 28.9355 167.453 27.6305 167.453 26.1516C167.453 24.6727 167.777 23.3677 168.425 22.2369C169.092 21.1059 169.994 20.236 171.133 19.627C172.272 19.0007 173.542 18.6875 174.944 18.6875C176.346 18.6875 177.617 19.0007 178.755 19.627C179.895 20.236 180.788 21.1059 181.437 22.2369C182.102 23.3677 182.435 24.6727 182.435 26.1516C182.435 27.6305 182.093 28.9355 181.41 30.0662C180.744 31.1974 179.833 32.0762 178.677 32.7026C177.537 33.3113 176.258 33.6159 174.839 33.6159ZM174.839 30.4316C175.505 30.4316 176.127 30.275 176.705 29.9618C177.301 29.6313 177.774 29.1443 178.124 28.5006C178.475 27.8565 178.65 27.074 178.65 26.1516C178.65 24.7771 178.282 23.7245 177.546 22.9937C176.828 22.2456 175.943 21.8715 174.891 21.8715C173.84 21.8715 172.955 22.2456 172.237 22.9937C171.536 23.7245 171.185 24.7771 171.185 26.1516C171.185 27.5261 171.527 28.5873 172.211 29.3358C172.912 30.0662 173.788 30.4316 174.839 30.4316Z" fill="white"/>
<path id="Vector_10" d="M192.155 18.7148C193.89 18.7148 195.292 19.2629 196.361 20.359C197.43 21.4378 197.964 22.9513 197.964 24.9V33.382H194.285V25.3961C194.285 24.2477 193.995 23.3689 193.417 22.7602C192.839 22.1337 192.05 21.8205 191.052 21.8205C190.035 21.8205 189.229 22.1337 188.633 22.7602C188.055 23.3689 187.766 24.2477 187.766 25.3961V33.382H184.086V18.9236H187.766V20.7244C188.257 20.098 188.879 19.6109 189.632 19.2629C190.403 18.8975 191.244 18.7148 192.155 18.7148Z" fill="white"/>
<path id="Vector_11" fill-rule="evenodd" clip-rule="evenodd" d="M19.8497 14.1412C14.2875 14.1412 9.77843 18.6184 9.77843 24.1411V24.8411H0.320312V24.1411C0.320312 13.4318 9.0639 4.75 19.8497 4.75V14.1412Z" fill="url(#paint0_linear_1280_44756)"/>
<path id="Vector_12" fill-rule="evenodd" clip-rule="evenodd" d="M27.8055 24.8401V24.1406H37.264V24.8401C37.264 35.5499 28.52 44.2316 17.7344 44.2316V34.8404C23.2966 34.8404 27.8055 30.363 27.8055 24.8401Z" fill="url(#paint1_linear_1280_44756)"/>
<path id="Vector_13" fill-rule="evenodd" clip-rule="evenodd" d="M19.4934 -0.000244141V18.5443L35.7034 9.44698L19.4934 -0.000244141ZM18.0848 48.9855L18.0849 30.441L1.875 39.5381L18.0848 48.9855Z" fill="url(#paint2_linear_1280_44756)"/>
</g>
<defs>
<linearGradient id="paint0_linear_1280_44756" x1="1.15493" y1="19.6482" x2="17.1789" y2="19.1998" gradientUnits="userSpaceOnUse">
<stop stop-color="white"/>
<stop offset="1" stop-color="#C8C8C8"/>
</linearGradient>
<linearGradient id="paint1_linear_1280_44756" x1="18.569" y1="39.0388" x2="34.5931" y2="38.5903" gradientUnits="userSpaceOnUse">
<stop stop-color="white"/>
<stop offset="1" stop-color="#C8C8C8"/>
</linearGradient>
<linearGradient id="paint2_linear_1280_44756" x1="3.3207" y1="36.3243" x2="31.0878" y2="35.7723" gradientUnits="userSpaceOnUse">
<stop stop-color="white"/>
<stop offset="1" stop-color="#C8C8C8"/>
</linearGradient>
</defs>
</svg>
