<svg width="169" height="44" viewBox="0 0 169 44" fill="none" xmlns="http://www.w3.org/2000/svg">
<g id="Logo">
<path id="Vector" fill-rule="evenodd" clip-rule="evenodd" d="M71.5903 33.1207L62.5274 18.9853H58.4039V33.1207H55.3984V0H65.999C67.1327 0 68.1964 0.215572 69.1904 0.646717C70.1845 1.06246 71.0545 1.63985 71.7997 2.37897C72.5453 3.11805 73.1279 3.98804 73.547 4.98888C73.9822 5.97434 74.1996 7.02909 74.1996 8.15314V10.8323C74.1996 11.9564 73.9822 13.0188 73.547 14.0197C73.1279 15.0051 72.5453 15.8674 71.7997 16.6065C71.0545 17.3456 70.1845 17.9308 69.1904 18.3618C68.1964 18.7777 67.1327 18.9853 65.999 18.9853L75.0616 33.1207H71.5903ZM71.1942 8.15314C71.1942 7.41402 71.0545 6.72883 70.7747 6.09752C70.4952 5.4508 70.1148 4.88881 69.6333 4.41145C69.1518 3.91875 68.5849 3.53379 67.9327 3.25663C67.2958 2.97947 66.6045 2.84089 65.8589 2.84089H58.4039V16.1446H65.8589C66.6045 16.1446 67.2958 16.006 67.9327 15.7288C68.5849 15.4517 69.1518 15.0744 69.6333 14.5971C70.1148 14.1044 70.4952 13.5424 70.7747 12.911C71.0545 12.2643 71.1942 11.5714 71.1942 10.8323V8.15314Z" fill="white"/>
<path id="Vector_2" fill-rule="evenodd" clip-rule="evenodd" d="M93.412 26.6305C93.412 27.5852 93.2256 28.486 92.8528 29.333C92.4957 30.1799 91.9985 30.9188 91.3619 31.5502C90.725 32.1816 89.9794 32.6818 89.1255 33.0514C88.2712 33.4057 87.3625 33.5826 86.3995 33.5826H84.4891C83.5261 33.5826 82.6174 33.4057 81.7635 33.0514C80.9092 32.6818 80.1635 32.1816 79.5266 31.5502C78.8901 30.9188 78.3852 30.1799 78.0124 29.333C77.6553 28.486 77.4766 27.5852 77.4766 26.6305V15.9599C77.4766 15.0053 77.6553 14.1045 78.0124 13.2576C78.3852 12.4107 78.8901 11.6716 79.5266 11.0403C80.1635 10.409 80.9092 9.91628 81.7635 9.56213C82.6174 9.19261 83.5261 9.00781 84.4891 9.00781H86.3995C87.3625 9.00781 88.2712 9.19261 89.1255 9.56213C89.9794 9.91628 90.725 10.409 91.3619 11.0403C91.9985 11.6716 92.4957 12.4107 92.8528 13.2576C93.2256 14.1045 93.412 15.0053 93.412 15.9599V26.6305ZM90.5463 15.7982C90.5463 15.2285 90.4376 14.6973 90.2202 14.2046C90.0028 13.6965 89.7077 13.2576 89.3349 12.888C88.9621 12.5185 88.5196 12.226 88.0071 12.0104C87.5099 11.7948 86.9744 11.687 86.3995 11.687H84.4891C83.9146 11.687 83.3707 11.7948 82.8582 12.0104C82.3613 12.226 81.9265 12.5185 81.5537 12.888C81.1809 13.2576 80.8858 13.6965 80.6684 14.2046C80.451 14.6973 80.3423 15.2285 80.3423 15.7982V26.7921C80.3423 27.362 80.451 27.9009 80.6684 28.409C80.8858 28.9019 81.1809 29.333 81.5537 29.7026C81.9265 30.0718 82.3613 30.3644 82.8582 30.5803C83.3707 30.7958 83.9146 30.9036 84.4891 30.9036H86.3995C86.9744 30.9036 87.5099 30.7958 88.0071 30.5803C88.5196 30.3644 88.9621 30.0718 89.3349 29.7026C89.7077 29.333 90.0028 28.9019 90.2202 28.409C90.4376 27.9009 90.5463 27.362 90.5463 26.7921V15.7982Z" fill="white"/>
<path id="Vector_3" fill-rule="evenodd" clip-rule="evenodd" d="M112.134 29.3329C112.507 28.4859 112.693 27.5851 112.693 26.6303V15.9598C112.693 15.0051 112.507 14.1044 112.134 13.2575C111.777 12.4106 111.28 11.6715 110.643 11.0402C110.006 10.4089 109.261 9.91617 108.406 9.56201C107.552 9.19249 106.644 9.00769 105.681 9.00769H104.958C103.887 9.00769 102.893 9.22327 101.976 9.65441C101.06 10.0856 100.276 10.6861 99.6235 11.4559V0H96.7578V26.6303C96.7578 27.5851 96.9365 28.4859 97.2937 29.3329C97.6665 30.1798 98.1713 30.9187 98.8079 31.5501C99.4448 32.1815 100.19 32.6816 101.045 33.0512C101.899 33.4056 102.807 33.5825 103.77 33.5825H105.681C106.644 33.5825 107.552 33.4056 108.406 33.0512C109.261 32.6816 110.006 32.1815 110.643 31.5501C111.28 30.9187 111.777 30.1798 112.134 29.3329ZM109.501 14.2044C109.719 14.6972 109.828 15.2284 109.828 15.7981V26.792C109.828 27.3619 109.719 27.9008 109.501 28.4089C109.284 28.9018 108.989 29.3329 108.616 29.7025C108.243 30.0717 107.801 30.3643 107.288 30.5801C106.791 30.7957 106.255 30.9035 105.681 30.9035H103.77C103.196 30.9035 102.652 30.7957 102.139 30.5801C101.643 30.3643 101.208 30.0717 100.835 29.7025C100.462 29.3329 100.167 28.9018 99.9496 28.4089C99.7322 27.9008 99.6235 27.3619 99.6235 26.792V15.7981C99.6235 15.2284 99.7322 14.6972 99.9496 14.2044C100.167 13.6963 100.462 13.2575 100.835 12.8879C101.208 12.5184 101.643 12.2258 102.139 12.0103C102.652 11.7947 103.196 11.6869 103.77 11.6869H105.681C106.255 11.6869 106.791 11.7947 107.288 12.0103C107.801 12.2258 108.243 12.5184 108.616 12.8879C108.989 13.2575 109.284 13.6963 109.501 14.2044Z" fill="white"/>
<path id="Vector_4" fill-rule="evenodd" clip-rule="evenodd" d="M131.975 26.6305C131.975 27.5852 131.788 28.486 131.415 29.333C131.058 30.1799 130.561 30.9188 129.924 31.5502C129.288 32.1816 128.542 32.6818 127.688 33.0514C126.834 33.4057 125.925 33.5826 124.962 33.5826H123.052C122.089 33.5826 121.18 33.4057 120.326 33.0514C119.472 32.6818 118.726 32.1816 118.089 31.5502C117.453 30.9188 116.948 30.1799 116.575 29.333C116.218 28.486 116.039 27.5852 116.039 26.6305V15.9599C116.039 15.0053 116.218 14.1045 116.575 13.2576C116.948 12.4107 117.453 11.6716 118.089 11.0403C118.726 10.409 119.472 9.91628 120.326 9.56213C121.18 9.19261 122.089 9.00781 123.052 9.00781H124.962C125.925 9.00781 126.834 9.19261 127.688 9.56213C128.542 9.91628 129.288 10.409 129.924 11.0403C130.561 11.6716 131.058 12.4107 131.415 13.2576C131.788 14.1045 131.975 15.0053 131.975 15.9599V26.6305ZM129.109 15.7982C129.109 15.2285 129 14.6973 128.783 14.2046C128.565 13.6965 128.27 13.2576 127.897 12.888C127.525 12.5185 127.082 12.226 126.57 12.0104C126.072 11.7948 125.537 11.687 124.962 11.687H123.052C122.477 11.687 121.933 11.7948 121.421 12.0104C120.924 12.226 120.489 12.5185 120.116 12.888C119.743 13.2576 119.448 13.6965 119.231 14.2046C119.013 14.6973 118.905 15.2285 118.905 15.7982V26.7921C118.905 27.362 119.013 27.9009 119.231 28.409C119.448 28.9019 119.743 29.333 120.116 29.7026C120.489 30.0718 120.924 30.3644 121.421 30.5803C121.933 30.7958 122.477 30.9036 123.052 30.9036H124.962C125.537 30.9036 126.072 30.7958 126.57 30.5803C127.082 30.3644 127.525 30.0718 127.897 29.7026C128.27 29.333 128.565 28.9019 128.783 28.409C129 27.9009 129.109 27.362 129.109 26.7921V15.7982Z" fill="white"/>
<path id="Vector_5" d="M141.541 32.6379C142.317 32.9612 143.141 33.1229 144.01 33.1229H146.62V30.4204H144.01C143.529 30.4204 143.079 30.3357 142.659 30.1665C142.24 29.9817 141.875 29.7354 141.564 29.4273C141.254 29.1195 141.005 28.7651 140.818 28.3648C140.648 27.9493 140.562 27.5026 140.562 27.0253V12.1742H146.62V9.47186H140.562V3.32812L137.697 3.79005V9.47186H133.41V12.1742H137.697V26.8868C137.697 27.7489 137.86 28.5575 138.186 29.3119C138.528 30.0663 138.978 30.7285 139.537 31.2981C140.112 31.868 140.78 32.3146 141.541 32.6379Z" fill="white"/>
<path id="Vector_6" d="M158.212 19.3551L165.085 33.1209H168.324L159.82 16.0986L167.834 0.000244141H164.596L158.212 12.8189L151.806 0.000244141H148.568L156.582 16.0986L148.078 33.1209H151.34L158.212 19.3551Z" fill="white"/>
<path id="Vector_7" fill-rule="evenodd" clip-rule="evenodd" d="M23.259 0C17.5433 0 12.5453 2.22236 8.66871 4.91095C4.79824 7.59526 1.93388 10.8196 0.447791 13.0347C0.133835 13.5027 0.0692037 14.0929 0.274559 14.6168L7.88307 34.0257L3.35179 41.794L6.36792 43.5231L11.3178 35.0374C11.5824 34.5835 11.6249 34.0353 11.4334 33.5469L3.85992 14.2274C5.23728 12.3802 7.59012 9.8744 10.6659 7.74127C14.1574 5.31982 18.4683 3.45413 23.259 3.45413C27.787 3.45413 31.0788 4.60982 33.4833 6.37509C35.8988 8.14865 37.5503 10.6346 38.6185 13.5027C40.5791 18.767 40.4895 25.1019 39.6948 29.8064H24.475L21.8856 22.8204C23.7001 21.541 24.8938 19.4706 24.8938 17.098C24.8938 13.136 21.5654 10.017 17.5771 10.017C13.5886 10.017 10.2603 13.136 10.2603 17.098C10.2603 21.0599 13.5886 24.1789 17.5771 24.1789C17.9405 24.1789 18.2986 24.153 18.6492 24.103L21.6239 32.1293C21.8758 32.8088 22.5288 33.2606 23.259 33.2606H41.1386C41.9626 33.2606 42.6737 32.6886 42.8434 31.8893C43.9367 26.7405 44.3538 18.93 41.887 12.3063C40.6425 8.96469 38.6388 5.86194 35.5567 3.59924C32.4635 1.32818 28.4145 0 23.259 0ZM13.7444 17.098C13.7444 15.1462 15.4078 13.4711 17.5771 13.4711C19.7463 13.4711 21.4096 15.1462 21.4096 17.098C21.4096 19.0499 19.7463 20.7248 17.5771 20.7248C15.4078 20.7248 13.7444 19.0499 13.7444 17.098Z" fill="white"/>
</g>
</svg>
