<svg width="127" height="38" viewBox="0 0 127 38" fill="none" xmlns="http://www.w3.org/2000/svg">
<g id="Logo">
<path id="Vector" d="M32.2431 13.3332C33.3351 14.4276 33.3351 16.2019 32.2431 17.2963L12.4012 37.1793C11.3092 38.2736 9.53851 38.2736 8.44646 37.1793L-4.04027 24.6669C-5.13241 23.5726 -5.13241 21.7982 -4.04027 20.7038L15.8018 0.820799C16.8938 -0.2736 18.6645 -0.2736 19.7566 0.820799L32.2431 13.3332Z" fill="#E0E0E0"/>
<path id="Vector_2" d="M17.0165 13.3332C18.1085 14.4276 18.1085 16.2019 17.0165 17.2963L-2.82539 37.1793C-3.91748 38.2736 -5.68815 38.2736 -6.78028 37.1793L-19.2668 24.6669C-20.359 23.5726 -20.359 21.7982 -19.2668 20.7038L0.575146 0.820799C1.66724 -0.2736 3.43795 -0.2736 4.53 0.820799L17.0165 13.3332Z" fill="white"/>
<path id="Vector_3" d="M54.1431 20.3997C55.197 20.5966 56.0634 21.1248 56.7425 21.984C57.4211 22.8434 57.7609 23.8278 57.7609 24.938C57.7609 25.9403 57.5106 26.8267 57.0105 27.5964C56.5281 28.3484 55.8225 28.9392 54.8936 29.3689C53.9646 29.7986 52.8656 30.0134 51.5974 30.0134H43.5312V11.2695H51.2487C52.5174 11.2695 53.6071 11.4754 54.5183 11.8872C55.4473 12.2989 56.1441 12.8718 56.6083 13.6058C57.0907 14.3397 57.3321 15.1722 57.3321 16.1032C57.3321 17.1952 57.0371 18.1082 56.4475 18.8422C55.8761 19.5762 55.108 20.0954 54.1431 20.3997ZM47.2828 19.0033H50.7127C51.6062 19.0033 52.2942 18.8064 52.7766 18.4125C53.2585 18.0008 53.4999 17.419 53.4999 16.6671C53.4999 15.9152 53.2585 15.3334 52.7766 14.9216C52.2942 14.5098 51.6062 14.304 50.7127 14.304H47.2828V19.0033ZM51.0614 26.9519C51.9726 26.9519 52.6782 26.7371 53.1783 26.3074C53.6966 25.8777 53.9553 25.2691 53.9553 24.4817C53.9553 23.676 53.6873 23.0493 53.1513 22.6017C52.6158 22.1362 51.8919 21.9035 50.9807 21.9035H47.2828V26.9519H51.0614Z" fill="white"/>
<path id="Vector_4" d="M66.2645 30.2547C64.8355 30.2547 63.5491 29.9413 62.4058 29.315C61.2624 28.6704 60.3601 27.7662 59.6992 26.6028C59.056 25.4389 58.7344 24.0961 58.7344 22.5746C58.7344 21.0529 59.0648 19.7103 59.7258 18.5466C60.4048 17.3829 61.3249 16.4878 62.4859 15.8612C63.6474 15.2168 64.9427 14.8945 66.3717 14.8945C67.8007 14.8945 69.096 15.2168 70.2575 15.8612C71.4185 16.4878 72.3297 17.3829 72.9906 18.5466C73.6697 19.7103 74.009 21.0529 74.009 22.5746C74.009 24.0961 73.6609 25.4389 72.9641 26.6028C72.285 27.7662 71.356 28.6704 70.1768 29.315C69.0158 29.9413 67.7117 30.2547 66.2645 30.2547ZM66.2645 26.9788C66.9436 26.9788 67.5775 26.8176 68.1671 26.4954C68.7744 26.1549 69.2568 25.6537 69.6143 24.9915C69.9718 24.3292 70.1503 23.5235 70.1503 22.5746C70.1503 21.1603 69.7751 20.0772 69.0247 19.3254C68.2924 18.5556 67.3901 18.1706 66.3181 18.1706C65.2461 18.1706 64.3442 18.5556 63.6115 19.3254C62.897 20.0772 62.5395 21.1603 62.5395 22.5746C62.5395 23.9887 62.8882 25.0811 63.585 25.8508C64.2995 26.6028 65.1925 26.9788 66.2645 26.9788Z" fill="white"/>
<path id="Vector_5" d="M79.439 17.4459C79.9214 16.6581 80.5469 16.0405 81.3151 15.593C82.1013 15.1454 82.9944 14.9216 83.9951 14.9216V18.8691H83.0032C81.824 18.8691 80.931 19.1466 80.3237 19.7015C79.7341 20.2565 79.439 21.2232 79.439 22.6017V30.0135H75.6875V15.1364H79.439V17.4459Z" fill="white"/>
<path id="Vector_6" d="M84.4844 22.52C84.4844 21.0163 84.7789 19.6826 85.3685 18.5189C85.9758 17.3552 86.7976 16.4601 87.8341 15.8335C88.8703 15.207 90.0224 14.8937 91.2907 14.8937C92.2555 14.8937 93.1755 15.1085 94.0513 15.5382C94.9266 15.9499 95.6234 16.5049 96.1412 17.2031V10.1406H99.9468V30.0124H96.1412V27.8102C95.677 28.5444 95.025 29.1348 94.1851 29.5827C93.3452 30.0301 92.3715 30.2538 91.2641 30.2538C90.0136 30.2538 88.8703 29.9316 87.8341 29.287C86.7976 28.6425 85.9758 27.7388 85.3685 26.5749C84.7789 25.3932 84.4844 24.0416 84.4844 22.52ZM96.1683 22.5738C96.1683 21.6608 95.9893 20.882 95.6323 20.2375C95.2748 19.5751 94.7924 19.0739 94.1851 18.7337C93.5778 18.3757 92.9257 18.1966 92.2289 18.1966C91.5321 18.1966 90.8889 18.3667 90.2993 18.7069C89.7097 19.047 89.2273 19.5483 88.8521 20.2107C88.4951 20.8551 88.3161 21.6249 88.3161 22.52C88.3161 23.4152 88.4951 24.2027 88.8521 24.8832C89.2273 25.5455 89.7097 26.056 90.2993 26.4137C90.9066 26.772 91.5498 26.9508 92.2289 26.9508C92.9257 26.9508 93.5778 26.7808 94.1851 26.4408C94.7924 26.0826 95.2748 25.5814 95.6323 24.9369C95.9893 24.2746 96.1683 23.4867 96.1683 22.5738Z" fill="white"/>
<path id="Vector_7" d="M116.344 22.2524C116.344 22.7895 116.308 23.2728 116.237 23.7024H105.383C105.473 24.7766 105.847 25.6178 106.509 26.2268C107.17 26.8354 107.983 27.1399 108.947 27.1399C110.341 27.1399 111.332 26.5402 111.922 25.3404H115.969C115.54 26.7728 114.718 27.9544 113.503 28.8853C112.288 29.7984 110.796 30.2547 109.028 30.2547C107.599 30.2547 106.312 29.9413 105.169 29.315C104.043 28.6704 103.159 27.7662 102.516 26.6028C101.89 25.4389 101.578 24.0961 101.578 22.5746C101.578 21.035 101.89 19.6834 102.516 18.5197C103.141 17.3561 104.017 16.461 105.142 15.8344C106.267 15.2078 107.563 14.8945 109.028 14.8945C110.439 14.8945 111.699 15.1989 112.806 15.8075C113.932 16.4162 114.798 17.2845 115.406 18.4123C116.031 19.5223 116.344 20.8023 116.344 22.2524ZM112.458 21.1783C112.44 20.2115 112.092 19.4417 111.413 18.8688C110.734 18.278 109.903 17.9827 108.92 17.9827C107.991 17.9827 107.206 18.2691 106.562 18.842C105.937 19.397 105.553 20.1757 105.41 21.1783H112.458Z" fill="white"/>
<path id="Vector_8" d="M121.767 17.4461C122.25 16.6584 122.875 16.0407 123.643 15.5932C124.429 15.1456 125.322 14.9219 126.323 14.9219V18.8693H125.331C124.153 18.8693 123.259 19.1468 122.652 19.7018C122.062 20.2567 121.767 21.2235 121.767 22.602V30.0137H118.016V15.1367H121.767V17.4461Z" fill="white"/>
</g>
</svg>
