<svg width="174" height="44" viewBox="0 0 174 44" fill="none" xmlns="http://www.w3.org/2000/svg">
<g id="Logo">
<path id="Vector" d="M28.0195 8.51613C28.0195 3.81281 31.8453 0 36.5645 0C41.2836 0 45.1094 3.81281 45.1094 8.51613C45.1094 13.2194 41.2836 17.0323 36.5645 17.0323C31.8453 17.0323 28.0195 13.2194 28.0195 8.51613Z" fill="white"/>
<path id="Vector_2" d="M37.0822 20.8056V26.9339C37.0822 29.6491 37.0803 31.57 36.9554 33.0707C36.8325 34.5482 36.5994 35.4486 36.231 36.1545C35.5142 37.5298 34.3891 38.6516 33.0086 39.366C32.3003 39.7331 31.3969 39.9655 29.9144 40.088C28.4086 40.2124 26.4812 40.2143 23.7571 40.2143H18.0836C15.3593 40.2143 13.4321 40.2124 11.9265 40.088C10.4436 39.9655 9.54057 39.7331 8.83205 39.366C7.45186 38.6516 6.32649 37.5298 5.60952 36.1545C5.24147 35.4486 5.00843 34.5482 4.88525 33.0707C4.76025 31.57 4.75868 29.6491 4.75868 26.9339V21.2798C4.75868 18.5646 4.76025 16.6439 4.88525 15.1434C5.00843 13.6655 5.24147 12.7655 5.60952 12.0594C6.32649 10.6838 7.45186 9.56226 8.83205 8.84771C9.54057 8.48091 10.4436 8.24865 11.9265 8.12593C13.4321 8.00131 15.3592 7.99979 18.0836 7.99979H24.2328C24.2876 6.67312 24.5534 5.40067 24.9973 4.21485H17.9991C15.3783 4.2148 13.2934 4.2148 11.6122 4.35394C9.89025 4.49645 8.42232 4.7947 7.08139 5.48891C5.00753 6.56255 3.31663 8.2478 2.23935 10.3147C1.5428 11.651 1.24354 13.114 1.10055 14.8301C0.960938 16.5057 0.960938 18.5835 0.960938 21.1956V27.0181C0.960938 29.6302 0.960938 31.7081 1.10055 33.3839C1.24354 35.0999 1.5428 36.5628 2.23935 37.8993C3.31663 39.9659 5.00753 41.6512 7.08139 42.7251C8.42232 43.4192 9.89025 43.7173 11.6122 43.8602C13.2934 43.9992 15.3782 43.9993 17.9991 43.9993H23.8415C26.4622 43.9993 28.5472 43.9992 30.2287 43.8602C31.9505 43.7173 33.4183 43.4192 34.7594 42.7251C36.8329 41.6512 38.5239 39.9659 39.6015 37.8993C40.2979 36.5628 40.597 35.0999 40.7403 33.3839C40.8799 31.7081 40.8799 29.6302 40.8799 27.0186V20.0436C39.6898 20.4861 38.4133 20.7509 37.0822 20.8056Z" fill="white"/>
<path id="Vector_3" d="M69.5522 20.4807C69.5522 21.6427 69.2712 22.732 68.7091 23.7489C68.1679 24.7657 67.3039 25.5851 66.1171 26.2077C64.9512 26.8299 63.473 27.1412 61.6823 27.1412H58.0284V35.4827H53.6562V13.7578H61.6823C63.369 13.7578 64.8055 14.0483 65.9923 14.6293C67.1786 15.2103 68.0635 16.0091 68.6464 17.0258C69.2503 18.0426 69.5522 19.1942 69.5522 20.4807ZM61.4948 23.6242C62.7025 23.6242 63.5978 23.3545 64.1808 22.815C64.7637 22.2547 65.0552 21.4766 65.0552 20.4807C65.0552 18.3642 63.8684 17.306 61.4948 17.306H58.0284V23.6242H61.4948Z" fill="white"/>
<path id="Vector_4" d="M75.7784 20.9179C76.3405 20.0049 77.0692 19.2891 77.9645 18.7703C78.8802 18.2516 79.9213 17.9922 81.0872 17.9922V22.5675H79.9317C78.5579 22.5675 77.5168 22.8891 76.809 23.5323C76.1216 24.1757 75.7784 25.2961 75.7784 26.8938V35.4842H71.4062V18.2412H75.7784V20.9179Z" fill="white"/>
<path id="Vector_5" d="M90.4627 35.7642C88.7974 35.7642 87.2982 35.4008 85.9657 34.6746C84.6331 33.9275 83.5821 32.8801 82.8116 31.5312C82.0621 30.1823 81.6875 28.6263 81.6875 26.8625C81.6875 25.0987 82.0725 23.5426 82.843 22.1939C83.6338 20.8452 84.7062 19.8077 86.0597 19.0814C87.4126 18.3344 88.9222 17.9609 90.588 17.9609C92.2533 17.9609 93.7629 18.3344 95.1163 19.0814C96.4693 19.8077 97.5312 20.8452 98.3017 22.1939C99.0926 23.5426 99.4885 25.0987 99.4885 26.8625C99.4885 28.6263 99.0821 30.1823 98.2704 31.5312C97.479 32.8801 96.3967 33.9275 95.0223 34.6746C93.6689 35.4008 92.1493 35.7642 90.4627 35.7642ZM90.4627 31.9669C91.254 31.9669 91.9932 31.7801 92.6801 31.4068C93.3879 31.0127 93.9504 30.4317 94.3668 29.6638C94.7831 28.8959 94.991 27.9625 94.991 26.8625C94.991 25.2231 94.5538 23.9679 93.6794 23.0964C92.8258 22.2042 91.7743 21.7581 90.5253 21.7581C89.2764 21.7581 88.2249 22.2042 87.3713 23.0964C86.5382 23.9679 86.1218 25.2231 86.1218 26.8625C86.1218 28.5018 86.5277 29.7674 87.34 30.6597C88.1726 31.5312 89.2137 31.9669 90.4627 31.9669Z" fill="white"/>
<path id="Vector_6" d="M100.324 26.8017C100.324 25.0587 100.667 23.5126 101.355 22.1639C102.063 20.8152 103.02 19.7777 104.228 19.0515C105.436 18.3252 106.778 17.9621 108.256 17.9621C109.381 17.9621 110.453 18.2111 111.473 18.7091C112.493 19.1864 113.305 19.8296 113.909 20.6388V12.4531H118.344V35.4853H113.909V32.9328C113.368 33.7835 112.608 34.4685 111.629 34.9871C110.651 35.5061 109.516 35.7654 108.225 35.7654C106.768 35.7654 105.436 35.3916 104.228 34.645C103.02 33.898 102.063 32.85 101.355 31.5011C100.667 30.1319 100.324 28.565 100.324 26.8017ZM113.94 26.8636C113.94 25.8053 113.732 24.903 113.316 24.156C112.899 23.3881 112.337 22.8072 111.629 22.4129C110.921 21.9979 110.161 21.7904 109.35 21.7904C108.537 21.7904 107.788 21.9875 107.101 22.3818C106.414 22.776 105.852 23.357 105.415 24.1248C104.998 24.8718 104.79 25.7641 104.79 26.8017C104.79 27.8387 104.998 28.7519 105.415 29.5405C105.852 30.3079 106.414 30.8993 107.101 31.3143C107.809 31.7297 108.558 31.9369 109.35 31.9369C110.161 31.9369 110.921 31.7401 111.629 31.3455C112.337 30.9306 112.899 30.3496 113.316 29.6025C113.732 28.8351 113.94 27.922 113.94 26.8636Z" fill="white"/>
<path id="Vector_7" d="M137.7 18.2422V35.4852H133.297V33.3065C132.735 34.0536 131.996 34.645 131.079 35.0807C130.184 35.4956 129.206 35.7029 128.144 35.7029C126.791 35.7029 125.594 35.4228 124.552 34.8626C123.511 34.2816 122.689 33.4413 122.085 32.3413C121.502 31.221 121.211 29.893 121.211 28.3577V18.2422H125.583V27.7351C125.583 29.1047 125.926 30.1626 126.614 30.9097C127.301 31.6359 128.238 31.9993 129.424 31.9993C130.632 31.9993 131.579 31.6359 132.266 30.9097C132.953 30.1626 133.297 29.1047 133.297 27.7351V18.2422H137.7Z" fill="white"/>
<path id="Vector_8" d="M139.637 26.8625C139.637 25.0779 140.001 23.5218 140.73 22.1939C141.459 20.8452 142.468 19.8077 143.759 19.0814C145.05 18.3344 146.528 17.9609 148.194 17.9609C150.338 17.9609 152.108 18.5004 153.503 19.5794C154.918 20.6377 155.866 22.1316 156.344 24.0611H151.629C151.379 23.3143 150.952 22.7334 150.349 22.3184C149.766 21.8826 149.037 21.6647 148.163 21.6647C146.913 21.6647 145.924 22.1213 145.196 23.0342C144.467 23.9263 144.102 25.2028 144.102 26.8625C144.102 28.5018 144.467 29.7778 145.196 30.6909C145.924 31.5832 146.913 32.0294 148.163 32.0294C149.932 32.0294 151.087 31.2407 151.629 29.6638H156.344C155.866 31.5312 154.918 33.0149 153.503 34.1144C152.087 35.2144 150.317 35.7642 148.194 35.7642C146.528 35.7642 145.05 35.4008 143.759 34.6746C142.468 33.9275 141.459 32.8905 140.73 31.5624C140.001 30.2136 139.637 28.6471 139.637 26.8625Z" fill="white"/>
<path id="Vector_9" d="M163.39 21.8199V30.161C163.39 30.742 163.525 31.1674 163.796 31.4375C164.087 31.6864 164.566 31.8108 165.233 31.8108H167.263V35.4836H164.514C160.829 35.4836 158.987 33.699 158.987 30.1303V21.8199H156.926V18.2406H158.987V13.9766H163.39V18.2406H167.263V21.8199H163.39Z" fill="white"/>
<path id="Vector_10" d="M171.092 35.7021C170.301 35.7021 169.645 35.4632 169.125 34.9863C168.625 34.4881 168.375 33.8759 168.375 33.1497C168.375 32.4234 168.625 31.8216 169.125 31.3447C169.645 30.8465 170.301 30.5977 171.092 30.5977C171.862 30.5977 172.497 30.8465 172.997 31.3447C173.497 31.8216 173.746 32.4234 173.746 33.1497C173.746 33.8759 173.497 34.4881 172.997 34.9863C172.497 35.4632 171.862 35.7021 171.092 35.7021Z" fill="white"/>
</g>
</svg>
