<svg width="198" height="41" viewBox="0 0 198 41" fill="none" xmlns="http://www.w3.org/2000/svg">
<g id="Logo">
<g id="Vector">
<path d="M79.6519 33.977C79.1053 33.5081 78.7915 33.0162 78.7626 32.5003L79.6519 33.977ZM79.6519 33.977L79.6547 33.9793C80.2491 34.4661 81.0865 34.6983 82.1449 34.6983H84.4611H84.6159V34.5434V34.2395V34.0846H84.4611H83.2979L82.8941 34.011L82.8868 34.0096L82.879 34.0087C82.6383 33.9889 82.3705 33.8257 82.0792 33.463C81.8275 33.0934 81.692 32.5601 81.692 31.8452V19.9506C81.692 18.6822 81.3681 17.632 80.7085 16.8131L80.7066 16.8106C80.2748 16.2975 79.5977 15.9181 78.6964 15.6601C77.8149 15.375 76.6711 15.2353 75.2719 15.2353C73.8405 15.2353 72.5281 15.7312 71.3388 16.7143C70.3879 17.48 69.6726 18.3005 69.1995 19.1769V15.5424V15.3874H69.0442H66.3863H66.2315V15.5424V34.5434V34.6983H66.3863H69.0442H69.1995V34.5434V21.0527C69.1995 20.1035 69.8068 19.0018 71.0893 17.7432L71.0907 17.7421C72.3567 16.4751 73.7739 15.8494 75.3477 15.8494C76.1153 15.8494 76.7478 15.9731 77.2522 16.2127C78.2095 16.7289 78.7245 17.9289 78.7245 19.9126V31.8452V31.8498V31.8544L78.7626 32.5003L79.6519 33.977ZM63.8378 9.68271L63.9806 9.7376L64.0371 9.59559L64.1892 9.21558L64.2503 9.06295L64.0945 9.01096C61.4977 8.14478 58.9372 7.71094 56.413 7.71094C53.9108 7.71094 52.0058 8.29833 50.7256 9.50047C49.4504 10.6728 48.8155 12.2105 48.8155 14.0983C48.8155 16.4802 49.8027 18.3278 51.7702 19.6235C52.6384 20.2111 53.5948 20.7469 54.6389 21.2313L54.6421 21.2326C55.6803 21.6888 56.7061 22.1324 57.7194 22.5634L57.7208 22.5639C58.7526 22.9922 59.6956 23.4577 60.5491 23.9604C62.4321 25.076 63.3591 26.6117 63.3591 28.577C63.3591 30.3773 62.6484 31.7331 61.2267 32.6654C59.8137 33.5835 58.0975 34.0464 56.0712 34.0464C54.695 34.0464 53.3435 33.846 52.0169 33.4455C50.7136 33.0189 49.6557 32.4819 48.8385 31.8374L48.703 31.7303L48.6111 31.8769L48.4214 32.1813L48.3438 32.3059L48.4636 32.39C50.6962 33.9568 53.3867 34.7365 56.5269 34.7365C58.2087 34.7365 59.6805 34.5452 60.9391 34.1595L60.941 34.159C62.2378 33.7434 63.3389 32.9647 64.2425 31.8278C65.1525 30.6826 65.6054 29.3048 65.6054 27.703C65.6054 26.0915 65.3371 24.7599 64.7905 23.7173C64.2484 22.6587 63.5359 21.8272 62.6512 21.2283C61.7821 20.6399 60.8248 20.1161 59.7788 19.6566C58.7379 19.1993 57.6965 18.7925 56.6551 18.4366C55.6482 18.0587 54.7179 17.656 53.8635 17.2285C51.9806 16.2363 51.0618 14.8523 51.0618 13.0722C51.0618 11.5971 51.6117 10.4537 52.7091 9.62368C53.8121 8.7896 55.3569 8.36297 57.3625 8.36297C59.3902 8.36297 61.5487 8.80146 63.8378 9.68271ZM85.4271 17.9029L85.4266 17.9037C83.6691 19.6885 82.8 22.1897 82.8 25.3849C82.8 28.5775 83.6425 30.9704 85.3568 32.5298C87.0611 34.0804 89.2647 34.8505 91.9543 34.8505C94.6742 34.8505 96.9177 33.9627 98.6711 32.1827C100.454 30.398 101.336 27.8965 101.336 24.7008C101.336 21.5084 100.494 19.1155 98.7795 17.5558C97.0748 16.005 94.8584 15.2353 92.144 15.2353C89.4484 15.2353 87.2053 16.1234 85.4271 17.9029ZM87.5595 18.3712L87.5604 18.3703C88.8007 16.6822 90.3511 15.8494 92.2198 15.8494C94.0981 15.8494 95.597 16.5636 96.7312 17.9948C97.864 19.4242 98.4442 21.6498 98.4442 24.7008C98.4442 27.7211 97.8153 30.0656 96.5764 31.7528C95.3366 33.4152 93.7857 34.2363 91.9161 34.2363C90.0382 34.2363 88.5389 33.5223 87.4047 32.0907C86.2719 30.6614 85.6917 28.4482 85.6917 25.4229C85.6917 22.3764 86.321 20.0322 87.5595 18.3712ZM127.208 15.6608L127.095 15.774L127.212 15.8834C127.576 16.2256 127.77 16.7361 127.77 17.4425C127.77 18.1555 127.623 18.7613 127.335 19.2656L127.332 19.2715L127.329 19.2776L121.979 30.8711L116.299 15.4886L116.262 15.3874H116.154H113.496H113.274L113.35 15.5957L114.733 19.3739L109.448 30.8701L103.768 15.4886L103.731 15.3874H103.623H100.965H100.742L100.82 15.5964L107.882 34.5976L107.92 34.6983H108.028H108.407H108.507L108.548 34.6077L115.076 20.2425L120.413 34.5976L120.451 34.6983H120.559H120.938H121.038L121.079 34.6077L127.99 19.4068L127.992 19.4036C128.303 18.6774 128.46 17.96 128.46 17.2525C128.46 17.0631 128.433 16.8633 128.381 16.6537C128.35 16.4204 128.236 16.1731 128.055 15.914C127.978 15.7856 127.904 15.6785 127.835 15.5951C127.767 15.5132 127.693 15.4432 127.614 15.4037L127.515 15.3538L127.436 15.4328L127.208 15.6608Z" fill="white"/>
<path d="M79.6519 33.977C79.1053 33.5081 78.7915 33.0162 78.7626 32.5003M79.6519 33.977L78.7626 32.5003M79.6519 33.977L79.6547 33.9793C80.2491 34.4661 81.0865 34.6983 82.1449 34.6983H84.4611H84.6159V34.5434V34.2395V34.0846H84.4611H83.2979L82.8941 34.011L82.8868 34.0096L82.879 34.0087C82.6383 33.9889 82.3705 33.8257 82.0792 33.463C81.8275 33.0934 81.692 32.5601 81.692 31.8452V19.9506C81.692 18.6822 81.3681 17.632 80.7085 16.8131L80.7066 16.8106C80.2748 16.2975 79.5977 15.9181 78.6964 15.6601C77.8149 15.375 76.6711 15.2353 75.2719 15.2353C73.8405 15.2353 72.5281 15.7312 71.3388 16.7143C70.3879 17.48 69.6726 18.3005 69.1995 19.1769V15.5424V15.3874H69.0442H66.3863H66.2315V15.5424V34.5434V34.6983H66.3863H69.0442H69.1995V34.5434V21.0527C69.1995 20.1035 69.8068 19.0018 71.0893 17.7432L71.0907 17.7421C72.3567 16.4751 73.7739 15.8494 75.3477 15.8494C76.1153 15.8494 76.7478 15.9731 77.2522 16.2127C78.2095 16.7289 78.7245 17.9289 78.7245 19.9126V31.8452V31.8498V31.8544L78.7626 32.5003M63.8378 9.68271L63.9806 9.7376L64.0371 9.59559L64.1892 9.21558L64.2503 9.06295L64.0945 9.01096C61.4977 8.14478 58.9372 7.71094 56.413 7.71094C53.9108 7.71094 52.0058 8.29833 50.7256 9.50047C49.4504 10.6728 48.8155 12.2105 48.8155 14.0983C48.8155 16.4802 49.8027 18.3278 51.7702 19.6235C52.6384 20.2111 53.5948 20.7469 54.6389 21.2313L54.6421 21.2326C55.6803 21.6888 56.7061 22.1324 57.7194 22.5634L57.7208 22.5639C58.7526 22.9922 59.6956 23.4577 60.5491 23.9604C62.4321 25.076 63.3591 26.6117 63.3591 28.577C63.3591 30.3773 62.6484 31.7331 61.2267 32.6654C59.8137 33.5835 58.0975 34.0464 56.0712 34.0464C54.695 34.0464 53.3435 33.846 52.0169 33.4455C50.7136 33.0189 49.6557 32.4819 48.8385 31.8374L48.703 31.7303L48.6111 31.8769L48.4214 32.1813L48.3438 32.3059L48.4636 32.39C50.6962 33.9568 53.3867 34.7365 56.5269 34.7365C58.2087 34.7365 59.6805 34.5452 60.9391 34.1595L60.941 34.159C62.2378 33.7434 63.3389 32.9647 64.2425 31.8278C65.1525 30.6826 65.6054 29.3048 65.6054 27.703C65.6054 26.0915 65.3371 24.7599 64.7905 23.7173C64.2484 22.6587 63.5359 21.8272 62.6512 21.2283C61.7821 20.6399 60.8248 20.1161 59.7788 19.6566C58.7379 19.1993 57.6965 18.7925 56.6551 18.4366C55.6482 18.0587 54.7179 17.656 53.8635 17.2285C51.9806 16.2363 51.0618 14.8523 51.0618 13.0722C51.0618 11.5971 51.6117 10.4537 52.7091 9.62368C53.8121 8.7896 55.3569 8.36297 57.3625 8.36297C59.3902 8.36297 61.5487 8.80146 63.8378 9.68271ZM85.4271 17.9029L85.4266 17.9037C83.6691 19.6885 82.8 22.1897 82.8 25.3849C82.8 28.5775 83.6425 30.9704 85.3568 32.5298C87.0611 34.0804 89.2647 34.8505 91.9543 34.8505C94.6742 34.8505 96.9177 33.9627 98.6711 32.1827C100.454 30.398 101.336 27.8965 101.336 24.7008C101.336 21.5084 100.494 19.1155 98.7795 17.5558C97.0748 16.005 94.8584 15.2353 92.144 15.2353C89.4484 15.2353 87.2053 16.1234 85.4271 17.9029ZM87.5595 18.3712L87.5604 18.3703C88.8007 16.6822 90.3511 15.8494 92.2198 15.8494C94.0981 15.8494 95.597 16.5636 96.7312 17.9948C97.864 19.4242 98.4442 21.6498 98.4442 24.7008C98.4442 27.7211 97.8153 30.0656 96.5764 31.7528C95.3366 33.4152 93.7857 34.2363 91.9161 34.2363C90.0382 34.2363 88.5389 33.5223 87.4047 32.0907C86.2719 30.6614 85.6917 28.4482 85.6917 25.4229C85.6917 22.3764 86.321 20.0322 87.5595 18.3712ZM127.208 15.6608L127.095 15.774L127.212 15.8834C127.576 16.2256 127.77 16.7361 127.77 17.4425C127.77 18.1555 127.623 18.7613 127.335 19.2656L127.332 19.2715L127.329 19.2776L121.979 30.8711L116.299 15.4886L116.262 15.3874H116.154H113.496H113.274L113.35 15.5957L114.733 19.3739L109.448 30.8701L103.768 15.4886L103.731 15.3874H103.623H100.965H100.742L100.82 15.5964L107.882 34.5976L107.92 34.6983H108.028H108.407H108.507L108.548 34.6077L115.076 20.2425L120.413 34.5976L120.451 34.6983H120.559H120.938H121.038L121.079 34.6077L127.99 19.4068L127.992 19.4036C128.303 18.6774 128.46 17.96 128.46 17.2525C128.46 17.0631 128.433 16.8633 128.381 16.6537C128.35 16.4204 128.236 16.1731 128.055 15.914C127.978 15.7855 127.904 15.6785 127.835 15.5951C127.767 15.5132 127.693 15.4432 127.614 15.4037L127.515 15.3538L127.436 15.4328L127.208 15.6608Z" stroke="white" stroke-width="0.449532"/>
</g>
<path id="Vector_2" d="M134.348 8.2151C135.06 7.12192 136.216 6.27501 137.821 6.20016L137.485 32.1076V32.1099C137.485 32.3439 137.558 32.5963 137.691 32.8629C138.315 34.1111 139.802 34.6968 142.045 34.6968H143.222H143.377V34.5418V34.238V34.083H143.222H142.059L141.655 34.0095L141.647 34.0081L141.64 34.0072C141.399 33.9874 141.132 33.8242 140.84 33.4615C140.588 33.0919 140.453 32.5586 140.453 31.8437V6.07834V5.92584L140.301 5.92336L137.98 5.88534L137.825 5.88281L137.824 5.88741C135.226 5.93426 133.304 6.54574 132.097 7.75423C130.863 8.96308 130.266 10.9781 130.266 13.7547V15.3858H129.624H129.469V15.5408V16.1548V16.3098H129.624H130.266V34.5418V34.6968H130.421H133.079H133.234V34.5418V16.3098H136.079H136.233V16.1548V15.5408V15.3858H136.079H133.234V13.7547C133.234 11.1524 133.614 9.31675 134.347 8.21639L134.348 8.2151ZM154.568 25.2525C154.049 25.211 153.481 25.1903 152.862 25.1903C152.173 25.1903 151.422 25.2286 150.609 25.3048C148.972 25.4065 147.617 25.5975 146.548 25.8795C145.48 26.161 144.682 26.537 144.174 27.0189C143.684 27.4827 143.369 27.9248 143.257 28.3456C143.153 28.7364 143.1 29.1046 143.1 29.4494C143.1 29.7616 143.126 30.0737 143.178 30.3859C143.397 31.8575 143.972 32.9797 144.915 33.7318C145.856 34.483 147.144 34.8489 148.761 34.8489C150.149 34.8489 151.357 34.5625 152.378 33.9833C153.25 33.4886 153.98 32.7838 154.568 31.8736V32.1099C154.568 32.5829 154.902 33.1033 155.486 33.6638C156.166 34.369 157.399 34.6968 159.127 34.6968H160.304H160.459V34.5418V34.238V34.083H160.304H159.141L158.737 34.0095L158.73 34.0081L158.722 34.0072C158.481 33.9874 158.214 33.8242 157.923 33.4615C157.671 33.0919 157.535 32.5586 157.535 31.8437V19.113C157.535 18.2563 157.187 17.4483 156.509 16.6917C156.064 16.193 155.394 15.8298 154.516 15.5908C153.638 15.3516 152.541 15.2338 151.229 15.2338C148.876 15.2338 146.563 15.7586 144.291 16.8061L144.138 16.8769L144.222 17.0238L144.373 17.2898L144.45 17.4238L144.584 17.3478C145.149 17.0285 146.045 16.7032 147.282 16.3747L147.283 16.3741C148.541 16.0218 149.627 15.8478 150.545 15.8478C151.47 15.8478 152.207 15.9732 152.762 16.215L152.767 16.2172C153.336 16.4398 153.709 16.7037 153.912 16.9971C154.132 17.316 154.303 17.646 154.425 17.9871L154.427 17.9936L154.43 17.9999C154.575 18.3133 154.611 18.5547 154.572 18.7355C154.546 18.8399 154.53 18.9329 154.53 19.0085C154.53 19.0464 154.534 19.0894 154.548 19.1304C154.553 19.1435 154.559 19.1574 154.568 19.171V25.2525ZM146.143 30.3487L146.143 30.3464C146.118 30.0967 146.106 29.8742 146.106 29.6775C146.106 28.5897 146.39 27.7575 146.938 27.1603C147.205 26.8702 147.637 26.6151 148.251 26.404C148.864 26.1935 149.646 26.0306 150.601 25.9173C151.279 25.842 151.957 25.8043 152.634 25.8043C153.29 25.8043 153.934 25.8261 154.568 25.8697V30.3165C154.495 31.1164 153.949 31.9793 152.875 32.9043C151.839 33.7934 150.671 34.2347 149.369 34.2347C148.394 34.2347 147.652 33.9138 147.123 33.2831C146.589 32.6459 146.256 31.6754 146.143 30.3487ZM163.688 6.04032V5.88534H163.533H160.875H160.72V6.04032V34.5418V34.6968H160.875H163.533H163.688V34.5418V25.4414L164.543 24.4586L171.455 34.6292L171.501 34.6968H171.583H174.241H174.534L174.369 34.4545L166.273 22.5457L172.382 15.6436L172.611 15.3858H172.267H171.887H171.817L171.771 15.438L163.688 24.5571V6.04032ZM189.135 33.1889L189.076 33.0514L188.937 33.1052C186.983 33.8573 184.75 34.2347 182.234 34.2347C180.487 34.2347 179.076 33.524 177.991 32.0929C176.932 30.6631 176.389 28.3985 176.389 25.2694C176.389 24.5893 176.422 23.9316 176.487 23.2962H189.904H190.059V23.1412V23.1405V23.1398V23.139V23.1382V23.1375V23.1368V23.136V23.1353V23.1346V23.1338V23.133V23.1323V23.1316V23.1308V23.1301V23.1294V23.1286V23.1278V23.1271V23.1264V23.1256V23.1249V23.1242V23.1234V23.1227V23.1219V23.1212V23.1204V23.1197V23.119V23.1182V23.1175V23.1167V23.116V23.1153V23.1145V23.1138V23.113V23.1123V23.1115V23.1108V23.1101V23.1093V23.1086V23.1078V23.1071V23.1063V23.1056V23.1049V23.1041V23.1034V23.1026V23.1019V23.1011V23.1004V23.0997V23.0989V23.0982V23.0974V23.0967V23.0959V23.0952V23.0945V23.0937V23.093V23.0922V23.0915V23.0907V23.09V23.0893V23.0885V23.0878V23.087V23.0863V23.0856V23.0848V23.0841V23.0833V23.0826V23.0818V23.0811V23.0804V23.0796V23.0789V23.0782V23.0774V23.0766V23.0759V23.0752V23.0744V23.0737V23.073V23.0722V23.0714V23.0707V23.07V23.0692V23.0685V23.0678V23.067V23.0662V23.0655V23.0648V23.064V23.0633V23.0626V23.0618V23.0611V23.0603V23.0596V23.0588V23.0581V23.0574V23.0566V23.0559V23.0551V23.0544V23.0536V23.0529V23.0522V23.0514V23.0507V23.0499V23.0492V23.0485V23.0477V23.047V23.0462V23.0455V23.0447V23.044V23.0433V23.0425V23.0418V23.041V23.0403V23.0395V23.0388V23.0381V23.0373V23.0366V23.0358V23.0351V23.0343V23.0336V23.0329V23.0321V23.0314V23.0306V23.0299V23.0291V23.0284V23.0277V23.0269V23.0262V23.0254V23.0247V23.0239V23.0232V23.0225V23.0217V23.021V23.0202V23.0195V23.0188V23.018V23.0173V23.0165V23.0158V23.015V23.0143V23.0136V23.0128V23.0121V23.0114V23.0106V23.0098V23.0091V23.0084V23.0076V23.0069V23.0062V23.0054V23.0046V23.0039V23.0032V23.0024V23.0017V23.001V23.0002V22.9994V22.9987V22.998V22.9972V22.9965V22.9958V22.995V22.9943V22.9935V22.9928V22.992V22.9913V22.9906V22.9898V22.9891V22.9883V22.9876V22.9869V22.9861V22.9854V22.9846V22.9839V22.9831V22.9824V22.9817V22.9809V22.9801V22.9794V22.9787V22.9779V22.9772V22.9765V22.9757V22.975V22.9742V22.9735V22.9727V22.972V22.9713V22.9705V22.9697V22.969V22.9683V22.9675V22.9668V22.9661V22.9653V22.9646V22.9638V22.9631V22.9623V22.9616V22.9609V22.9601V22.9594V22.9586V22.9579V22.9571V22.9564V22.9557V22.9549V22.9542V22.9534V22.9527V22.952V22.9512V22.9505V22.9497V22.949V22.9482V22.9475V22.9468V22.946V22.9453V22.9446V22.9438V22.943V22.9423V22.9416V22.9408V22.9401V22.9394V22.9386V22.9378V22.9371V22.9364V22.9356V22.9349V22.9342V22.9334V22.9326V22.9319V22.9312V22.9304V22.9297V22.929V22.9282V22.9275V22.9267V22.926V22.9252V22.9245V22.9237V22.923V22.9223V22.9215V22.9208V22.9201V22.9193V22.9185V22.9178V22.9171V22.9163V22.9156V22.9149V22.9141V22.9133V22.9126V22.9119V22.9111V22.9104V22.9097V22.9089V22.9081V22.9074V22.9067V22.9059V22.9052V22.9045V22.9037V22.903V22.9022V22.9015V22.9007V22.9V22.8993V22.8985V22.8978V22.897V22.8963V22.8955V22.8948V22.8941V22.8933V22.8926V22.8918V22.8911V22.8904V22.8896V22.8889V22.8881V22.8874V22.8866V22.8859V22.8852V22.8844V22.8837V22.8829V22.8822V22.8814V22.8807V22.88V22.8792V22.8785V22.8778V22.877V22.8762V22.8755V22.8748V22.874V22.8733V22.8725V22.8718V22.871V22.8703V22.8696V22.8688V22.8681V22.8674V22.8666V22.8658V22.8651V22.8644V22.8636V22.8629V22.8621V22.8614V22.8607V22.8599V22.8592V22.8584V22.8577V22.8569V22.8562V22.8555V22.8547V22.854V22.8533V22.8525V22.8517V22.851V22.8503V22.8495V22.8488V22.8481V22.8473V22.8465V22.8458V22.8451V22.8443V22.8436V22.8429V22.8421V22.8413V22.8406V22.8399V22.8391V22.8384V22.8377V22.8369V22.8362V22.8354V22.8347V22.8339V22.8332V22.8325V22.8317V22.831V22.8302V22.8295V22.8288V22.828V22.8273V22.8265V22.8258V22.825V22.8243V22.8236V22.8228V22.8221V22.8213V22.8206V22.8198V22.8191V22.8184V22.8176V22.8169V22.8161V22.8154V22.8146V22.8139V22.8132V22.8124V22.8117V22.8109V22.8102V22.8094V22.8087V22.808V22.8072V22.8065V22.8057V22.805V22.8042V22.8035V22.8028V22.802V22.8013V22.8005V22.7998V22.7991V22.7983V22.7976V22.7968V22.7961V22.7953V22.7946V22.7939V22.7931V22.7924V22.7916V22.7909V22.7901V22.7894V22.7887V22.7879V22.7872V22.7865V22.7857V22.7849V22.7842V22.7835V22.7827V22.782V22.7813V22.7805V22.7797V22.779V22.7783V22.7775V22.7768V22.7761V22.7753V22.7745V22.7738V22.7731V22.7723V22.7716V22.7709V22.7701V22.7694V22.7686V22.7679V22.7671V22.7664V22.7657V22.7649V22.7642V22.7634V22.7627V22.7619V22.7612C190.059 20.2982 189.34 18.4131 187.88 17.1343C186.431 15.8656 184.647 15.2338 182.538 15.2338C179.916 15.2338 177.748 16.1229 176.046 17.9038C174.34 19.6888 173.497 22.1894 173.497 25.3834C173.497 28.5736 174.3 30.9656 175.937 32.5259C177.565 34.0775 179.669 34.8489 182.234 34.8489C184.806 34.8489 187.117 34.4536 189.163 33.6601L189.312 33.6022L189.249 33.4546L189.135 33.1889ZM185.795 17.5365C186.656 18.6381 187.121 20.3446 187.165 22.6822H176.564C176.878 20.5581 177.57 18.9002 178.628 17.6959C179.743 16.4559 180.995 15.8478 182.386 15.8478C183.779 15.8478 184.912 16.4075 185.795 17.5365Z" fill="white" stroke="white" stroke-width="0.449532"/>
<path id="Vector_3" d="M193.403 5.64062V6.64458H192.262V9.69906H191.18V6.64458H190.039V5.64062H193.403Z" fill="white"/>
<path id="Vector_4" d="M197.849 5.58203V9.71958H196.767V7.71167L195.973 8.65476H195.649L194.856 7.71167V9.71958H193.773V5.58203H194.156L195.811 7.34656L197.467 5.58203H197.849Z" fill="white"/>
<path id="Vector_5" fill-rule="evenodd" clip-rule="evenodd" d="M18.9161 27.9322L18.8996 40.9807L21.6558 40.9844L21.6724 27.8749L26.7003 39.9799L29.2453 38.9211L24.252 26.8993L33.4389 36.1168L35.3903 34.1689L26.164 24.9117L38.231 29.9233L39.2871 27.3759L27.2189 22.3634H40.2853V19.6051H27.2503L39.2985 14.6253L38.2461 12.0758L26.2496 17.0343L35.4743 7.89657L33.5358 5.9361L24.1962 15.1872L29.2292 3.03913L26.683 1.98267L21.6899 14.0349L21.7065 0.987868L18.9503 0.984375L18.9336 14.0948L13.9053 1.9886L11.3602 3.04736L16.3531 15.0682L7.16686 5.85138L5.21547 7.79938L14.442 17.0566L2.37492 12.0447L1.31842 14.5924L13.3873 19.6051H0.320312V22.3634H13.3563L1.30763 27.3434L2.35972 29.893L14.3558 24.9346L5.13122 34.0719L7.07012 36.0326L16.409 26.7819L11.3765 38.9294L13.9225 39.9858L18.9161 27.9322Z" fill="white"/>
</g>
</svg>
