<svg width="127" height="45" viewBox="0 0 127 45" fill="none" xmlns="http://www.w3.org/2000/svg">
<g id="Logo">
<path id="Vector" d="M28.1822 34.7024C28.4086 37.3777 27.4935 40.1306 25.4335 42.1865C23.3735 44.2424 20.599 45.1722 17.893 44.9716C17.6667 42.2967 18.5817 39.5438 20.6417 37.4874C22.7017 35.4316 25.4762 34.5021 28.1822 34.7024Z" fill="white"/>
<path id="Vector_2" d="M23.2811 30.9851C20.5805 33.8422 16.6792 35.5549 12.4198 35.3625C8.16084 35.17 4.43389 33.113 2.00781 30.0249C4.70838 27.1678 8.60973 25.455 12.8691 25.6475C17.128 25.8399 20.855 27.8969 23.2811 30.9851Z" fill="white"/>
<path id="Vector_3" d="M0.421875 21.7919C0.98601 15.1019 4.39779 8.68898 10.3407 4.46474C16.2833 0.240681 23.5151 -0.912082 30.104 0.693238C29.54 7.38325 26.128 13.7962 20.1851 18.0204C14.2425 22.2445 7.01065 23.3972 0.421875 21.7919Z" fill="white"/>
<path id="Vector_4" d="M109.969 13.5863V17.6602H112.439V38.9582H116.832V17.6602H122.597V13.5863H116.832V9.41768C116.832 8.22263 116.941 7.26314 117.161 6.5388C117.381 5.81457 117.674 5.30763 118.04 5.01787C118.442 4.69199 118.918 4.52908 119.468 4.52908C119.906 4.52908 120.364 4.61964 120.84 4.80058C121.353 4.94546 121.791 5.32566 122.158 5.9413L124.574 2.35634C124.318 1.99417 123.951 1.6502 123.475 1.32437C123.036 0.998379 122.506 0.726709 121.883 0.509474C121.261 0.292183 120.547 0.183594 119.742 0.183594C118.204 0.183594 116.887 0.509476 115.788 1.16129C114.727 1.77693 113.903 2.71839 113.318 3.98585C112.732 5.25331 112.439 6.88277 112.439 8.87445V13.5863H109.969Z" fill="white"/>
<path id="Vector_5" d="M40.9922 5.28125V38.9585H60.7583V34.613H45.6593V5.28125H40.9922Z" fill="white"/>
<path id="Vector_6" fill-rule="evenodd" clip-rule="evenodd" d="M72.4617 39.5025C75.1707 39.5025 77.5134 38.9773 79.4898 37.9271C81.5028 36.8406 83.1684 35.2473 84.4861 33.1471L80.9172 30.92C80.0024 32.441 78.8859 33.5817 77.5682 34.342C76.2506 35.0663 74.7313 35.4284 73.0108 35.4284C71.2904 35.4284 69.8264 35.0663 68.6185 34.342C67.4106 33.6179 66.4952 32.5676 65.873 31.1917C65.4004 30.1459 65.1067 28.9328 64.9936 27.5524H84.8706V27.0635C84.9072 26.7738 84.9255 26.5021 84.9255 26.2487C84.9255 23.6052 84.4495 21.3239 83.4981 19.4046C82.5462 17.4854 81.1737 16.0188 79.3801 15.0048C77.6231 13.9548 75.4998 13.4297 73.0108 13.4297C70.5218 13.4297 68.3254 13.9728 66.4221 15.0591C64.5554 16.1455 63.0914 17.6665 62.0298 19.6219C61.0047 21.5774 60.4922 23.8587 60.4922 26.466C60.4922 29.0371 60.9864 31.3002 61.975 33.2557C62.9995 35.2111 64.4091 36.7502 66.2027 37.8728C68.0329 38.9593 70.119 39.5025 72.4617 39.5025ZM65.9278 21.3601C65.577 22.0952 65.3193 22.928 65.1547 23.8587H80.1241C80.0395 22.6687 79.7367 21.6187 79.215 20.7083C78.6293 19.6219 77.8059 18.771 76.7443 18.1554C75.6832 17.5397 74.4382 17.2319 73.0108 17.2319C71.3269 17.2319 69.8813 17.5941 68.6734 18.3183C67.502 19.0063 66.5867 20.0203 65.9278 21.3601Z" fill="white"/>
<path id="Vector_7" fill-rule="evenodd" clip-rule="evenodd" d="M102.806 25.2599C102.116 24.8119 101.237 24.4174 100.171 24.0759C98.9628 23.6414 97.4434 23.4241 95.6133 23.4241C92.502 23.4241 90.0679 24.1665 88.3109 25.6512C86.5904 27.0996 85.7305 29.0371 85.7305 31.4633C85.7305 33.1651 86.1327 34.6137 86.9378 35.8086C87.7435 37.004 88.8051 37.9271 90.1228 38.5788C91.477 39.1944 92.9232 39.5025 94.4602 39.5025C95.851 39.5025 97.2423 39.2487 98.6331 38.7422C100.061 38.2351 101.251 37.4562 102.202 36.4063C102.429 36.1645 102.631 35.9082 102.806 35.6377V38.9592H107.198V21.0341C107.198 19.4046 106.778 18.0286 105.935 16.9061C105.13 15.7835 103.977 14.9324 102.477 14.3531C101.012 13.7375 99.2919 13.4297 97.3154 13.4297C94.9727 13.4297 92.9597 13.7737 91.2758 14.4617C89.6285 15.1497 88.3292 15.8377 87.3772 16.5257L89.5188 19.7305C89.9211 19.4408 90.4707 19.0968 91.1661 18.6984C91.8615 18.3001 92.7032 17.9561 93.6917 17.6665C94.7168 17.3768 95.851 17.2319 97.096 17.2319C97.8646 17.2319 98.5965 17.3042 99.2919 17.4492C99.9873 17.5941 100.591 17.8294 101.104 18.1554C101.653 18.4812 102.074 18.9339 102.367 19.5132C102.66 20.0564 102.806 20.7626 102.806 21.6318V25.2599ZM90.8364 28.9103C90.397 29.5622 90.1776 30.3408 90.1776 31.246C90.1776 32.1875 90.397 33.0022 90.8364 33.6902C91.3124 34.3782 91.9529 34.9034 92.758 35.2655C93.6003 35.5914 94.5516 35.7544 95.6133 35.7544C96.9675 35.7544 98.1754 35.4828 99.237 34.9395C100.335 34.3964 101.195 33.6358 101.817 32.6582C102.477 31.6442 102.806 30.4855 102.806 29.1818V28.2421C102.103 27.9035 101.389 27.6373 100.664 27.4436C99.3102 27.0454 97.8645 26.8462 96.3269 26.8462C94.8996 26.8462 93.7282 27.0272 92.8129 27.3895C91.9346 27.7515 91.2758 28.2585 90.8364 28.9103Z" fill="white"/>
<path id="Vector_8" fill-rule="evenodd" clip-rule="evenodd" d="M141.653 37.9271C139.677 38.9773 137.334 39.5025 134.626 39.5025C132.283 39.5025 130.196 38.9593 128.366 37.8728C126.573 36.7502 125.164 35.2111 124.138 33.2557C123.15 31.3002 122.656 29.0371 122.656 26.466C122.656 23.8587 123.169 21.5774 124.193 19.6219C125.255 17.6665 126.719 16.1455 128.586 15.0591C130.489 13.9728 132.685 13.4297 135.175 13.4297C137.664 13.4297 139.787 13.9548 141.544 15.0048C143.337 16.0188 144.71 17.4854 145.662 19.4046C146.614 21.3239 147.089 23.6052 147.089 26.2487C147.089 26.5021 147.071 26.7738 147.034 27.0635V27.5524H127.157C127.271 28.9328 127.564 30.1459 128.037 31.1917C128.659 32.5676 129.574 33.6179 130.782 34.342C131.99 35.0663 133.454 35.4284 135.175 35.4284C136.895 35.4284 138.414 35.0663 139.732 34.342C141.049 33.5817 142.166 32.441 143.081 30.92L146.65 33.1471C145.332 35.2473 143.667 36.8406 141.653 37.9271ZM127.319 23.8587C127.483 22.928 127.741 22.0952 128.092 21.3601C128.751 20.0203 129.666 19.0063 130.837 18.3183C132.045 17.5941 133.491 17.2319 135.175 17.2319C136.602 17.2319 137.847 17.5397 138.908 18.1554C139.969 18.771 140.793 19.6219 141.379 20.7083C141.9 21.6187 142.204 22.6687 142.288 23.8587H127.319Z" fill="white"/>
</g>
</svg>
