<svg width="217" height="43" viewBox="0 0 217 43" fill="none" xmlns="http://www.w3.org/2000/svg">
<g id="Logo">
<path id="Vector" d="M5.48307 5.20034C8.42768 2.37912 12.4261 0.732441 16.4786 0.527614C17.8655 0.527614 19.2566 0.535965 20.6436 0.523438C20.5728 2.01554 20.6436 3.51183 20.6019 5.00386C20.4062 8.33913 19.1775 11.5992 17.1075 14.2155C14.4169 17.7348 10.3019 20.0961 5.93291 20.7064C4.02537 21.0157 2.08862 20.8192 0.168592 20.8735C0.201882 19.231 0.0977791 17.5843 0.226919 15.9459C0.601784 11.8834 2.51349 7.99225 5.48307 5.20034Z" fill="white"/>
<path id="Vector_2" d="M21.9297 0.523438C23.4166 0.540141 24.9035 0.515085 26.3946 0.531788C30.1056 0.795076 33.7665 2.22448 36.561 4.70299C39.6431 7.35697 41.7548 11.152 42.2965 15.2061C42.5334 17.0869 42.3839 18.9886 42.4756 20.8777C41.1757 20.8735 39.8808 20.8694 38.581 20.8777C35.3867 20.79 32.2463 19.7534 29.5724 18.0064C28.3396 17.1203 27.0734 16.2218 26.1488 14.993C24.1205 12.7193 22.7419 9.86471 22.2213 6.85544C21.8297 4.76563 21.988 2.63413 21.9297 0.523438Z" fill="white"/>
<path id="Vector_3" d="M0.171638 22.0742C1.49195 22.1495 2.81643 22.0115 4.13251 22.1578C9.76769 22.279 15.2363 25.4554 18.1559 30.2911C19.8303 32.9995 20.7299 36.2095 20.6133 39.3986C20.6091 40.4433 20.6258 41.4837 20.5966 42.5248C18.5058 42.4618 16.3942 42.6331 14.3242 42.2276C9.72608 41.4504 5.49867 38.7043 2.95382 34.7842C1.02547 31.9337 0.063373 28.4522 0.163314 25.0124C0.163314 24.0302 0.163315 23.0522 0.171638 22.0742Z" fill="white"/>
<path id="Vector_4" d="M35.437 22.5172C37.7031 22.0114 40.0391 22.095 42.3426 22.095L42.4427 22.1954C42.3926 24.3812 42.5633 26.5922 42.126 28.753C41.2056 33.6013 38.0071 37.9316 33.7045 40.3096C31.0264 41.8059 27.9527 42.5412 24.8914 42.508C23.9127 42.5122 22.9297 42.491 21.9509 42.5207C21.9509 40.711 21.876 38.8927 22.0801 37.0914C22.5549 32.7319 24.9039 28.6736 28.2817 25.9319C30.3725 24.2768 32.8298 23.0772 35.437 22.5172Z" fill="white"/>
<path id="Vector_5" d="M59.5409 34.4291C59.5409 35.1649 59.287 35.7875 58.7798 36.2968C58.3002 36.7781 57.6937 37.0187 56.9609 37.0187C56.2556 37.0187 55.6631 36.7781 55.1842 36.2968C54.7046 35.7875 54.4648 35.1649 54.4648 34.4291V8.19489C54.4648 7.4591 54.7046 6.85064 55.1842 6.36957C55.6914 5.86019 56.312 5.60547 57.0455 5.60547C57.7783 5.60547 58.3708 5.86019 58.8222 6.36957C59.3011 6.85064 59.5409 7.4591 59.5409 8.19489V34.4291Z" fill="white"/>
<path id="Vector_6" d="M79.9156 14.3086C80.6484 14.3086 81.255 14.5632 81.7346 15.0727C82.2135 15.5538 82.4533 16.1622 82.4533 16.898V27.6804C82.4533 30.6802 81.6217 33.0574 79.9579 34.812C78.2934 36.5666 75.8968 37.4442 72.766 37.4442C69.6359 37.4442 67.2386 36.5666 65.5748 34.812C63.9392 33.0574 63.1211 30.6802 63.1211 27.6804V16.898C63.1211 16.1622 63.3609 15.5538 63.8405 15.0727C64.3201 14.5632 64.9259 14.3086 65.6595 14.3086C66.393 14.3086 66.9988 14.5632 67.4784 15.0727C67.958 15.5538 68.1978 16.1622 68.1978 16.898V27.6804C68.1978 29.4067 68.5787 30.6943 69.3397 31.5433C70.1014 32.3641 71.2433 32.7744 72.766 32.7744C74.3177 32.7744 75.4737 32.3641 76.2354 31.5433C76.9964 30.6943 77.3773 29.4067 77.3773 27.6804V16.898C77.3773 16.1622 77.6171 15.5538 78.0967 15.0727C78.5756 14.5632 79.1821 14.3086 79.9156 14.3086Z" fill="white"/>
<path id="Vector_7" d="M97.7191 13.8828C99.9753 13.8828 101.639 14.4347 102.711 15.5383C103.783 16.6138 104.488 18.0146 104.826 19.7409L104.107 19.3588L104.446 18.6797C104.783 18.0287 105.305 17.3354 106.011 16.5996C106.715 15.8355 107.562 15.1988 108.548 14.6894C109.564 14.1516 110.692 13.8828 111.933 13.8828C113.963 13.8828 115.5 14.3215 116.543 15.1988C117.616 16.076 118.348 17.2505 118.743 18.7221C119.138 20.1654 119.336 21.7785 119.336 23.5614V34.4287C119.336 35.1645 119.096 35.7871 118.616 36.2963C118.137 36.7776 117.531 37.0183 116.797 37.0183C116.065 37.0183 115.458 36.7776 114.978 36.2963C114.499 35.7871 114.259 35.1645 114.259 34.4287V23.5614C114.259 22.6275 114.147 21.7927 113.921 21.0568C113.695 20.2927 113.286 19.6843 112.694 19.2315C112.102 18.7787 111.256 18.5524 110.156 18.5524C109.084 18.5524 108.168 18.7787 107.406 19.2315C106.645 19.6843 106.067 20.2927 105.672 21.0568C105.305 21.7927 105.122 22.6275 105.122 23.5614V34.4287C105.122 35.1645 104.882 35.7871 104.403 36.2963C103.924 36.7776 103.317 37.0183 102.584 37.0183C101.851 37.0183 101.244 36.7776 100.765 36.2963C100.286 35.7871 100.046 35.1645 100.046 34.4287V23.5614C100.046 22.6275 99.933 21.7927 99.7073 21.0568C99.4816 20.2927 99.0726 19.6843 98.4808 19.2315C97.8884 18.7787 97.042 18.5524 95.9425 18.5524C94.8711 18.5524 93.9542 18.7787 93.1925 19.2315C92.4315 19.6843 91.8531 20.2927 91.4582 21.0568C91.0921 21.7927 90.9088 22.6275 90.9088 23.5614V34.4287C90.9088 35.1645 90.669 35.7871 90.1894 36.2963C89.7097 36.7776 89.1039 37.0183 88.3704 37.0183C87.6369 37.0183 87.031 36.7776 86.5514 36.2963C86.0718 35.7871 85.832 35.1645 85.832 34.4287V16.8968C85.832 16.161 86.0718 15.5525 86.5514 15.0714C87.031 14.562 87.6369 14.3073 88.3704 14.3073C89.1039 14.3073 89.7097 14.562 90.1894 15.0714C90.669 15.5525 90.9088 16.161 90.9088 16.8968V18.7221L90.274 18.5947C90.5279 18.1137 90.8805 17.6042 91.3312 17.0665C91.7826 16.5005 92.3327 15.977 92.9816 15.4959C93.6298 15.0148 94.3492 14.6328 95.1384 14.3497C95.9283 14.0384 96.7888 13.8828 97.7191 13.8828Z" fill="white"/>
<path id="Vector_8" d="M127.496 34.4283C127.496 35.1641 127.256 35.7867 126.777 36.296C126.298 36.7773 125.691 37.0179 124.958 37.0179C124.225 37.0179 123.618 36.7773 123.139 36.296C122.66 35.7867 122.42 35.1641 122.42 34.4283V16.8964C122.42 16.1606 122.66 15.5521 123.139 15.0711C123.618 14.5616 124.225 14.307 124.958 14.307C125.691 14.307 126.298 14.5616 126.777 15.0711C127.256 15.5521 127.496 16.1606 127.496 16.8964V34.4283ZM124.915 11.5477C123.957 11.5477 123.28 11.392 122.885 11.0807C122.49 10.7694 122.293 10.2176 122.293 9.42517V8.6186C122.293 7.79795 122.505 7.24604 122.927 6.96307C123.378 6.6518 124.056 6.49609 124.958 6.49609C125.945 6.49609 126.636 6.6518 127.03 6.96307C127.425 7.27435 127.623 7.82619 127.623 8.6186V9.42517C127.623 10.2459 127.411 10.8119 126.988 11.1232C126.566 11.4062 125.874 11.5477 124.915 11.5477Z" fill="white"/>
<path id="Vector_9" d="M142.696 13.8826C144.783 13.8826 146.362 14.3212 147.434 15.1985C148.534 16.0758 149.281 17.2502 149.676 18.7219C150.099 20.1652 150.311 21.7783 150.311 23.5612V34.4284C150.311 35.1642 150.071 35.7869 149.591 36.2961C149.112 36.7774 148.506 37.018 147.772 37.018C147.04 37.018 146.433 36.7774 145.953 36.2961C145.474 35.7869 145.234 35.1642 145.234 34.4284V23.5612C145.234 22.6273 145.108 21.7925 144.854 21.0566C144.628 20.2925 144.205 19.6841 143.584 19.2313C142.964 18.7785 142.076 18.5521 140.92 18.5521C139.791 18.5521 138.833 18.7785 138.043 19.2313C137.282 19.6841 136.689 20.2925 136.266 21.0566C135.871 21.7925 135.674 22.6273 135.674 23.5612V34.4284C135.674 35.1642 135.435 35.7869 134.955 36.2961C134.475 36.7774 133.869 37.018 133.136 37.018C132.403 37.018 131.796 36.7774 131.317 36.2961C130.837 35.7869 130.598 35.1642 130.598 34.4284V16.8965C130.598 16.1607 130.837 15.5523 131.317 15.0712C131.796 14.5617 132.403 14.3071 133.136 14.3071C133.869 14.3071 134.475 14.5617 134.955 15.0712C135.435 15.5523 135.674 16.1607 135.674 16.8965V18.7219L135.04 18.5945C135.294 18.1134 135.66 17.604 136.139 17.0663C136.619 16.5003 137.183 15.9768 137.831 15.4956C138.48 15.0146 139.214 14.6325 140.031 14.3495C140.849 14.0382 141.737 13.8826 142.696 13.8826Z" fill="white"/>
<path id="Vector_10" d="M175.426 25.6839C175.426 28.0045 174.905 30.0563 173.861 31.8392C172.846 33.5938 171.464 34.9664 169.716 35.9566C167.995 36.9475 166.064 37.4429 163.92 37.4429C161.777 37.4429 159.831 36.9475 158.083 35.9566C156.362 34.9664 154.981 33.5938 153.937 31.8392C152.922 30.0563 152.414 28.0045 152.414 25.6839C152.414 23.3633 152.922 21.3257 153.937 19.5711C154.981 17.7882 156.362 16.4015 158.083 15.411C159.831 14.3922 161.777 13.8828 163.92 13.8828C166.064 13.8828 167.995 14.3922 169.716 15.411C171.464 16.4015 172.846 17.7882 173.861 19.5711C174.905 21.3257 175.426 23.3633 175.426 25.6839ZM170.35 25.6839C170.35 24.2406 170.054 22.9954 169.462 21.9483C168.898 20.8729 168.122 20.0381 167.135 19.4438C166.177 18.8495 165.104 18.5524 163.92 18.5524C162.736 18.5524 161.65 18.8495 160.663 19.4438C159.704 20.0381 158.928 20.8729 158.336 21.9483C157.772 22.9954 157.49 24.2406 157.49 25.6839C157.49 27.0989 157.772 28.3442 158.336 29.4196C158.928 30.4666 159.704 31.2873 160.663 31.8817C161.65 32.476 162.736 32.7731 163.92 32.7731C165.104 32.7731 166.177 32.476 167.135 31.8817C168.122 31.2873 168.898 30.4666 169.462 29.4196C170.054 28.3442 170.35 27.0989 170.35 25.6839Z" fill="white"/>
<path id="Vector_11" d="M194.345 14.3086C195.078 14.3086 195.685 14.5632 196.164 15.0727C196.643 15.5538 196.883 16.1622 196.883 16.898V27.6804C196.883 30.6802 196.051 33.0574 194.387 34.812C192.723 36.5666 190.327 37.4442 187.196 37.4442C184.066 37.4442 181.668 36.5666 180.004 34.812C178.369 33.0574 177.551 30.6802 177.551 27.6804V16.898C177.551 16.1622 177.791 15.5538 178.27 15.0727C178.75 14.5632 179.356 14.3086 180.089 14.3086C180.823 14.3086 181.428 14.5632 181.908 15.0727C182.388 15.5538 182.628 16.1622 182.628 16.898V27.6804C182.628 29.4067 183.008 30.6943 183.769 31.5433C184.531 32.3641 185.673 32.7744 187.196 32.7744C188.747 32.7744 189.903 32.3641 190.664 31.5433C191.426 30.6943 191.807 29.4067 191.807 27.6804V16.898C191.807 16.1622 192.047 15.5538 192.526 15.0727C193.005 14.5632 193.612 14.3086 194.345 14.3086Z" fill="white"/>
<path id="Vector_12" d="M198.951 33.4946C198.669 33.0983 198.542 32.5889 198.57 31.9663C198.598 31.3437 198.965 30.806 199.671 30.3532C200.121 30.0702 200.601 29.957 201.109 30.0136C201.616 30.0419 202.109 30.2966 202.589 30.7777C203.407 31.5985 204.267 32.2352 205.17 32.688C206.072 33.1407 207.2 33.3672 208.554 33.3672C208.977 33.3388 209.442 33.2823 209.95 33.1974C210.457 33.0842 210.895 32.8578 211.261 32.5182C211.656 32.1503 211.853 31.5985 211.853 30.8626C211.853 30.24 211.642 29.7447 211.218 29.3769C210.796 29.009 210.232 28.6977 209.526 28.443C208.85 28.1882 208.088 27.9477 207.243 27.7213C206.368 27.4666 205.465 27.1836 204.535 26.8723C203.632 26.561 202.801 26.1648 202.039 25.6837C201.278 25.1743 200.657 24.5092 200.178 23.6886C199.699 22.8678 199.459 21.8349 199.459 20.5897C199.459 19.1747 199.853 17.972 200.643 16.9814C201.433 15.9909 202.448 15.2268 203.689 14.6891C204.958 14.1514 206.283 13.8826 207.665 13.8826C208.54 13.8826 209.456 13.9957 210.415 14.2222C211.374 14.4203 212.29 14.7598 213.164 15.241C214.039 15.6937 214.772 16.3022 215.364 17.0663C215.674 17.4908 215.858 18.0002 215.914 18.5945C215.971 19.1888 215.703 19.7265 215.11 20.2076C214.688 20.5472 214.194 20.7029 213.63 20.6745C213.066 20.618 212.601 20.4199 212.234 20.0803C211.754 19.4577 211.106 18.9624 210.288 18.5945C209.498 18.2266 208.582 18.0427 207.538 18.0427C207.116 18.0427 206.65 18.0993 206.142 18.2125C205.663 18.2974 205.24 18.5096 204.873 18.8492C204.507 19.1605 204.323 19.6699 204.323 20.3774C204.323 21.0284 204.535 21.5519 204.958 21.9481C205.381 22.316 205.945 22.6273 206.65 22.882C207.383 23.1084 208.159 23.3348 208.977 23.5612C209.823 23.7876 210.683 24.0565 211.557 24.3677C212.431 24.6791 213.235 25.0894 213.968 25.5988C214.702 26.1082 215.294 26.7733 215.745 27.5939C216.196 28.3863 216.422 29.4052 216.422 30.6503C216.422 32.0937 215.999 33.3248 215.152 34.3435C214.307 35.3623 213.249 36.1404 211.98 36.6783C210.711 37.1879 209.413 37.4427 208.088 37.4427C206.424 37.4427 204.761 37.1596 203.097 36.5933C201.433 35.9988 200.051 34.9661 198.951 33.4946Z" fill="white"/>
</g>
</svg>
