<svg width="123" height="40" viewBox="0 0 123 40" fill="none" xmlns="http://www.w3.org/2000/svg">
<g id="Logo">
<path id="Vector" d="M27.875 7.64588V2.80469H52.2322V7.64588H42.8304V36.3019H37.3743V7.64588H27.875Z" fill="white"/>
<path id="Vector_2" d="M67.1522 31.9038L68.5164 31.7571L68.6136 35.7182C64.9115 36.468 61.6312 36.8427 58.7733 36.8427C55.1683 36.8427 52.5704 35.8483 50.9792 33.8599C49.4203 31.8711 48.6406 28.6925 48.6406 24.3241C48.6406 15.6523 52.1645 11.3164 59.2119 11.3164C66.0319 11.3164 69.442 15.0492 69.442 22.5147L69.101 26.329H53.9992C54.0319 28.3501 54.4701 29.8336 55.3147 30.7789C56.1589 31.7245 57.7343 32.1971 60.0399 32.1971C62.3459 32.1971 64.7164 32.0992 67.1522 31.9038ZM64.2294 22.2213C64.2294 19.809 63.8396 18.1301 63.0603 17.1845C62.3133 16.2065 61.0305 15.7175 59.2119 15.7175C57.3933 15.7175 56.0617 16.2228 55.2171 17.2334C54.4052 18.2441 53.9831 19.9066 53.9508 22.2213H64.2294Z" fill="white"/>
<path id="Vector_3" d="M72.1172 36.3048V11.8543H77.3782V14.7884C80.1386 12.9954 82.8993 11.838 85.6596 11.3164V16.6466C82.8667 17.2008 80.4796 17.9182 78.4986 18.7982L77.427 19.2385V36.3048H72.1172Z" fill="white"/>
<path id="Vector_4" d="M87.2812 36.3048V11.8543H92.5427V14.7884C95.303 12.9954 98.0634 11.838 100.824 11.3164V16.6466C98.0311 17.2008 95.6441 17.9182 93.663 18.7982L92.5911 19.2385V36.3048H87.2812Z" fill="white"/>
<path id="Vector_5" d="M120.474 19.3852V30.5347C120.506 31.2518 120.685 31.7897 121.01 32.1483C121.367 32.4743 121.903 32.6862 122.617 32.7838L122.471 36.8427C119.678 36.8427 117.519 36.2396 115.992 35.0332C113.394 36.2396 110.78 36.8427 108.149 36.8427C103.31 36.8427 100.891 34.2511 100.891 29.0676C100.891 26.5897 101.54 24.7968 102.839 23.6883C104.171 22.5799 106.2 21.9115 108.929 21.6834L115.213 21.1455V19.3852C115.213 18.081 114.92 17.1682 114.336 16.6466C113.784 16.125 112.956 15.8642 111.851 15.8642C109.773 15.8642 107.175 15.9946 104.057 16.2554L102.498 16.3532L102.303 12.5878C105.843 11.7402 109.091 11.3164 112.046 11.3164C115.034 11.3164 117.178 11.9684 118.477 13.2724C119.808 14.5439 120.474 16.5814 120.474 19.3852ZM109.562 25.4487C107.321 25.6445 106.2 26.8669 106.2 29.1164C106.2 31.3659 107.191 32.4904 109.172 32.4904C110.796 32.4904 112.517 32.2297 114.336 31.708L115.213 31.4147V24.9108L109.562 25.4487Z" fill="white"/>
<path id="Vector_6" fill-rule="evenodd" clip-rule="evenodd" d="M13.1421 0C17.381 0 20.9179 3.00684 21.7357 7.00407C21.8526 7.57512 21.914 8.16635 21.914 8.77193V31.2281C21.914 36.0726 17.9866 40 13.1421 40H-9.31401C-10.2731 40 -11.1963 39.846 -12.0601 39.5618C-15.5597 38.4091 -18.0859 35.1137 -18.0859 31.2281V8.77193C-18.0859 3.92733 -14.1586 0 -9.31401 0H13.1421ZM9.58417 2.80702H13.1421C16.0491 2.80702 18.4705 4.88667 18.9996 7.63937C17.3115 7.83063 15.3817 7.6534 13.3438 6.78011C11.5382 6.00614 10.3403 4.57228 9.58417 2.80702ZM1.2554 2.80702H6.58697C7.47294 5.47351 9.16978 8.04512 12.2382 9.36014C14.6996 10.415 17.0372 10.6597 19.107 10.4542V13.3223C16.2968 14.212 13.4964 14.572 11.2557 13.9162C10.1428 13.5904 8.86557 12.7255 7.49119 11.365C6.13575 10.0231 4.78312 8.29712 3.50592 6.41053C2.71224 5.23814 1.95645 4.01688 1.2554 2.80702ZM-1.96829 2.80702H-5.68271C-5.51341 5.9834 -6.26183 9.86323 -9.0459 13.7937C-10.8904 16.3977 -13.0716 17.8298 -15.2789 18.4695V24.0656C-13.9489 23.2579 -12.3831 22.1547 -10.5499 20.6653C-6.21832 17.1458 -2.80667 15.7455 -0.21969 15.4894C2.35224 15.2347 4.18066 16.1269 4.98592 17.2545C5.83154 18.4382 6.30943 20.0246 6.48943 21.6975C6.67154 23.3909 6.56066 25.2796 6.13329 27.154C5.28452 30.8804 3.12908 34.7589 -0.753796 36.8498C-0.965235 36.9639 -1.1786 37.0782 -1.39362 37.193H2.96943C4.67575 35.0267 6.04136 32.8744 6.53119 31.1877C7.08382 29.2835 7.31083 27.2649 7.52277 25.3779L7.52311 25.3775V25.3768C7.59925 24.6993 7.67364 24.0382 7.76031 23.4056C7.91084 22.3095 8.11855 21.1481 8.56452 20.3105C8.80066 19.8674 9.17575 19.374 9.77926 19.0891C10.4147 18.7891 11.0761 18.826 11.6561 19.0193C13.2821 19.5614 15.4435 19.6737 19.107 18.7558V16.2521C16.2817 17.0482 13.2014 17.4104 10.467 16.6102C8.70276 16.0938 7.02803 14.8564 5.51645 13.3598C3.98592 11.8446 2.51855 9.95874 1.18171 7.98421C0.0382023 6.29523 -1.02632 4.51646 -1.96829 2.80702ZM19.107 21.6428C15.6168 22.4418 13.107 22.4084 10.9842 21.7516C10.8273 22.1189 10.681 22.7702 10.5414 23.7874C10.4719 24.2926 10.4077 24.867 10.3379 25.4881C10.121 27.4235 9.85329 29.8123 9.22663 31.9702C8.74663 33.6242 7.70803 35.4414 6.47364 37.193H9.2975C9.81855 35.8975 10.2982 34.6639 10.675 33.627C11.08 32.5126 11.3333 31.7112 11.415 31.3035C11.5698 30.5291 11.8649 29.6958 12.5571 29.1053C13.2771 28.4905 14.1614 28.3586 14.9898 28.4007C15.8056 28.4425 16.7621 28.6621 17.841 28.9716C18.2333 29.0839 18.655 29.2123 19.107 29.3551V21.6428ZM19.0157 32.2733C18.2831 32.0354 17.6382 31.8337 17.067 31.6698C16.0245 31.3705 15.3252 31.2284 14.8473 31.2042C14.5386 31.1884 14.4136 31.2267 14.3779 31.2425C14.3575 31.2663 14.2579 31.4021 14.1677 31.854C14.0386 32.4989 13.7119 33.4884 13.3133 34.5856C13.0273 35.373 12.6873 36.2607 12.3193 37.193H13.1421C16.08 37.193 18.5217 35.0691 19.0157 32.2733ZM-7.45025 37.193C-5.61201 36.2449 -3.7566 35.2786 -2.0846 34.3782C0.874695 32.7849 2.66663 29.734 3.39645 26.5305C3.75891 24.94 3.84522 23.3635 3.69855 21.9979C3.54943 20.6116 3.17224 19.5446 2.70171 18.886C2.63013 18.7856 1.91469 18.0989 0.0567989 18.2828C-1.78611 18.4653 -4.69025 19.5211 -8.77976 22.8439C-11.3397 24.9239 -13.482 26.3488 -15.2789 27.2909V30.4565C-14.836 30.0512 -14.3358 29.7126 -13.8736 29.4239C-13.4026 29.1295 -12.8895 28.84 -12.3852 28.5572L-12.2603 28.487C-11.7892 28.2232 -11.3217 27.9611 -10.8574 27.6832C-9.84176 27.0747 -8.92853 26.4393 -8.22632 25.7C-7.01053 24.42 -5.25569 22.8926 -3.6059 21.8498C-2.79201 21.3351 -1.91302 20.88 -1.08369 20.6712C-0.305305 20.4751 0.901361 20.3954 1.74241 21.3568C2.54276 22.2716 2.87434 23.6435 2.29154 25.4242C1.73785 27.1158 0.347326 29.2512 -2.3405 32.0288C-5.13043 34.9116 -7.92046 36.3558 -10.2727 36.8161C-10.538 36.8681 -10.799 36.9074 -11.0547 36.9351C-10.504 37.1028 -9.91955 37.193 -9.31401 37.193H-7.45025ZM-15.2789 15.4996C-13.919 14.9355 -12.5641 13.9042 -11.3365 12.1712C-8.91257 8.74916 -8.32681 5.43091 -8.49362 2.80702H-9.31401C-12.6084 2.80702 -15.2789 5.47761 -15.2789 8.77193V15.4996ZM14.375 31.2439C14.3684 31.247 14.3656 31.2491 14.3659 31.2491C14.3663 31.2495 14.3677 31.2488 14.3701 31.247L14.3719 31.246L14.375 31.2439ZM-2.10611 24.2225C-3.51962 25.1158 -5.09832 26.4828 -6.19113 27.6333C-7.15537 28.6484 -8.32541 29.4386 -9.41506 30.0912C-9.9158 30.3909 -10.4179 30.6723 -10.8833 30.9333L-11.0123 31.0056C-11.5223 31.2916 -11.9796 31.5502 -12.3859 31.8042C-13.262 32.3516 -13.6283 32.72 -13.7431 32.9554C-13.776 33.0232 -13.7799 33.0618 -13.7698 33.1207C-13.7553 33.2049 -13.6949 33.3989 -13.4545 33.7193L-13.4312 33.7505L-13.4096 33.7828C-13.4082 33.7846 -13.3766 33.8284 -13.2761 33.8898C-13.1724 33.9533 -13.0118 34.0249 -12.7837 34.0811C-12.3253 34.194 -11.658 34.2267 -10.8116 34.0611C-9.12867 33.7319 -6.83089 32.6323 -4.35762 30.0765C-1.78218 27.4154 -0.734707 25.6456 -0.376181 24.5512C-0.162848 23.8993 -0.206709 23.5463 -0.27478 23.366C-0.309166 23.3723 -0.349867 23.3811 -0.397938 23.3933C-0.80327 23.4954 -1.38836 23.7688 -2.10611 24.2225ZM-0.123903 23.3526C-0.124605 23.3537 -0.133024 23.3537 -0.147058 23.3509C-0.130568 23.3505 -0.123201 23.3519 -0.123903 23.3526Z" fill="white"/>
</g>
</svg>
