<svg width="215" height="42" viewBox="0 0 215 42" fill="none" xmlns="http://www.w3.org/2000/svg">
<g id="Logo">
<path id="Vector" d="M26.9957 4.6496H12.1172V0H26.9957C32.1316 0 36.2949 4.16339 36.2949 9.2992V24.1779H31.6453V9.2992C31.6453 6.73132 29.5637 4.6496 26.9957 4.6496Z" fill="white"/>
<path id="Vector_2" d="M10.2601 30.6885H25.1386V35.3381H10.2601C5.12433 35.3381 0.960938 31.1748 0.960938 26.0389V11.1602H5.61054V26.0389C5.61054 28.6069 7.69221 30.6885 10.2601 30.6885Z" fill="white"/>
<path id="Vector_3" fill-rule="evenodd" clip-rule="evenodd" d="M27.9263 17.6664C27.9263 22.8022 23.7631 26.9656 18.6273 26.9656C13.4915 26.9656 9.32812 22.8022 9.32812 17.6664C9.32812 12.5306 13.4915 8.36719 18.6273 8.36719C23.7631 8.36719 27.9263 12.5306 27.9263 17.6664ZM23.2769 17.6664C23.2769 20.2343 21.1952 22.316 18.6273 22.316C16.0594 22.316 13.9777 20.2343 13.9777 17.6664C13.9777 15.0985 16.0594 13.0168 18.6273 13.0168C21.1952 13.0168 23.2769 15.0985 23.2769 17.6664Z" fill="white"/>
<path id="Vector_4" d="M56.1393 32.3754C54.3785 32.3754 52.7935 32.0736 51.3842 31.4696C49.9753 30.8405 48.8683 29.9604 48.0634 28.8282C47.2581 27.696 46.8555 26.375 46.8555 24.8653H51.46C51.5604 25.9975 52.0007 26.9283 52.7809 27.6579C53.5858 28.3879 54.7054 28.7524 56.1393 28.7524C57.6239 28.7524 58.7812 28.4004 59.6117 27.696C60.4416 26.966 60.8568 26.0352 60.8568 24.903C60.8568 24.0223 60.5927 23.3054 60.0645 22.752C59.561 22.1985 58.9198 21.7708 58.1396 21.4689C57.385 21.1669 56.3281 20.8399 54.9695 20.4877C53.2589 20.0348 51.8626 19.5819 50.7807 19.1291C49.7238 18.651 48.8181 17.9214 48.0634 16.9402C47.3083 15.959 46.9313 14.6507 46.9313 13.0153C46.9313 11.5058 47.3083 10.1849 48.0634 9.05272C48.8181 7.92054 49.8749 7.05251 51.2335 6.44871C52.5921 5.84487 54.1646 5.54297 55.951 5.54297C58.492 5.54297 60.5676 6.18452 62.1778 7.46767C63.813 8.72562 64.7188 10.4616 64.895 12.6756H60.1398C60.0645 11.7196 59.6117 10.9019 58.7812 10.2226C57.9508 9.5433 56.8568 9.20365 55.4981 9.20365C54.2651 9.20365 53.2589 9.51815 52.4787 10.1471C51.699 10.7761 51.3089 11.6818 51.3089 12.8644C51.3089 13.6694 51.5478 14.3362 52.0258 14.8645C52.5289 15.3677 53.158 15.7703 53.9131 16.0722C54.6677 16.3741 55.699 16.7012 57.0074 17.0534C58.7436 17.5314 60.1524 18.0094 61.2344 18.4875C62.3414 18.9655 63.2723 19.7077 64.0269 20.7141C64.8071 21.6953 65.1968 23.0162 65.1968 24.6765C65.1968 26.01 64.8322 27.2682 64.1027 28.4506C63.3978 29.633 62.354 30.589 60.9703 31.319C59.6116 32.0234 58.0015 32.3754 56.1393 32.3754Z" fill="white"/>
<path id="Vector_5" d="M78.8781 10.9766C80.5138 10.9766 81.9729 11.3162 83.2562 11.9955C84.5641 12.6748 85.5833 13.6812 86.3128 15.0146C87.0423 16.3481 87.4073 17.9583 87.4073 19.8453V32.1104H83.1427V20.4869C83.1427 18.625 82.6773 17.2035 81.7464 16.2223C80.8156 15.2159 79.5448 14.7128 77.9347 14.7128C76.3245 14.7128 75.0412 15.2159 74.0853 16.2223C73.1544 17.2035 72.689 18.625 72.689 20.4869V32.1104H68.3867V11.3162H72.689V13.6938C73.3934 12.8384 74.2866 12.1716 75.3686 11.6936C76.4756 11.2156 77.6455 10.9766 78.8781 10.9766Z" fill="white"/>
<path id="Vector_6" d="M89.5742 21.619C89.5742 19.5308 90.002 17.6816 90.8575 16.0714C91.7381 14.4612 92.9205 13.2158 94.4047 12.3352C95.9144 11.4294 97.5748 10.9766 99.3863 10.9766C101.022 10.9766 102.443 11.3037 103.651 11.9578C104.884 12.5868 105.865 13.3793 106.595 14.3353V11.3162H110.934V32.1104H106.595V29.0157C105.865 29.9972 104.871 30.8146 103.613 31.4688C102.355 32.123 100.921 32.4503 99.311 32.4503C97.5246 32.4503 95.8893 31.9975 94.4047 31.0917C92.9205 30.1604 91.7381 28.8776 90.8575 27.2423C90.002 25.5815 89.5742 23.7072 89.5742 21.619ZM106.595 21.6945C106.595 20.2604 106.293 19.015 105.689 17.9583C105.11 16.9016 104.343 16.0965 103.387 15.543C102.431 14.9895 101.399 14.7128 100.292 14.7128C99.1849 14.7128 98.1537 14.9895 97.1977 15.543C96.2413 16.0714 95.4615 16.8639 94.8576 17.9206C94.2791 18.9521 93.9899 20.1849 93.9899 21.619C93.9899 23.0531 94.2791 24.3112 94.8576 25.3927C95.4615 26.4747 96.2413 27.3051 97.1977 27.8835C98.1788 28.4373 99.2105 28.7139 100.292 28.7139C101.399 28.7139 102.431 28.4373 103.387 27.8835C104.343 27.3302 105.11 26.5249 105.689 25.4685C106.293 24.3865 106.595 23.1286 106.595 21.6945Z" fill="white"/>
<path id="Vector_7" d="M119.001 14.3731C119.731 13.417 120.725 12.6119 121.983 11.9578C123.241 11.3037 124.662 10.9766 126.247 10.9766C128.059 10.9766 129.707 11.4294 131.191 12.3352C132.701 13.2158 133.883 14.4612 134.739 16.0714C135.594 17.6816 136.022 19.5308 136.022 21.619C136.022 23.7072 135.594 25.5815 134.739 27.2423C133.883 28.8776 132.701 30.1604 131.191 31.0917C129.707 31.9975 128.059 32.4503 126.247 32.4503C124.662 32.4503 123.254 32.1356 122.021 31.5065C120.788 30.8527 119.782 30.0474 119.001 29.0915V41.9983H114.699V11.3162H119.001V14.3731ZM131.644 21.619C131.644 20.1849 131.342 18.9521 130.738 17.9206C130.16 16.8639 129.38 16.0714 128.399 15.543C127.442 14.9895 126.411 14.7128 125.304 14.7128C124.222 14.7128 123.191 14.9895 122.209 15.543C121.253 16.0965 120.474 16.9016 119.87 17.9583C119.291 19.015 119.001 20.2604 119.001 21.6945C119.001 23.1286 119.291 24.3865 119.87 25.4685C120.474 26.5249 121.253 27.3302 122.209 27.8835C123.191 28.4373 124.222 28.7139 125.304 28.7139C126.411 28.7139 127.442 28.4373 128.399 27.8835C129.38 27.3051 130.16 26.4747 130.738 25.3927C131.342 24.3112 131.644 23.0531 131.644 21.619Z" fill="white"/>
<path id="Vector_8" d="M147.03 32.3754C145.269 32.3754 143.684 32.0736 142.275 31.4696C140.866 30.8405 139.759 29.9604 138.954 28.8282C138.149 27.696 137.746 26.375 137.746 24.8653H142.351C142.451 25.9975 142.891 26.9283 143.671 27.6579C144.476 28.3879 145.596 28.7524 147.03 28.7524C148.515 28.7524 149.672 28.4004 150.502 27.696C151.332 26.966 151.747 26.0352 151.747 24.903C151.747 24.0223 151.483 23.3054 150.955 22.752C150.452 22.1985 149.81 21.7708 149.03 21.4689C148.276 21.1669 147.219 20.8399 145.86 20.4877C144.15 20.0348 142.753 19.5819 141.671 19.1291C140.614 18.651 139.709 17.9214 138.954 16.9402C138.199 15.959 137.822 14.6507 137.822 13.0153C137.822 11.5058 138.199 10.1849 138.954 9.05272C139.709 7.92054 140.766 7.05251 142.124 6.44871C143.483 5.84487 145.055 5.54297 146.841 5.54297C149.383 5.54297 151.458 6.18452 153.068 7.46767C154.704 8.72562 155.609 10.4616 155.786 12.6756H151.03C150.955 11.7196 150.502 10.9019 149.672 10.2226C148.841 9.5433 147.747 9.20365 146.388 9.20365C145.156 9.20365 144.15 9.51815 143.369 10.1471C142.59 10.7761 142.199 11.6818 142.199 12.8644C142.199 13.6694 142.438 14.3362 142.916 14.8645C143.42 15.3677 144.049 15.7703 144.803 16.0722C145.558 16.3741 146.59 16.7012 147.898 17.0534C149.634 17.5314 151.043 18.0094 152.125 18.4875C153.232 18.9655 154.163 19.7077 154.918 20.7141C155.698 21.6953 156.087 23.0162 156.087 24.6765C156.087 26.01 155.723 27.2682 154.993 28.4506C154.288 29.633 153.245 30.589 151.861 31.319C150.502 32.0234 148.892 32.3754 147.03 32.3754Z" fill="white"/>
<path id="Vector_9" d="M170.033 10.9766C171.618 10.9766 173.027 11.3163 174.26 11.9956C175.518 12.6749 176.499 13.6813 177.203 15.0147C177.933 16.3482 178.298 17.9584 178.298 19.8453V32.1105H174.033V20.4869C174.033 18.6251 173.568 17.2036 172.637 16.2224C171.706 15.216 170.435 14.7128 168.825 14.7128C167.215 14.7128 165.932 15.216 164.976 16.2224C164.045 17.2036 163.58 18.6251 163.58 20.4869V32.1105H159.277V4.18359H163.58V13.7316C164.309 12.851 165.227 12.1717 166.335 11.6937C167.467 11.2157 168.7 10.9766 170.033 10.9766Z" fill="white"/>
<path id="Vector_10" d="M190.92 32.4503C188.957 32.4503 187.184 32.01 185.599 31.1294C184.014 30.2236 182.768 28.9655 181.863 27.3553C180.957 25.72 180.504 23.8332 180.504 21.6945C180.504 19.5811 180.969 17.7067 181.9 16.0714C182.831 14.436 184.102 13.178 185.712 12.2975C187.322 11.4169 189.121 10.9766 191.109 10.9766C193.096 10.9766 194.895 11.4169 196.506 12.2975C198.116 13.178 199.386 14.436 200.317 16.0714C201.248 17.7067 201.714 19.5811 201.714 21.6945C201.714 23.8077 201.236 25.6824 200.279 27.3176C199.323 28.9529 198.015 30.2236 196.354 31.1294C194.719 32.01 192.908 32.4503 190.92 32.4503ZM190.92 28.7139C192.027 28.7139 193.058 28.4498 194.015 27.9216C194.996 27.393 195.788 26.6007 196.392 25.5438C196.996 24.487 197.298 23.204 197.298 21.6945C197.298 20.1849 197.009 18.9144 196.43 17.8829C195.851 16.8261 195.084 16.0336 194.128 15.5053C193.172 14.9769 192.14 14.7128 191.033 14.7128C189.926 14.7128 188.895 14.9769 187.939 15.5053C187.008 16.0336 186.266 16.8261 185.712 17.8829C185.159 18.9144 184.882 20.1849 184.882 21.6945C184.882 23.9337 185.448 25.6698 186.58 26.9024C187.737 28.1099 189.184 28.7139 190.92 28.7139Z" fill="white"/>
<path id="Vector_11" d="M209.097 14.8285V26.3391C209.097 27.1188 209.274 27.6851 209.626 28.0371C210.003 28.3644 210.632 28.5276 211.513 28.5276H214.155V32.1129H210.758C208.821 32.1129 207.336 31.6601 206.305 30.7543C205.273 29.8486 204.757 28.377 204.757 26.3391V14.8285H202.305V11.3187H204.757V6.14844H209.097V11.3187H214.155V14.8285H209.097Z" fill="white"/>
</g>
</svg>
