<svg width="133" height="29" viewBox="0 0 133 29" fill="none" xmlns="http://www.w3.org/2000/svg">
<g id="Logo">
<g id="icon">
<path id="3" d="M0.984375 18.8733L10.388 14.6593L15.8006 17.8198L16.894 28.1883L10.224 28.1329L11.2081 20.9248L10.06 20.2594L4.42873 24.6952L0.984375 18.8733Z" fill="black" fill-opacity="0.3"/>
<path id="2" d="M16.4062 17.3771L24.7164 23.5317L27.9968 17.5988L21.3268 14.8819V13.5512L27.9968 10.7789L24.7164 4.90149L16.4062 11.0561V17.3771Z" fill="black" fill-opacity="0.3"/>
<path id="1" d="M15.8006 10.5552L16.894 0.186646L10.224 0.297538L11.2081 7.50564L10.06 8.171L4.37406 3.73525L0.984375 9.50173L10.388 13.7157L15.8006 10.5552Z" fill="black" fill-opacity="0.3"/>
</g>
<g id="text">
<path d="M50.2419 12.9462V22.6601H53.8314V10.2807H48.6037V12.9462H50.2419Z" fill="black" fill-opacity="0.3"/>
<path d="M50.1295 8.54127C50.4587 8.88759 50.9598 9.06074 51.6329 9.06074C52.306 9.06074 52.7995 8.88759 53.1135 8.54127C53.4427 8.17968 53.607 7.72787 53.607 7.18584C53.607 6.62854 53.4427 6.17673 53.1135 5.83042C52.7995 5.469 52.306 5.28821 51.6329 5.28821C50.9598 5.28821 50.4587 5.469 50.1295 5.83042C49.8155 6.17673 49.6584 6.62854 49.6584 7.18584C49.6584 7.72787 49.8155 8.17968 50.1295 8.54127Z" fill="black" fill-opacity="0.3"/>
<path d="M37.7448 22.3889C38.7619 22.8558 40.0109 23.0894 41.4915 23.0894C42.8825 23.0894 44.0791 22.8709 45.0814 22.4342C46.0837 21.9975 46.854 21.3875 47.3923 20.6044C47.9458 19.8061 48.2226 18.88 48.2226 17.8257C48.2226 16.8017 47.961 15.9357 47.4375 15.2278C46.9287 14.505 46.2184 13.9402 45.3058 13.5337C44.3935 13.1119 43.3388 12.8484 42.1422 12.7431L40.886 12.6301C40.1381 12.5697 39.5994 12.3666 39.2702 12.0201C38.9414 11.6737 38.7767 11.267 38.7767 10.8003C38.7767 10.4387 38.8666 10.1075 39.0458 9.8063C39.2254 9.49 39.4946 9.24154 39.8537 9.06074C40.2277 8.88013 40.684 8.78973 41.2223 8.78973C41.7907 8.78973 42.2618 8.89504 42.6357 9.10603C42.7181 9.1506 42.7962 9.19825 42.8699 9.24881L42.8876 9.26136C42.915 9.28046 42.9421 9.30029 42.9681 9.3203C43.1954 9.49509 43.3764 9.70226 43.5108 9.94181C43.7052 10.2732 43.8028 10.6421 43.8028 11.0488H47.3923C47.3923 9.96436 47.1455 9.02309 46.652 8.22497C46.1584 7.41175 45.4481 6.78678 44.5207 6.34989C43.608 5.89808 42.5086 5.67217 41.2223 5.67217C39.9957 5.67217 38.9338 5.88316 38.0364 6.30478C37.1389 6.71148 36.4358 7.2988 35.9274 8.06673C35.4335 8.83484 35.1868 9.7461 35.1868 10.8003C35.1868 12.2611 35.6731 13.4357 36.6454 14.3244C37.6176 15.2129 38.919 15.7249 40.5492 15.8604L41.7834 15.9734C42.7853 16.0638 43.5108 16.2671 43.9596 16.5833C44.4083 16.8845 44.6327 17.2986 44.6327 17.8257C44.6327 18.068 44.5933 18.2952 44.5145 18.5074C44.456 18.665 44.3758 18.8143 44.2739 18.9553C44.0343 19.2716 43.6828 19.52 43.2192 19.7008C42.7557 19.8814 42.1798 19.9718 41.4915 19.9718C40.7288 19.9718 40.1081 19.8665 39.6294 19.6555C39.1506 19.4296 38.7919 19.1361 38.5523 18.7746C38.3279 18.413 38.2159 18.0216 38.2159 17.5998H34.6484C34.6484 18.6691 34.91 19.6179 35.4335 20.4462C35.9571 21.2596 36.7277 21.9071 37.7448 22.3889Z" fill="black" fill-opacity="0.3"/>
<path d="M61.8411 22.8182C60.5997 22.8182 59.5974 22.6676 58.8347 22.3664C58.0717 22.0501 57.5109 21.5306 57.1518 20.8078C56.8078 20.0697 56.6358 19.0758 56.6358 17.8257V12.9237H54.7737V10.2807H56.6358V6.93738H59.979V10.2807H63.5689V12.9237H59.979V17.9614C59.979 18.5487 60.1286 19.0005 60.4277 19.3167C60.7417 19.6179 61.1828 19.7685 61.7515 19.7685H63.5689V22.8182H61.8411Z" fill="black" fill-opacity="0.3"/>
<path fill-rule="evenodd" clip-rule="evenodd" d="M67.8911 22.5472C68.6986 22.9086 69.6261 23.0894 70.6732 23.0894C71.705 23.0894 72.6177 22.9086 73.4104 22.5472C74.2031 22.1858 74.8614 21.6812 75.3849 21.0337C75.9084 20.386 76.26 19.6481 76.4392 18.8198H73.1412C72.9916 19.1963 72.7073 19.5126 72.2885 19.7685C71.8698 20.0246 71.3311 20.1526 70.6732 20.1526C70.2656 20.1526 69.9011 20.1041 69.5802 20.0069C69.336 19.9331 69.117 19.831 68.923 19.7008C68.4743 19.3996 68.1451 18.9778 67.9359 18.4358C67.8778 18.2814 67.8279 18.1198 67.786 17.9516C67.7434 17.7812 67.709 17.6038 67.683 17.4192H76.6636V16.1993C76.6636 15.0698 76.4244 14.0306 75.9456 13.0819C75.4669 12.1179 74.7714 11.3423 73.8591 10.755C72.9617 10.1526 71.8546 9.85141 70.5384 9.85141C69.5361 9.85141 68.6387 10.0322 67.846 10.3936C67.0685 10.7399 66.4177 11.2143 65.8942 11.8167C65.3707 12.4191 64.9668 13.1045 64.6824 13.8726C64.4132 14.6254 64.2788 15.4161 64.2788 16.2444V16.6962C64.2788 17.4945 64.4132 18.2775 64.6824 19.0457C64.9668 19.7987 65.3707 20.4838 65.8942 21.1014C66.4326 21.7038 67.0981 22.1858 67.8911 22.5472ZM67.7448 15.1855C67.7549 15.1376 67.7654 15.0905 67.777 15.0441C67.808 14.9164 67.8438 14.794 67.8846 14.6771C67.9078 14.6105 67.9323 14.5456 67.9583 14.4825C68.1827 13.9251 68.5119 13.5035 68.9454 13.2174C69.1076 13.1105 69.2832 13.0235 69.4722 12.9566C69.7894 12.8444 70.1449 12.7882 70.5384 12.7882C71.1519 12.7882 71.6602 12.9313 72.0642 13.2174C72.4829 13.4884 72.7973 13.8875 73.0065 14.4146C73.0234 14.4572 73.0397 14.5005 73.0552 14.5443C73.0798 14.6141 73.1029 14.6858 73.1242 14.7593C73.156 14.8686 73.1839 14.9817 73.2081 15.0987C73.2258 15.1849 73.2413 15.2731 73.2547 15.3635H67.7105C67.721 15.3031 67.7325 15.2438 67.7448 15.1855Z" fill="black" fill-opacity="0.3"/>
<path d="M78.1449 22.6601V10.2807H80.9945V13.3986C81.0331 13.2132 81.0772 13.0354 81.1267 12.8647C81.1686 12.7211 81.2142 12.5825 81.2637 12.4493C81.578 11.6059 82.0491 10.9735 82.6771 10.5517C83.3054 10.115 84.0757 9.8967 84.9883 9.8967H85.1451C86.0726 9.8967 86.8429 10.115 87.4564 10.5517C88.0843 10.9735 88.5558 11.6059 88.8698 12.4493L88.8944 12.513L88.9157 12.5712C88.9298 12.5301 88.9446 12.4895 88.9594 12.4493C89.2885 11.6059 89.7673 10.9735 90.3956 10.5517C91.0235 10.115 91.7942 9.8967 92.7065 9.8967H92.8636C93.7907 9.8967 94.5686 10.115 95.1969 10.5517C95.84 10.9735 96.3263 11.6059 96.6551 12.4493C96.9843 13.2927 97.149 14.3469 97.149 15.612V22.6601H93.5591V15.4086C93.5591 14.7309 93.3796 14.1812 93.0204 13.7596C92.6765 13.3378 92.1829 13.127 91.5398 13.127C90.8967 13.127 90.388 13.3455 90.014 13.7822C89.6401 14.2038 89.4529 14.7686 89.4529 15.4765V22.6601H85.8406V15.4086C85.8406 14.7309 85.6614 14.1812 85.3023 13.7596C84.9583 13.3378 84.472 13.127 83.8441 13.127C83.1858 13.127 82.6698 13.3455 82.2959 13.7822C81.9219 14.2038 81.7348 14.7686 81.7348 15.4765V22.6601H78.1449Z" fill="black" fill-opacity="0.3"/>
<path fill-rule="evenodd" clip-rule="evenodd" d="M106.738 20.2749V22.6601H109.588V15.0698C109.588 13.9251 109.363 12.9915 108.914 12.2685C108.466 11.5306 107.808 10.9809 106.94 10.6195C106.088 10.2581 105.033 10.0773 103.777 10.0773C103.504 10.0773 103.22 10.0802 102.924 10.0862C102.748 10.0899 102.569 10.0944 102.385 10.0999C101.892 10.115 101.413 10.1375 100.95 10.1677L100.595 10.1917C100.413 10.2045 100.243 10.217 100.082 10.2297C99.961 10.2392 99.8465 10.2487 99.7381 10.2581V13.3078C100.202 13.2776 100.718 13.2474 101.286 13.2174C101.445 13.2091 101.603 13.2012 101.759 13.194C101.985 13.1834 102.208 13.1743 102.428 13.1663C102.603 13.1599 102.775 13.1543 102.946 13.1496C103.485 13.1345 103.919 13.127 104.248 13.127C104.906 13.127 105.385 13.2851 105.684 13.6014C105.983 13.9177 106.132 14.3921 106.132 15.0247V15.0698H103.911C102.819 15.0698 101.855 15.2129 101.017 15.499C100.179 15.77 99.5286 16.1993 99.065 16.7866C98.6011 17.359 98.3695 18.0969 98.3695 19.0005C98.3695 19.8289 98.5563 20.5442 98.9303 21.1466C99.3042 21.734 99.8201 22.1858 100.478 22.5019C101.152 22.8182 101.929 22.9764 102.812 22.9764C103.664 22.9764 104.382 22.8182 104.966 22.5019C105.564 22.1858 106.028 21.734 106.357 21.1466C106.415 21.0477 106.469 20.9449 106.519 20.8383C106.59 20.6874 106.654 20.5288 106.71 20.3625L106.738 20.2749ZM106.132 18.0744V17.0804H103.889C103.26 17.0804 102.775 17.2384 102.431 17.5547C102.101 17.8559 101.937 18.2701 101.937 18.7972C101.937 19.0453 101.978 19.2708 102.06 19.474C102.142 19.6777 102.266 19.8587 102.431 20.0171C102.775 20.3183 103.26 20.4689 103.889 20.4689C104.008 20.4689 104.124 20.4629 104.236 20.4511C104.327 20.4415 104.415 20.4278 104.501 20.4102C104.666 20.3765 104.821 20.3283 104.966 20.2656C105.295 20.115 105.564 19.8665 105.773 19.52C105.983 19.1737 106.102 18.6917 106.132 18.0744Z" fill="black" fill-opacity="0.3"/>
<path d="M111.736 22.6601V10.2807H114.585V14.3668C114.722 13.2003 115.066 12.2598 115.618 11.5457C116.366 10.597 117.442 10.1226 118.848 10.1226H119.32V13.24H118.422C117.435 13.24 116.672 13.511 116.134 14.0532C115.595 14.5803 115.326 15.3484 115.326 16.3574V22.6601H111.736Z" fill="black" fill-opacity="0.3"/>
<path d="M123.872 16.877H125.061L128.943 22.6601H132.981L128.06 15.5578L132.106 10.2807H128.337L123.872 16.1669V6.16927H120.282V22.6601H123.872V16.877Z" fill="black" fill-opacity="0.3"/>
</g>
</g>
</svg>
