<svg width="103" height="29" viewBox="0 0 103 29" fill="none" xmlns="http://www.w3.org/2000/svg">
<g id="Logo">
<path id="Vector" d="M39.252 5.25623H42.8821L38.9263 22.3955H32.5418L28.5859 5.25623H32.2163L35.1709 19.3709H36.2974L39.252 5.25623Z" fill="white" fill-opacity="0.3"/>
<path id="Vector_2" d="M46.3488 17.527C46.3654 18.3 46.5657 18.8629 46.9496 19.2157C47.3501 19.5518 47.9176 19.7199 48.6522 19.7199C50.2044 19.7199 51.5898 19.6694 52.8083 19.5686L53.5093 19.493L53.5595 21.9884C51.64 22.4588 49.9039 22.6941 48.3516 22.6941C46.4657 22.6941 45.0968 22.19 44.2456 21.1817C43.3942 20.1736 42.9688 18.5352 42.9688 16.2668C42.9688 11.7467 44.8132 9.48669 48.5018 9.48669C52.1405 9.48669 53.96 11.3855 53.96 15.183L53.7096 17.527H46.3488ZM50.655 14.9561C50.655 13.948 50.4966 13.2506 50.1794 12.8641C49.8623 12.4609 49.3031 12.2592 48.5018 12.2592C47.7174 12.2592 47.1581 12.4693 46.8244 12.8893C46.5072 13.2926 46.3405 13.9816 46.3236 14.9561H50.655Z" fill="white" fill-opacity="0.3"/>
<path id="Vector_3" d="M55.8594 22.3916V9.78915H59.1893V11.125C60.5914 10.2848 61.9267 9.73874 63.1953 9.48669V12.8893C61.8431 13.175 60.683 13.469 59.715 13.7715L59.2142 13.9479V22.3916H55.8594Z" fill="white" fill-opacity="0.3"/>
<path id="Vector_4" d="M71.6071 12.6604H68.5276V17.8274C68.5276 18.3315 68.5359 18.6927 68.5527 18.9112C68.586 19.1128 68.6779 19.2893 68.8281 19.4405C68.9951 19.5917 69.2452 19.6673 69.5792 19.6673L71.4821 19.6169L71.6322 22.3139C70.5138 22.566 69.6626 22.692 69.0785 22.692C67.5761 22.692 66.5496 22.3558 65.999 21.6838C65.4481 20.9948 65.1727 19.7345 65.1727 17.903V12.6604H63.6953V9.78705H65.1727V6.28357H68.5276V9.78705H71.6071V12.6604Z" fill="white" fill-opacity="0.3"/>
<path id="Vector_5" d="M73.2891 22.3918V9.78937H76.6441V22.3918H73.2891ZM73.2891 8.17627V4.74841H76.6441V8.17627H73.2891Z" fill="white" fill-opacity="0.3"/>
<path id="Vector_6" d="M90.585 23.9546C90.585 25.3998 90.0341 26.4666 88.9326 27.1556C87.831 27.8446 86.337 28.189 84.451 28.189C82.5816 28.189 81.1377 27.9369 80.1195 27.4328C79.118 26.9287 78.6172 26.013 78.6172 24.6857C78.6172 23.627 79.2182 22.6271 80.42 21.6862C79.8024 21.266 79.4935 20.6275 79.4935 19.7706C79.4935 19.4346 79.7439 18.8801 80.2447 18.1071L80.4699 17.7543C79.3351 16.9309 78.7676 15.7211 78.7676 14.1247C78.7676 12.5116 79.2432 11.3438 80.1946 10.6213C81.1627 9.89874 82.4395 9.53748 84.0253 9.53748C84.7429 9.53748 85.4525 9.62149 86.1536 9.78952L86.5541 9.86514L90.585 9.7391V12.436L88.7074 12.2848C89.0744 12.8561 89.258 13.4274 89.258 13.9987C89.258 15.679 88.8326 16.8385 87.9811 17.477C87.13 18.1155 85.7946 18.4348 83.9751 18.4348C83.5912 18.4348 83.2492 18.4012 82.9486 18.334C82.7819 18.7708 82.6982 19.1321 82.6982 19.4178C82.6982 19.6866 82.8403 19.8714 83.124 19.9723C83.4076 20.0731 84.0754 20.1319 85.1268 20.1487C87.23 20.1655 88.6656 20.4512 89.4333 21.0056C90.2011 21.5435 90.585 22.5264 90.585 23.9546ZM81.9221 24.3327C81.9221 25.0552 82.7985 25.4165 84.551 25.4165C86.3203 25.4165 87.205 24.9963 87.205 24.1562C87.205 23.7025 87.0549 23.4086 86.7544 23.2742C86.4539 23.1566 85.8196 23.0893 84.8515 23.0724L82.5982 22.8961C82.1476 23.3498 81.9221 23.8286 81.9221 24.3327ZM82.1224 14.0239C82.1224 15.2506 82.7567 15.8639 84.0253 15.8639C85.3105 15.8639 85.9531 15.2506 85.9531 14.0239C85.9531 12.7805 85.3105 12.1588 84.0253 12.1588C82.7567 12.1588 82.1224 12.7805 82.1224 14.0239Z" fill="white" fill-opacity="0.3"/>
<path id="Vector_7" d="M92.7955 11.2258C93.6802 10.0664 95.1573 9.48669 97.2272 9.48669C99.2969 9.48669 100.774 10.0664 101.659 11.2258C102.543 12.3684 102.986 13.9816 102.986 16.0652C102.986 20.4844 101.066 22.6941 97.2272 22.6941C93.3882 22.6941 91.4688 20.4844 91.4688 16.0652C91.4688 13.9816 91.9111 12.3684 92.7955 11.2258ZM95.3745 18.9133C95.7249 19.5182 96.3425 19.8207 97.2272 19.8207C98.1119 19.8207 98.721 19.5182 99.055 18.9133C99.4054 18.3084 99.5807 17.359 99.5807 16.0652C99.5807 14.7713 99.4054 13.8303 99.055 13.2422C98.721 12.6541 98.1119 12.3601 97.2272 12.3601C96.3425 12.3601 95.7249 12.6541 95.3745 13.2422C95.0407 13.8303 94.8737 14.7713 94.8737 16.0652C94.8737 17.359 95.0407 18.3084 95.3745 18.9133Z" fill="white" fill-opacity="0.3"/>
<path id="Vector_8" fill-rule="evenodd" clip-rule="evenodd" d="M15.865 4.29331C14.3657 3.66811 12.7436 3.39852 11.1243 3.50536C9.50493 3.61222 7.93171 4.09264 6.52629 4.90948L5.10829 5.73364L3.47092 2.87866L4.88893 2.0545C6.72935 0.984839 8.78953 0.355686 10.9101 0.215781C13.0307 0.0758507 15.1548 0.428897 17.1182 1.24758C19.0815 2.06629 20.8315 3.32868 22.2327 4.93714C23.6338 6.54558 24.6487 8.45698 25.1989 10.5234C25.7488 12.5899 25.8193 14.756 25.4047 16.8543C24.99 18.9525 24.1016 20.9267 22.8078 22.6239C21.514 24.3212 19.8499 25.6962 17.944 26.6423C16.038 27.5884 13.5796 28.0807 11.8162 28.0807C10.0528 28.0807 9.0232 27.8144 7.67101 27.2507C6.35684 26.7027 5.16277 25.8995 4.15693 24.887C3.15111 23.8744 2.35326 22.6721 1.8089 21.3491C1.26457 20.0263 0.984375 18.6083 0.984375 17.1763C0.984375 15.7444 1.26457 14.3264 1.8089 13.0034C2.35326 11.6805 3.15111 10.4784 4.15693 9.46583C5.16277 8.45328 6.35684 7.65006 7.67101 7.10208C8.98518 6.55408 10.3937 6.27203 11.8162 6.27203C13.2386 6.27203 14.6471 6.55408 15.9613 7.10208C17.2755 7.65006 18.4696 8.45328 19.4754 9.46583C20.4812 10.4784 21.279 11.6805 21.8234 13.0034C22.0576 13.5725 22.2428 14.1591 22.3781 14.7569C22.4441 13.6221 22.3294 12.4808 22.0357 11.3767C21.6155 9.79864 20.8406 8.33904 19.7706 7.11078C18.7006 5.8825 17.3643 4.91848 15.865 4.29331ZM5.27613 20.988C5.46186 17.444 8.3753 14.6278 11.9421 14.6278C15.371 14.6278 18.1962 17.2305 18.5745 20.5805C18.6546 20.4192 18.7292 20.2548 18.798 20.0877C19.1778 19.1647 19.3732 18.1754 19.3732 17.1763C19.3732 16.1773 19.1778 15.188 18.798 14.265C18.4182 13.342 17.8616 12.5034 17.1598 11.7969C16.4581 11.0905 15.625 10.5301 14.7081 10.1478C13.7913 9.76547 12.8086 9.56869 11.8162 9.56869C10.8238 9.56869 9.84107 9.76547 8.9242 10.1478C8.00735 10.5301 7.17426 11.0905 6.47251 11.7969C5.77079 12.5034 5.21414 13.342 4.83434 14.265C4.45458 15.188 4.2591 16.1773 4.2591 17.1763C4.2591 18.1754 4.45458 19.1647 4.83434 20.0877C4.96203 20.398 5.10967 20.6987 5.27613 20.988ZM15.3428 21.3479C15.3428 23.2386 13.8203 24.7713 11.9421 24.7713C10.064 24.7713 8.54143 23.2386 8.54143 21.3479C8.54143 19.4572 10.064 17.9245 11.9421 17.9245C13.8203 17.9245 15.3428 19.4572 15.3428 21.3479Z" fill="white" fill-opacity="0.3"/>
</g>
</svg>
