<svg width="109" height="29" viewBox="0 0 109 29" fill="none" xmlns="http://www.w3.org/2000/svg">
<g id="Logo">
<g id="Union">
<path d="M37.1044 21.9195C38.2089 22.464 39.5312 22.7362 41.0714 22.7362C42.6893 22.7362 44.0816 22.4329 45.2484 21.8262C46.4151 21.2194 47.333 20.4105 48.0019 19.3993C48.6709 18.3881 49.0831 17.2758 49.2387 16.0623H45.9018C45.7151 17.198 45.1784 18.0847 44.2916 18.7226C43.4204 19.3448 42.347 19.656 41.0714 19.656C40.2002 19.656 39.4301 19.5082 38.7612 19.2126C38.1078 18.917 37.5555 18.5048 37.1044 17.9758C36.6532 17.4313 36.311 16.8013 36.0776 16.0857C35.8598 15.3701 35.7509 14.5922 35.7509 13.7522C35.7509 12.881 35.8598 12.0876 36.0776 11.372C36.311 10.6563 36.6454 10.0341 37.081 9.50513C37.5166 8.9762 38.0611 8.57172 38.7145 8.2917C39.3679 7.99612 40.1146 7.84833 40.9547 7.84833C41.7792 7.84833 42.5181 7.98834 43.1715 8.26836C43.8249 8.53283 44.3616 8.9373 44.7817 9.48179C45.2173 10.0107 45.4973 10.6641 45.6217 11.442H48.9587C48.8187 10.1041 48.4064 8.9373 47.7219 7.94167C47.0374 6.93047 46.1196 6.15263 44.9683 5.60814C43.8327 5.04809 42.4948 4.76807 40.9547 4.76807C39.4768 4.76807 38.1933 5.02475 37.1044 5.53813C36.0309 6.03595 35.1442 6.7049 34.4441 7.54497C33.7441 8.38504 33.2229 9.31845 32.8807 10.3452C32.554 11.372 32.3906 12.4143 32.3906 13.4721V13.9855C32.3906 14.9345 32.554 15.9223 32.8807 16.9491C33.2074 17.9758 33.713 18.9248 34.3975 19.796C35.0975 20.6672 35.9998 21.375 37.1044 21.9195Z" fill="white" fill-opacity="0.3"/>
<path fill-rule="evenodd" clip-rule="evenodd" d="M57.8921 20.7527C58.0524 20.4808 58.1847 20.1808 58.2888 19.8527V22.2929H60.8557V14.4289C60.8557 13.2466 60.6301 12.2898 60.1789 11.5586C59.7434 10.8275 59.09 10.2908 58.2188 9.9485C57.3632 9.60625 56.2819 9.43513 54.9752 9.43513C54.5551 9.43513 54.104 9.4429 53.6217 9.45846C53.155 9.45846 52.6961 9.47402 52.2449 9.50513C51.7938 9.53624 51.3893 9.56736 51.0315 9.59847V12.352C51.4671 12.3209 51.9571 12.2976 52.5016 12.282C53.0617 12.2509 53.6139 12.2276 54.1584 12.212C54.7029 12.1965 55.1696 12.1887 55.5586 12.1887C56.3053 12.1887 56.8576 12.3676 57.2154 12.7254C57.5732 13.0832 57.7521 13.6277 57.7521 14.3589V14.4755H55.1619C54.0418 14.4755 53.0617 14.6233 52.2216 14.9189C51.3971 15.2145 50.7515 15.6579 50.2848 16.249C49.8336 16.8402 49.6081 17.6025 49.6081 18.5359C49.6081 19.3915 49.7947 20.1227 50.1681 20.7294C50.557 21.3361 51.0937 21.8028 51.7782 22.1295C52.4783 22.4562 53.2873 22.6196 54.2051 22.6196C55.0919 22.6196 55.8386 22.464 56.4453 22.1529C57.0676 21.8262 57.5498 21.3595 57.8921 20.7527ZM57.3087 19.2359C57.5732 18.8315 57.721 18.287 57.7521 17.6025V16.4124H55.1152C54.3685 16.4124 53.7929 16.5991 53.3884 16.9724C52.9995 17.3302 52.805 17.7969 52.805 18.3725C52.805 18.9481 52.9995 19.4148 53.3884 19.7727C53.7929 20.1305 54.3685 20.3094 55.1152 20.3094C55.5663 20.3094 55.9786 20.2316 56.352 20.076C56.7409 19.9049 57.0598 19.6249 57.3087 19.2359Z" fill="white" fill-opacity="0.3"/>
<path d="M68.7871 22.7362C67.6826 22.7362 66.7258 22.5496 65.9169 22.1762C65.1235 21.8028 64.4545 21.305 63.91 20.6827C63.3811 20.0605 62.9844 19.3604 62.7199 18.5826C62.4555 17.8047 62.3232 17.0113 62.3232 16.2024V15.759C62.3232 14.9034 62.4555 14.0866 62.7199 13.3088C63 12.5154 63.4122 11.8153 63.9567 11.2086C64.5012 10.5863 65.1701 10.0963 65.9635 9.73848C66.7725 9.36512 67.7059 9.17844 68.7638 9.17844C69.8683 9.17844 70.8562 9.39623 71.7274 9.83182C72.5985 10.2519 73.2908 10.843 73.8042 11.6053C74.3331 12.3676 74.6287 13.2543 74.6909 14.2655H71.5407C71.4629 13.6121 71.1829 13.0677 70.7006 12.6321C70.2339 12.1965 69.5883 11.9787 68.7638 11.9787C68.0482 11.9787 67.4492 12.1498 66.967 12.492C66.5003 12.8343 66.1502 13.3088 65.9169 13.9155C65.6835 14.5067 65.5668 15.1912 65.5668 15.969C65.5668 16.7157 65.6757 17.3925 65.8935 17.9992C66.1269 18.6059 66.4769 19.0804 66.9436 19.4226C67.4259 19.7649 68.0404 19.936 68.7871 19.936C69.3472 19.936 69.8294 19.8349 70.2339 19.6326C70.6384 19.4304 70.9573 19.1504 71.1906 18.7926C71.4395 18.4348 71.5951 18.0303 71.6573 17.5791H74.8076C74.7454 18.6059 74.442 19.5082 73.8975 20.286C73.3686 21.0483 72.6608 21.6473 71.774 22.0829C70.9028 22.5184 69.9072 22.7362 68.7871 22.7362Z" fill="white" fill-opacity="0.3"/>
<path d="M78.8528 22.0128C79.6151 22.3084 80.5796 22.4562 81.7464 22.4562H83.5665V19.6793H81.583C80.9608 19.6793 80.4785 19.516 80.1363 19.1893C79.8096 18.847 79.6462 18.3648 79.6462 17.7425L79.6577 12.002H83.5665V9.62181H79.6624L79.6696 6.05151H76.636L76.6287 9.62181H74.6058V12.002H76.6239L76.6126 17.5325C76.6126 18.7615 76.7993 19.7415 77.1727 20.4727C77.546 21.1883 78.1061 21.7017 78.8528 22.0128Z" fill="white" fill-opacity="0.3"/>
<path d="M89.4392 22.6896C87.9769 22.6896 86.8412 22.2073 86.0322 21.2428C85.2388 20.2783 84.8421 18.847 84.8421 16.9491V9.59847H88.0858V17.2291C88.0858 18.007 88.3036 18.6292 88.7391 19.0959C89.1747 19.5471 89.7659 19.7727 90.5126 19.7727C91.2593 19.7727 91.8661 19.5315 92.3328 19.0493C92.815 18.567 93.0562 17.9136 93.0562 17.0891V9.59847H96.2998V22.2929H93.7329V19.3422C93.6676 19.6106 93.5898 19.863 93.4995 20.0993C93.1728 20.955 92.6828 21.6006 92.0294 22.0362C91.376 22.4718 90.5593 22.6896 89.5792 22.6896H89.4392Z" fill="white" fill-opacity="0.3"/>
<path d="M99.349 21.5928C100.345 22.324 101.714 22.6896 103.456 22.6896C104.576 22.6896 105.548 22.5184 106.373 22.1762C107.197 21.8339 107.835 21.3595 108.286 20.7527C108.753 20.1305 108.987 19.3993 108.987 18.5592C108.987 17.4236 108.559 16.5213 107.703 15.8523C106.863 15.1834 105.696 14.7711 104.203 14.6156L103.083 14.4989C102.398 14.4211 101.9 14.2733 101.589 14.0555C101.294 13.8377 101.146 13.5266 101.146 13.1221C101.146 12.7021 101.333 12.3598 101.706 12.0953C102.079 11.8309 102.608 11.6986 103.293 11.6986C104.055 11.6986 104.638 11.8542 105.043 12.1654C105.447 12.4765 105.665 12.8499 105.696 13.2854H108.613C108.566 11.9631 108.061 10.9597 107.096 10.2752C106.132 9.59069 104.872 9.24844 103.316 9.24844C102.32 9.24844 101.434 9.40401 100.656 9.71515C99.8935 10.0107 99.2946 10.4541 98.859 11.0453C98.4234 11.6364 98.2056 12.3676 98.2056 13.2388C98.2056 14.3278 98.5868 15.1989 99.349 15.8523C100.111 16.5057 101.2 16.9102 102.616 17.0658L103.736 17.1824C104.576 17.2602 105.167 17.4236 105.51 17.6725C105.867 17.9214 106.046 18.2559 106.046 18.6759C106.046 19.1582 105.813 19.5393 105.346 19.8193C104.895 20.0994 104.281 20.2394 103.503 20.2394C102.569 20.2394 101.885 20.0605 101.449 19.7027C101.014 19.3448 100.772 18.9481 100.726 18.5126H97.8089C97.8556 19.8193 98.369 20.8461 99.349 21.5928Z" fill="white" fill-opacity="0.3"/>
</g>
<path id="icon" fill-rule="evenodd" clip-rule="evenodd" d="M14 0.1875C6.26801 0.1875 0 6.45551 0 14.1875C0 21.9195 6.26801 28.1875 14 28.1875C21.732 28.1875 28 21.9195 28 14.1875C28 6.45551 21.732 0.1875 14 0.1875ZM3.13927 14.1875C3.13927 8.18928 8.00178 3.32677 14 3.32677C19.9982 3.32677 24.8607 8.18928 24.8607 14.1875C24.8607 19.6616 20.8108 24.1898 15.5438 24.9393V22.5437L18.3314 21.5146C19.9425 20.9199 21.0124 19.3844 21.0124 17.6671V12.9501C21.0124 12.0832 20.3096 11.3805 19.4428 11.3805C18.5759 11.3805 17.8731 12.0832 17.8731 12.9501V17.6671C17.8731 18.0699 17.6222 18.4301 17.2443 18.5696L15.5438 19.1973V6.77293C15.5438 5.90604 14.8411 5.20329 13.9742 5.20329C13.1073 5.20329 12.4046 5.90604 12.4046 6.77293V13.5077L10.7549 12.8988C10.377 12.7592 10.1261 12.3991 10.1261 11.9963V9.96283C10.1261 9.09594 9.42332 8.39319 8.55644 8.39319C7.68955 8.39319 6.9868 9.09594 6.9868 9.96283V11.9963C6.9868 13.7136 8.05673 15.249 9.66776 15.8438L12.4046 16.8541V24.9319C7.16273 24.1602 3.13927 19.6437 3.13927 14.1875Z" fill="white" fill-opacity="0.3"/>
</g>
</svg>
