<svg width="143" height="29" viewBox="0 0 143 29" fill="none" xmlns="http://www.w3.org/2000/svg">
<g id="Logo" clip-path="url(#clip0_1280_48980)">
<g id="Icon">
<path d="M18.3272 3.28626H8.41701V0.186646H18.3272C21.748 0.186646 24.5211 2.96213 24.5211 6.38587V16.3046H21.4241V6.38587C21.4241 4.674 20.0376 3.28626 18.3272 3.28626Z" fill="white" fill-opacity="0.3"/>
<path d="M7.17824 20.6441H17.0884V23.7437H7.17824C3.75746 23.7437 0.984375 20.9682 0.984375 17.5445L0.984376 7.62571H4.08131L4.08131 17.5445C4.08131 19.2563 5.46785 20.6441 7.17824 20.6441Z" fill="white" fill-opacity="0.3"/>
<path fill-rule="evenodd" clip-rule="evenodd" d="M18.9466 11.9652C18.9466 15.3889 16.1735 18.1644 12.7527 18.1644C9.33194 18.1644 6.55885 15.3889 6.55885 11.9652C6.55885 8.54143 9.33194 5.76595 12.7527 5.76595C16.1735 5.76595 18.9466 8.54143 18.9466 11.9652ZM15.8496 11.9652C15.8496 13.677 14.4631 15.0648 12.7527 15.0648C11.0423 15.0648 9.65578 13.677 9.65578 11.9652C9.65578 10.2533 11.0423 8.86556 12.7527 8.86556C14.4631 8.86556 15.8496 10.2533 15.8496 11.9652Z" fill="white" fill-opacity="0.3"/>
</g>
<g id="SnapShot">
<path d="M37.7383 21.7729C36.5653 21.7729 35.5095 21.5717 34.5711 21.1691C33.6327 20.7498 32.8953 20.1628 32.3591 19.4081C31.8228 18.6533 31.5547 17.7728 31.5547 16.7664H34.6214C34.6884 17.5212 34.9817 18.1417 35.5011 18.6281C36.0374 19.1145 36.7831 19.3577 37.7383 19.3577C38.727 19.3577 39.4979 19.1229 40.0509 18.6533C40.6039 18.1669 40.8804 17.5463 40.8804 16.7916C40.8804 16.2046 40.7044 15.7265 40.3525 15.3576C40.0174 14.9886 39.59 14.7034 39.0705 14.5022C38.5678 14.3009 37.864 14.0829 36.9591 13.848C35.8195 13.5461 34.8895 13.2442 34.1689 12.9423C33.4651 12.6237 32.8618 12.1373 32.3591 11.4832C31.8563 10.829 31.605 9.95688 31.605 8.86668C31.605 7.86034 31.8563 6.9798 32.3591 6.22505C32.8618 5.4703 33.5656 4.89165 34.4705 4.48912C35.3755 4.08658 36.4228 3.88532 37.6126 3.88532C39.3052 3.88532 40.6877 4.31301 41.7602 5.16839C42.8494 6.00701 43.4527 7.1643 43.57 8.64025H40.4028C40.3525 8.00291 40.0509 7.45781 39.4979 7.00496C38.9449 6.55211 38.2159 6.32568 37.311 6.32568C36.4899 6.32568 35.8195 6.53534 35.3001 6.95464C34.7806 7.37395 34.5208 7.97775 34.5208 8.76605C34.5208 9.30276 34.68 9.74723 34.9984 10.0994C35.3336 10.4349 35.7525 10.7032 36.2552 10.9045C36.758 11.1058 37.445 11.3238 38.3164 11.5586C39.4727 11.8773 40.4112 12.196 41.1318 12.5147C41.8691 12.8333 42.4891 13.3281 42.9919 13.999C43.5114 14.6531 43.7711 15.5337 43.7711 16.6406C43.7711 17.5296 43.5281 18.3682 43.0421 19.1565C42.5729 19.9448 41.8775 20.5821 40.9558 21.0685C40.0509 21.5381 38.9784 21.7729 37.7383 21.7729Z" fill="white" fill-opacity="0.3"/>
<path d="M52.8835 7.50813C53.9728 7.50813 54.9447 7.73455 55.7994 8.1874C56.6708 8.64025 57.3495 9.31115 57.8355 10.2001C58.3214 11.089 58.5644 12.1624 58.5644 13.4204V21.5968H55.724V13.848C55.724 12.6069 55.414 11.6593 54.7939 11.0051C54.1739 10.3343 53.3276 9.99881 52.2551 9.99881C51.1826 9.99881 50.328 10.3343 49.6912 11.0051C49.0711 11.6593 48.7611 12.6069 48.7611 13.848V21.5968H45.8955V7.73455H48.7611V9.31953C49.2303 8.74927 49.8252 8.30481 50.5458 7.98614C51.2832 7.66746 52.0624 7.50813 52.8835 7.50813Z" fill="white" fill-opacity="0.3"/>
<path d="M60.0076 14.6028C60.0076 13.2107 60.2925 11.9779 60.8623 10.9045C61.4488 9.83109 62.2364 9.00086 63.2251 8.41383C64.2306 7.81003 65.3366 7.50813 66.5432 7.50813C67.6324 7.50813 68.5792 7.72617 69.3836 8.16225C70.2047 8.58155 70.8583 9.10988 71.3443 9.74723V7.73455H74.235V21.5968H71.3443V19.5338C70.8583 20.188 70.1963 20.7331 69.3585 21.1691C68.5206 21.6052 67.5654 21.8233 66.4929 21.8233C65.3031 21.8233 64.2138 21.5214 63.2251 20.9176C62.2364 20.297 61.4488 19.4416 60.8623 18.3514C60.2925 17.2444 60.0076 15.9949 60.0076 14.6028ZM71.3443 14.6531C71.3443 13.6971 71.1432 12.8669 70.741 12.1624C70.3555 11.458 69.8444 10.9213 69.2076 10.5523C68.5708 10.1833 67.8838 9.99881 67.1464 9.99881C66.4091 9.99881 65.722 10.1833 65.0852 10.5523C64.4484 10.9045 63.9289 11.4328 63.5268 12.1373C63.1413 12.8249 62.9486 13.6468 62.9486 14.6028C62.9486 15.5588 63.1413 16.3974 63.5268 17.1186C63.9289 17.8398 64.4484 18.3933 65.0852 18.7791C65.7388 19.1481 66.4258 19.3326 67.1464 19.3326C67.8838 19.3326 68.5708 19.1481 69.2076 18.7791C69.8444 18.4101 70.3555 17.8734 70.741 17.169C71.1432 16.4477 71.3443 15.6091 71.3443 14.6531Z" fill="white" fill-opacity="0.3"/>
<path d="M79.6075 9.77238C80.0935 9.13504 80.7555 8.59832 81.5933 8.16225C82.4312 7.72617 83.378 7.50813 84.4338 7.50813C85.6403 7.50813 86.738 7.81003 87.7267 8.41383C88.7322 9.00086 89.5198 9.83109 90.0895 10.9045C90.6593 11.9779 90.9442 13.2107 90.9442 14.6028C90.9442 15.9949 90.6593 17.2444 90.0895 18.3514C89.5198 19.4416 88.7322 20.297 87.7267 20.9176C86.738 21.5214 85.6403 21.8233 84.4338 21.8233C83.378 21.8233 82.4396 21.6136 81.6185 21.1943C80.7973 20.7582 80.127 20.2215 79.6075 19.5842V28.1883H76.742V7.73455H79.6075V9.77238ZM88.0283 14.6028C88.0283 13.6468 87.8272 12.8249 87.425 12.1373C87.0396 11.4328 86.5201 10.9045 85.8666 10.5523C85.2298 10.1833 84.5427 9.99881 83.8054 9.99881C83.0848 9.99881 82.3977 10.1833 81.7442 10.5523C81.1074 10.9213 80.5879 11.458 80.1857 12.1624C79.8003 12.8669 79.6075 13.6971 79.6075 14.6531C79.6075 15.6091 79.8003 16.4477 80.1857 17.169C80.5879 17.8734 81.1074 18.4101 81.7442 18.7791C82.3977 19.1481 83.0848 19.3326 83.8054 19.3326C84.5427 19.3326 85.2298 19.1481 85.8666 18.7791C86.5201 18.3933 87.0396 17.8398 87.425 17.1186C87.8272 16.3974 88.0283 15.5588 88.0283 14.6028Z" fill="white" fill-opacity="0.3"/>
<path d="M98.2774 21.7729C97.1044 21.7729 96.0486 21.5717 95.1102 21.1691C94.1717 20.7498 93.4344 20.1628 92.8982 19.4081C92.3619 18.6533 92.0938 17.7728 92.0938 16.7664H95.1605C95.2275 17.5212 95.5208 18.1417 96.0402 18.6281C96.5765 19.1145 97.3222 19.3577 98.2774 19.3577C99.2661 19.3577 100.037 19.1229 100.59 18.6533C101.143 18.1669 101.419 17.5463 101.419 16.7916C101.419 16.2046 101.244 15.7265 100.892 15.3576C100.556 14.9886 100.129 14.7034 99.6096 14.5022C99.1069 14.3009 98.4031 14.0829 97.4982 13.848C96.3586 13.5461 95.4286 13.2442 94.708 12.9423C94.0042 12.6237 93.4009 12.1373 92.8982 11.4832C92.3954 10.829 92.1441 9.95688 92.1441 8.86668C92.1441 7.86034 92.3954 6.9798 92.8982 6.22505C93.4009 5.4703 94.1047 4.89165 95.0096 4.48912C95.9146 4.08658 96.9619 3.88532 98.1517 3.88532C99.8443 3.88532 101.227 4.31301 102.299 5.16839C103.389 6.00701 103.992 7.1643 104.109 8.64025H100.942C100.892 8.00291 100.59 7.45781 100.037 7.00496C99.484 6.55211 98.755 6.32568 97.8501 6.32568C97.029 6.32568 96.3586 6.53534 95.8391 6.95464C95.3197 7.37395 95.0599 7.97775 95.0599 8.76605C95.0599 9.30276 95.2191 9.74723 95.5375 10.0994C95.8727 10.4349 96.2916 10.7032 96.7943 10.9045C97.2971 11.1058 97.9841 11.3238 98.8556 11.5586C100.012 11.8773 100.95 12.196 101.671 12.5147C102.408 12.8333 103.028 13.3281 103.531 13.999C104.05 14.6531 104.31 15.5337 104.31 16.6406C104.31 17.5296 104.067 18.3682 103.581 19.1565C103.112 19.9448 102.417 20.5821 101.495 21.0685C100.59 21.5381 99.5175 21.7729 98.2774 21.7729Z" fill="white" fill-opacity="0.3"/>
<path d="M113.599 7.50813C114.654 7.50813 115.593 7.73455 116.414 8.1874C117.252 8.64025 117.905 9.31115 118.375 10.2001C118.861 11.089 119.104 12.1624 119.104 13.4204V21.5968H116.263V13.848C116.263 12.6069 115.953 11.6593 115.333 11.0051C114.713 10.3343 113.867 9.99881 112.794 9.99881C111.722 9.99881 110.867 10.3343 110.23 11.0051C109.61 11.6593 109.3 12.6069 109.3 13.848V21.5968H106.435V2.97961H109.3V9.34469C109.786 8.75766 110.398 8.30481 111.135 7.98614C111.889 7.66746 112.71 7.50813 113.599 7.50813Z" fill="white" fill-opacity="0.3"/>
<path d="M127.51 21.8233C126.202 21.8233 125.021 21.5297 123.965 20.9427C122.91 20.3389 122.08 19.5003 121.477 18.4269C120.874 17.3367 120.572 16.0788 120.572 14.6531C120.572 13.2442 120.882 11.9947 121.502 10.9045C122.122 9.81432 122.968 8.9757 124.041 8.38867C125.113 7.80164 126.311 7.50813 127.635 7.50813C128.959 7.50813 130.157 7.80164 131.23 8.38867C132.302 8.9757 133.149 9.81432 133.769 10.9045C134.389 11.9947 134.699 13.2442 134.699 14.6531C134.699 16.062 134.38 17.3115 133.743 18.4017C133.107 19.4919 132.235 20.3389 131.129 20.9427C130.04 21.5297 128.833 21.8233 127.51 21.8233ZM127.51 19.3326C128.247 19.3326 128.934 19.1565 129.571 18.8043C130.224 18.452 130.752 17.9237 131.154 17.2193C131.557 16.5148 131.758 15.6595 131.758 14.6531C131.758 13.6468 131.565 12.7998 131.18 12.1121C130.794 11.4077 130.283 10.8794 129.646 10.5271C129.009 10.1749 128.322 9.99881 127.585 9.99881C126.848 9.99881 126.161 10.1749 125.524 10.5271C124.904 10.8794 124.409 11.4077 124.041 12.1121C123.672 12.7998 123.488 13.6468 123.488 14.6531C123.488 16.1458 123.865 17.3031 124.619 18.125C125.39 18.93 126.353 19.3326 127.51 19.3326Z" fill="white" fill-opacity="0.3"/>
<path d="M139.618 10.0743V17.7476C139.618 18.2675 139.735 18.6449 139.97 18.8797C140.221 19.0978 140.64 19.2068 141.227 19.2068H142.986V21.5968H140.724C139.433 21.5968 138.445 21.2949 137.758 20.6911C137.071 20.0873 136.727 19.1062 136.727 17.7476V10.0743H135.093V7.73455H136.727V4.28785H139.618V7.73455H142.986V10.0743H139.618Z" fill="white" fill-opacity="0.3"/>
</g>
</g>
<defs>
<clipPath id="clip0_1280_48980">
<rect width="142" height="28.0017" fill="white" transform="translate(0.984375 0.186646)"/>
</clipPath>
</defs>
</svg>
