<svg id="Layer_1" height="512" viewBox="0 0 50 50" width="512" xmlns="http://www.w3.org/2000/svg"><g><g><path d="m36.3 48-.5-.9 4.5-2.7 4.4 2.7-.5.9-3.9-2.4z" fill="#425060"/></g><g><path d="m39.8 41.6h1v3.4h-1z" fill="#425060"/></g><g><path d="m5.8 48-.5-.9 4.4-2.7 4.5 2.7-.5.9-4-2.4z" fill="#425060"/></g><g><path d="m9.2 41.6h1v3.4h-1z" fill="#425060"/></g><g><path d="m28.5 44.5c0 1.7 2.5 1.9 2.7.1.3-3 1.1-8.9 1.1-8.9l7 .7c1.6.2 3-1 3-2.6 0-.4 0-.7.1-1 .9-3 1.4-6.4 1.5-10.1.1-1.7-1.3-2.2-3.1-2.2-1.7-.1-3.2.3-3.2 2-.1 3.3-.6 6.2-1.3 8.8 0 0-.1.1-.1.1l-3.3-.5c-1.7-.2-3.2 1-3.4 2.6-.4 3.8-.9 9.5-1 11z" fill="#f76861"/></g><g><path d="m42.4 32.9s0 .1 0 0c0 .1-6.2-1.4-6.2-1.4s0-.1.1-.1c.8-2.6 1.2-5.5 1.3-8.8.1-1.7 1.5-2.1 3.2-2s3.1.5 3.1 2.2c-.2 3.7-.7 7.1-1.5 10.1z" fill="#abb734"/></g><g><path d="m42.1 22.2c-1 .1-1.4 1.1-.9 3.3v2.3c-.1 1.6-.3 3.3-.8 4.7-.3.6 0 1.2.6 1.5 1.7.6 2-2.2 2.4-3.2.5-2.3.7-4.5.6-6.8-.1-1.1-.9-2-1.9-1.8z" fill="#c6cc4a"/></g><g><ellipse cx="40.9" cy="16.1" fill="#616b77" rx="2.7" ry="2.6" transform="matrix(-.996 -.092 .092 -.996 80.054 35.895)"/></g><g><path d="m36.4 42c-.2 0-.4 0-.5-.1-.9-.1-1.5-.9-1.4-1.7.1-.9.9-1.5 1.7-1.4 2 .2 5.5.2 6.5-.6 1.2-.9 2.6-6.8 3.1-11.7.1-.9.9-1.5 1.7-1.4.9.1 1.5.9 1.4 1.7-.3 2.7-1.5 11.6-4.3 13.8-2 1.8-6.5 1.5-8.2 1.4z" fill="#559aff"/></g><g><path d="m21.5 44.5c0 1.7-2.5 1.9-2.7.1-.3-3-1.1-8.9-1.1-8.9l-7 .7c-1.6.2-3-1-3-2.6 0-.4 0-.7-.1-1-.9-3-1.4-6.4-1.5-10.1-.1-1.7 1.3-2.2 3.1-2.2 1.7-.1 3.2.3 3.2 2 .1 3.3.6 6.2 1.3 8.8 0 0 .1.1.1.1l3.3-.5c1.7-.2 3.2 1 3.4 2.6.4 3.8.9 9.5 1 11z" fill="#f76861"/></g><g><path d="m7.6 32.9s0 .1 0 0c0 .1 6.2-1.4 6.2-1.4s0-.1-.1-.1c-.8-2.6-1.2-5.5-1.3-8.8-.1-1.7-1.5-2.1-3.2-2s-3.1.5-3.1 2.2c.2 3.7.7 7.1 1.5 10.1z" fill="#abb734"/></g><g><path d="m7.9 22.2c1 .1 1.4 1.1.9 3.3v2.3c.1 1.6.3 3.3.8 4.7.3.6 0 1.2-.6 1.5-1.7.6-2-2.2-2.4-3.2-.5-2.3-.7-4.5-.6-6.8.1-1.1.9-2 1.9-1.8z" fill="#c6cc4a"/></g><g><ellipse cx="9.1" cy="16.1" fill="#616b77" rx="2.7" ry="2.6" transform="matrix(.996 -.092 .092 .996 -1.439 .907)"/></g><g><path d="m13.6 42c.2 0 .4 0 .5-.1.9-.1 1.5-.9 1.4-1.7-.1-.9-.9-1.5-1.7-1.4-2 .2-5.5.2-6.5-.6-1.2-.9-2.6-6.8-3.1-11.7-.2-.9-.9-1.5-1.8-1.4s-1.5.9-1.4 1.7c.3 2.7 1.5 11.6 4.3 13.8 2.1 1.8 6.6 1.5 8.3 1.4z" fill="#559aff"/></g><g><path d="m15.9 25.1h18.1v3h-18.1z" fill="#e5e5e5"/></g><g><path d="m23.6 28.1h2.8v17.8h-2.8z" fill="#cccaca"/></g><g><path d="m25 5.9-2.8-1.9 2.8-2 2.8 2z" fill="#fa4968"/></g><g><path d="m27.8 7.9-2.8-2 2.8-1.9 2.7 1.9z" fill="#6cd8d5"/></g><g><path d="m30.5 9.8-2.7-1.9 2.7-2 2.8 2z" fill="#abb734"/></g><g><path d="m19.5 9.8-2.8-1.9 2.8-2 2.7 2z" fill="#f76861"/></g><g><path d="m22.2 11.7-2.7-1.9 2.7-1.9 2.8 1.9z" fill="#e5e5e5"/></g><g><path d="m25 13.7-2.8-2 2.8-1.9 2.8 1.9z" fill="#a7cec8"/></g><g><path d="m22.2 7.9-2.7-2 2.7-1.9 2.8 1.9z" fill="#ffb95c"/></g><g><path d="m25 9.8-2.8-1.9 2.8-2 2.8 2z" fill="#559aff"/></g><g><path d="m27.8 11.7-2.8-1.9 2.8-1.9 2.7 1.9z" fill="#d9baa8"/></g><g><path d="m27.8 14.5-2.8 1.9v-2.7l2.8-2z" fill="#ffb95c"/></g><g><path d="m30.5 12.5-2.7 2v-2.8l2.7-1.9z" fill="#6cd8d5"/></g><g><path d="m33.3 10.6-2.8 1.9v-2.7l2.8-2z" fill="#ff8c83"/></g><g><path d="m27.8 20-2.8 2v-2.8l2.8-1.9z" fill="#6cd8d5"/></g><g><path d="m30.5 18.1-2.7 1.9v-2.7l2.7-2z" fill="#ff8c83"/></g><g><path d="m33.3 16.1-2.8 2v-2.8l2.8-1.9z" fill="#559aff"/></g><g><path d="m27.8 17.3-2.8 1.9v-2.8l2.8-1.9z" fill="#d9baa8"/></g><g><path d="m30.5 15.3-2.7 2v-2.8l2.7-2z" fill="#c5dfdc"/></g><g><path d="m33.3 13.4-2.8 1.9v-2.8l2.8-1.9z" fill="#6e9583"/></g><g><path d="m22.2 14.5 2.8 1.9v-2.7l-2.8-2z" fill="#fa4968"/></g><g><path d="m19.5 12.5 2.7 2v-2.8l-2.7-1.9z" fill="#616b77"/></g><g><path d="m16.7 10.6 2.8 1.9v-2.7l-2.8-2z" fill="#fecd04"/></g><g><path d="m22.2 20 2.8 2v-2.8l-2.8-1.9z" fill="#ffb95c"/></g><g><path d="m19.5 18.1 2.7 1.9v-2.7l-2.7-2z" fill="#fa4968"/></g><g><path d="m16.7 16.1 2.8 2v-2.8l-2.8-1.9z" fill="#525f70"/></g><g><path d="m22.2 17.3 2.8 1.9v-2.8l-2.8-1.9z" fill="#e5e5e5"/></g><g><path d="m19.5 15.3 2.7 2v-2.8l-2.7-2z" fill="#abb734"/></g><g><path d="m16.7 13.4 2.8 1.9v-2.8l-2.8-1.9z" fill="#559aff"/></g></g></svg>