<svg id="Layer_1" enable-background="new 0 0 68 68" viewBox="0 0 68 68" xmlns="http://www.w3.org/2000/svg"><g><g><g><g><g><g><path d="m60.5799675 35.0891609h-30.1406231c-.5522461 0-1-.4477539-1-1s.4477539-1 1-1h30.1406231c.5522461 0 1 .4477539 1 1s-.4477539 1-1 1z" fill="#435e88"/></g></g></g><g><g><g><g><path d="m48.3348503 29.212698h-17.3637676c-.5522461 0-1-.4477539-1-1s.4477539-1 1-1h17.3637676c2.7568359 0 5-2.2429199 5-5v-7.276123c0-.5522461.4477539-1 1-1s1 .4477539 1 1v7.276123c0 3.8598633-3.1401367 7-7 7z" fill="#435e88"/></g></g></g><g><g><g><path d="m39.6209831 22.962698h-9.9575176c-.5522461 0-1-.4477539-1-1s.4477539-1 1-1h9.9575176c2.7568359 0 5-2.2429199 5-5v-11.1875c0-.5522461.4477539-.9999998 1-.9999998s1 .4477537 1 .9999998v11.1875c0 3.8598633-3.1401367 7-7 7z" fill="#435e88"/></g></g></g></g><g><g><g><g><path d="m54.3348503 54.2363777c-.5522461 0-1-.4477539-1-1v-7.276123c0-2.7570801-2.2431641-5-5-5h-17.3637676c-.5522461 0-1-.4477539-1-1s.4477539-1 1-1h17.3637676c3.8598633 0 7 3.1401367 7 7v7.276123c0 .5522461-.4477539 1-1 1z" fill="#435e88"/></g></g></g><g><g><g><path d="m45.6209831 64.3977585c-.5522461 0-1-.4477577-1-1.0000038v-11.1875c0-2.7570801-2.2431641-5-5-5h-9.9575176c-.5522461 0-1-.4477539-1-1s.4477539-1 1-1h9.9575176c3.8598633 0 7 3.1401367 7 7v11.1875c0 .5522461-.4477539 1.0000038-1 1.0000038z" fill="#435e88"/></g></g></g></g></g><g><g><g><g><path d="m60.5741158 29.704174c2.4267349.0000057 4.3969917 1.9585342 4.3969917 4.3849602 0 2.4264297-1.970253 4.3849449-4.3969879 4.3849373-2.4267349-.0000038-4.384964-1.9585342-4.384964-4.3849602-.0000038-2.4264278 1.9582252-4.3849449 4.3849602-4.3849373z" fill="#ffd80c"/></g></g></g><g><g><path d="m64.9710846 34.0937996c0 2.4199219-1.9702187 4.3798828-4.4001503 4.3798828-1.6298828 0-3.0598145-.8896484-3.8098145-2.2197266l7.1899414-4.9799786c.6398964.7700177 1.0200234 1.7397443 1.0200234 2.8198224z" fill="#ffbe00"/></g></g></g><g><g><g><g><path d="m54.3285904 10.3499393c2.4267349.0000067 4.3969917 1.9585352 4.3969955 4.384963 0 2.4264269-1.9702568 4.384944-4.3969917 4.3849382-2.4267349-.0000076-4.384964-1.9585361-4.384964-4.384963s1.9582253-4.3849448 4.3849602-4.3849382z" fill="#5cbeff"/></g></g></g><g><g><path d="m58.7255592 14.7395678c0 2.4199209-1.9702148 4.3798819-4.4001465 4.3798819-1.6298828 0-3.0598145-.8896484-3.8098145-2.2197266l7.1899414-4.9799795c.6398927.7700195 1.0200196 1.739746 1.0200196 2.8198242z" fill="#079cff"/></g></g></g><g><g><g><g><path d="m45.6149979 1.959324c2.4267349.0000068 4.3969955 1.9585351 4.3969955 4.3849626s-1.970253 4.3849444-4.3969879 4.3849378c-2.4267387-.0000067-4.384964-1.9585352-4.3849678-4.3849626 0-2.4264273 1.9582252-4.3849447 4.3849602-4.3849378z" fill="#4cc66e"/></g></g></g><g><g><path d="m50.0119667 6.3489518c0 2.4199224-1.9702148 4.3798833-4.4001465 4.3798833-1.6298828 0-3.0598145-.8896484-3.8098145-2.2197266l7.1899414-4.9799805c.6398927.7700191 1.0200196 1.7397457 1.0200196 2.8198238z" fill="#14a142"/></g></g></g><g><g><g><g><path d="m45.5808182 57.2707748c2.4267349.0000076 4.3969917 1.9585381 4.3969917 4.384964.0000038 2.4264297-1.970253 4.3849411-4.3969879 4.3849335-2.4267349 0-4.384964-1.9585342-4.384964-4.3849602s1.9582253-4.3849449 4.3849602-4.3849373z" fill="#4cc66e"/></g></g></g><g><g><path d="m49.9777832 61.6604042c0 2.4199181-1.9702148 4.379879-4.4001465 4.379879-1.6298828 0-3.0598145-.8896484-3.8098145-2.2197227l7.1899414-4.9799805c.6398927.7700195 1.0200196 1.7397461 1.0200196 2.8198242z" fill="#14a142"/></g></g></g><g><g><g><g><path d="m54.3285904 48.135231c2.4267349.0000076 4.3969917 1.9585342 4.3969955 4.384964 0 2.4264259-1.9702568 4.3849449-4.3969917 4.3849373s-4.384964-1.9585342-4.384964-4.384964c0-2.4264259 1.9582253-4.3849449 4.3849602-4.3849373z" fill="#c175ff"/></g></g></g><g><g><path d="m58.7255592 52.5248604c0 2.4199219-1.9702148 4.3798828-4.4001465 4.3798828-1.6298828 0-3.0598145-.8896484-3.8098145-2.2197266l7.1899414-4.9799805c.6398927.7700196 1.0200196 1.7397462 1.0200196 2.8198243z" fill="#b244f1"/></g></g></g></g><g><g><g><path d="m33.4496193 57.8134613c0 4.5186501-3.6559219 8.1845169-8.1750431 8.1845169-3.4909077 0-6.4680614-2.1913757-7.6511116-5.2658386-.25214.0388298-.5139885.0487709-.7758369.0487709-3.8207016 0-6.9141026-3.083931-6.9141026-6.9046326 0-.6401787.0871248-1.2509956.2519035-1.8329353-3.1805253-.610817-5.5759811-3.4134865-5.5759811-6.7782059 0-2.1042519.9408522-3.9859543 2.4342833-5.2464218-2.3760424-1.0862198-4.0148392-3.4812012-4.0148392-6.2644577 0-2.3949833 1.2121699-4.4997082 3.0545733-5.7407608-.5525789-.9891491-.8726673-2.1336079-.8726673-3.3552494 0-3.1516418 2.1139579-5.8184147 5.0134592-6.6328411-.1939001-.6207638-.2907314-1.2803555-.2907314-1.9688301 0-2.8703794 1.7453346-5.3240767 4.2279158-6.3709936.5431089-3.2586536 3.3843699-5.7507048 6.8075647-5.7507048.9988575 0 1.9491787.2130766 2.8121395.6013498.9020252-1.5227883 2.560236-2.5408216 4.4608803-2.5408216 2.8800869 0 5.2075939 2.3372149 5.2075939 5.2075953-.0000003 2.8798505-.0000003 46.0913411-.0000003 50.6104604z" fill="#ffd80c"/></g></g><g><g><path d="m33.4523926 7.2001953v50.6098633c0 4.5200195-3.659914 8.1899414-8.1799336 8.1899414-.4499512 0-.8901367-.0400391-1.3200684-.1103516 3.880127-.6396484 6.8300781-4.0195313 6.8300781-8.0795898v-50.6098633c0-2.4101563-1.6501465-4.4501953-3.8898926-5.0302734.4299318-.1098633.8798829-.1699219 1.3498536-.1699219 2.880127 0 5.2099629 2.3300781 5.2099629 5.2001953z" fill="#ffbe00"/></g></g><g><g><g><path d="m18.1225567 10.6000977c-.0700684-.5400391.3198242-1.0400391.8598633-1.1103516.5400391-.0698242 1.0500488.3203125 1.1201172.8603516.0297852.2197266.7700195 4.8598633 7.4899902 4.3100586.5500488-.050293 1.0300293.3598633 1.079834.909668.0500488.550293-.3598633 1.0302734-.9099121 1.0800781-.4499512.0400391-.869873.050293-1.2700195.050293-7.5200196-.0000001-8.3698731-6.0302735-8.3698731-6.1000977z" fill="#ffbe00"/></g></g><g><g><path d="m14.5324688 38.1000977c-3.3000488-.1303711-5.8898926.9697266-7.4899898 1.9199219-.6699219-.3100586-1.2800293-.7202148-1.8100586-1.2202148 1.7299805-1.1899414 4.9899898-2.8701172 9.3798828-2.699707.550293.0200195.9802246.4897461.9602051 1.0395508-.02002.5502928-.5000004.9804686-1.0400395.9604491z" fill="#ffbe00"/></g></g><g><g><path d="m10.2224102 18.0200195c-.1899414-.6303711-.2900391-1.2700195-.2900391-1.9599609v-.0302734c2.7900391-.2900391 7.8100586-.1196289 11.380127 4.0102539.3598633.4101563.3198242 1.0400391-.1000977 1.4101563-.1899414.159668-.4199219.2397461-.6499023.2397461-.2800293 0-.5600586-.1201172-.7600098-.3398438-2.920166-3.3701172-7.1799316-3.550293-9.5800781-3.3300782z" fill="#ffbe00"/></g></g><g><g><path d="m30.0124493 53.6699219c.3498535.4301758.2900391 1.0600586-.130127 1.4101563-1.1699219.9599609-2.6398926 1.4897461-4.1499023 1.4897461-1.0600586 0-2.0698242-.2597656-2.9499512-.7197266-1.0300293.5097656-2 .7197266-2.869873.7197266-2.2700195 0-3.920166-1.409668-4.6201172-2.4599609-.3100586-.4599609-.1899414-1.0800781.2700195-1.3901367.4599609-.2998047 1.0698242-.1796875 1.3798828.2700195.1801758.25 1.5400391 2.0800781 3.9799805 1.4301758-1.0498047-1.1499023-1.6799316-2.6699219-1.6799316-4.3398438 0-2.4902344 1.4499512-4.800293 3.6999512-5.8701172.5-.2402344 1.1000977-.0200195 1.3400879.4697266.2299805.5.0200195 1.1000977-.4799805 1.340332-1.5500488.7397461-2.5600586 2.3300781-2.5600586 4.0600586 0 1.5800781.8100586 2.9599609 2.0400391 3.7597656.7099609.4599609 1.5500488.7299805 2.4499512.7299805 1.0500488 0 2.0700684-.3598633 2.8701172-1.0297852.4299315-.3500977 1.0600584-.2900391 1.409912.1298828z" fill="#ffbe00"/></g></g><g><g><path d="m28.0424786 41.7397461c.1699219 0 3.1201172.0800781 5.5100117 2.2402344v3.2202148c-1.8100605-3.3701172-5.5000019-3.4604492-5.5500507-3.4604492-.5500488-.0097656-.9899902-.4697266-.9799805-1.0200195.0100097-.5498047.4299316-.9897461 1.0200195-.9799805z" fill="#ffbe00"/></g></g><g><g><path d="m33.5524902 23.2700195v2.8798828c-2.7800312-3.7099609-7.659914-3.3198242-7.7199726-3.3100586-.5500488.0498047-1.0400391-.3598633-1.0900879-.9101563-.0500488-.5498047.3601074-1.0297852.9099121-1.0795898.2202149-.0200195 4.5300293-.3701171 7.9001484 2.4199219z" fill="#ffbe00"/></g></g><g><g><path d="m19.3623028 32.3598633c-.1997071 1.2602539-.079834 3.3100586 2.2602539 4.6401367.4799805.2700195.6499023.8798828.3798828 1.3598633-.1899414.3198242-.5200195.5-.8701172.5-.1699219 0-.3398438-.0400391-.5-.1298828-3.5200195-2-3.619873-5.4301758-3.0698242-7.4799805-.3500977-.2900391-.6699219-.6298828-.9599609-1.0200195-1.4902344-1.9902344-1.7001953-4.7099609-.5400391-6.9199219.2600098-.4799805.8598633-.6704102 1.3500977-.4101563.4897461.25.6799316.8598633.4199219 1.3500977-.8100586 1.5200195-.6601563 3.3999023.369873 4.7797852.3000488.3999023.6599121.7402344 1.0500488 1.0102539 1.5400391 1.0698242 3.6601563 1.0898438 5.25-.0898438.8300781-.6303711 1.4299316-1.5302734 1.6699219-2.550293.130127-.5297852.6801758-.8598633 1.2099609-.7299805.5400391.1298828.8701172.6699219.7402344 1.2001953-.3601074 1.4697266-1.2202148 2.7695313-2.4301758 3.6796875-1.1599121.8701172-2.5200195 1.2900391-3.8798828 1.2900391-.8400879.0000001-1.6699219-.1601562-2.4501953-.4799804z" fill="#ffbe00"/></g></g><g><g><path d="m14.9323711 45.7998047c-.0397949.0302734-2.9699707 2.4199219-4.75 6.2402344-.6699219-.1298828-1.3098145-.3603516-1.8999023-.6801758 1.9599609-4.3398438 5.2399902-6.9897461 5.3999023-7.1201172.4299316-.3500977 1.0600586-.2797852 1.4101563.1499023.3398437.4404297.2697754 1.0605469-.1601563 1.4101563z" fill="#ffbe00"/></g></g></g></g></g></svg>