<svg id="Layer_1" enable-background="new 0 0 51 51" height="512" viewBox="0 0 51 51" width="512" xmlns="http://www.w3.org/2000/svg"><g id="_x33_2"><g><g><g><g enable-background="new"><g><path d="m49.5 31.0095024c0 .572134-.3748398 1.1343346-1.1245193 1.5683556l-13.5631332 7.8320961c-1.4894257.8581696-3.9061413.8581696-5.3857555 0l-26.1595994-15.2104187c-.7398071-.4241486-1.1047738-.9864101-1.1047738-1.5486698l-.0098736-3.0874672 47.3279076 7.3586369z" fill="#b0b8cf"/></g><g><g><path d="m3.2720921 18.9878731c-1.4922233.861536-1.5000985 2.2591248-.0175736 3.1206741l26.158762 15.2018128c1.4838123.8622971 3.8966217.8623009 5.3888435.0007668l13.5567436-7.826992c1.4922256-.861536 1.500103-2.2591228.0162888-3.1214199l-26.158762-15.2018129c-1.4825249-.8615494-3.8953342-.8615551-5.387558-.00002z" fill="#e3e7f0"/></g></g></g></g><g><g><path d="m47.9298515 29.2356777-13.5553703 7.8257923c-1.2536545.7230339-3.2850418.7230339-4.5286083 0l-26.1588526-15.2019577c-1.245569-.7230377-1.2394872-1.8997402.0141909-2.622776l13.5553694-7.825779c1.2516251-.7230358 3.2850418-.7250633 4.5285835 0l26.1588783 15.1999302c1.2455442.7250634 1.2374609 1.9017659-.0141909 2.6247902z" fill="#1d2943"/></g></g><g><g><g><path d="m45.859169 26.2327118-16.660469 9.6174927-23.4272247-13.6124401 16.6604705-9.6174918z" fill="#fff"/></g></g></g><g><g enable-background="new"><g><g fill="#1d2943"><path d="m8.2646637 26.4380989c0 .2000122-.0700073.3300171-.1799927.4000244l-.4700317.2700195c-.1099854.0699463-.2599487.0599976-.4299927-.0400391l-2.6099853-1.5100097c-.3400269-.1900024-.6099854-.6699829-.6099854-1.0599976 0-.2000122.0700073-.3299561.1799927-.3999634.0100098 0 .0100098 0 .0200195-.0100098l.4499512-.2600098c.1100464-.0700073.2600098-.0599976.4300537.039978l2.6099854 1.5100098c.3399658.1900026.6199951.6699831.6099853 1.0599977z"/><path d="m12.7746735 29.0480843c0 .1900024-.0700073.3300171-.1799927.3900146l-.4700317.2800293c-.1199951.0599976-.2600098.0499878-.4299927-.0499878l-2.6099854-1.5c-.3400269-.2000122-.6099854-.6800537-.6099854-1.0700073 0-.2000122.0700073-.3300171.1799927-.3900146.0100098-.0100098.0299683-.0100098.039978-.0200195s.0100098-.0100098.0200195-.0100098c0 0 .0100098 0 .0199585-.0099487l.3900146-.2400513c.1099854-.0599976.2600098-.0499878.4299927.0500488l2.6100464 1.5c.3399659.1999511.6099855.6699829.6099855 1.0699463z"/></g></g></g></g><g><g><g><path d="m4.5765519 24.1425667c-.3403397-.196497-.6135137-.0359478-.6146224.3551311s.2702634.8660393.6106036 1.0625343l2.6078649 1.5056515c.3403397.1964951.6177692.0383873.6188779-.3526917s-.274519-.8684788-.6148586-1.0649738z" fill="#1d2943"/></g></g><g enable-background="new"><g><g><path d="m7.6540585 25.3753052-2.6078792-1.5056591c-.1702008-.0982571-.3236055-.1072445-.4345922-.0427437l-.4696088.2729321c.1109867-.0645008.2643914-.0555134.4345922.0427437l2.6078386 1.5056591c.3403616.1964741.6159778.6738911.6148796 1.0649662-.0005693.1942787-.0693007.331049-.1800838.3954277l.4696088-.2728901c.1107826-.0643806.1795549-.2011909.1800833-.3954697.0010987-.3910752-.2745175-.8684921-.6148385-1.0649662z" fill="#4c5c75"/></g><g><path d="m12.1678238 27.9813137-2.6121082-1.5080986c-.1686153-.0973225-.3224678-.1060658-.4340639-.0411987l-.4696083.2729321c.1115961-.064867.2654486-.0561638.4340229.0411968l2.6121082 1.5081005c.336091.1940327.6117477.6714497.6106091 1.0625267-.0005283.1948872-.0697069.3319016-.1805716.3963623l.4696083-.2729321c.1108646-.0644188.1800432-.2014751.1806126-.3963623.0010986-.391077-.2745181-.8684521-.6106091-1.0625267z" fill="#4c5c75"/></g></g><g><g><path d="m9.0860729 26.7461395c-.3360863-.1940403-.6135159-.0359478-.614625.3551311-.0011082.3910789.274519.8684959.6106052 1.0625343l2.6121187 1.5081081c.3360863.1940384.6135139.0359287.6146231-.3551502.0011082-.3910789-.2745171-.8684769-.6106033-1.0625172z" fill="#1d2943"/></g></g></g></g></g><g><g><g><g><path d="m20.0806503 6.9903979.0582428 10.6141319c0 .1528702.1019115.2984543.2911663.4148941l2.5475636 1.4776077c.4003239.2329254 1.0408573.2329254 1.4411793 0l2.5548496-1.4776077c.2110672-.1164398.3056946-.2620239.3056946-.4221363l-.0655289-10.5777463c.0218582-.1601558-.0800552-.3202667-.2911224-.4439931l-2.5475636-1.4848938c-.3930359-.2256398-1.0335712-.2256398-1.4339371.0072856l-2.5620899 1.4776082c-.1965408.1164403-.2984543.2620244-.2984543.4148497z" fill="#5094ff"/></g></g></g><g><g><path d="m20.3795986 6.5728555c-.3954735.2283268-.3975868.6010022-.0046673.8293414l2.5471268 1.4802284c.3974209.2309561 1.0408115.2309504 1.436285.0026236l2.5592422-1.4775801c.4000378-.2309613.4021339-.6036272.0047131-.8345833l-2.5471268-1.4802284c-.3929195-.2283397-1.036293-.2283425-1.4363289.0026183z" fill="#57b3fe"/></g></g><g><g enable-background="new"><g><g><path d="m20.0829277 6.988389.0569286 10.6168566c0 .1494865.0996857.299017.291935.4129162l2.5488949 1.4809265c.3987045.2278385 1.0394592.2278385 1.4381657 0l2.5560207-1.4809265c.206459-.1138992.3061447-.2634296.3061447-.4200439l-.0640964-10.6097289c0 .1495314-.0996437.3061457-.2990189.4200864l-2.5631046 1.4738002c-.3915787.2278385-1.0323772.2278385-1.4310818 0l-2.5488949-1.480927c-.1922474-.1138973-.291893-.2634282-.291893-.4129596z" fill="#5094ff"/></g></g></g><g><path d="m26.9748383 5.2945399.065527 16.3134079c0 .1528244.0946274.2984085.2911243.4148941l2.5475636 1.4775639c.4003658.2256393 1.0409012.2256393 1.4339371 0l2.5621357-1.4703236c.1964951-.1237259.2984085-.26931.2984085-.4221344l-.0582429-16.3061223v-.0072856c0-.1455841-.1018677-.2984095-.2984085-.4148941l-2.5475636-1.4775638c-.3930359-.2329254-1.0335712-.2329254-1.4339371 0l-2.5620918 1.4775639c-.1965389.1164846-.2984523.2693099-.2984523.414894z" fill="#df3260"/></g><g><g><g><path d="m34.1746368 21.6081429c0 .1499634-.0999756.2999878-.2999878.4199829l-2.5599976 1.4699707c-.3999634.2300415-1.039978.2300415-1.4400024 0l-2.539978-1.4799805c-.2000122-.1099854-.2999878-.2600098-.2999878-.4099731l-.0599975-16.3100582c0-.1599731.0999756-.2999878.2999878-.4199829l2.5599976-1.4799807c.3999634-.2299805 1.039978-.2299805 1.4400024 0l2.539978 1.4799807c.2000122.1199951.2999878.2700195.2999878.4199829z" fill="#df3260"/></g></g></g><g enable-background="new"><g><g><path d="m26.9739857 5.2949882.0640965 16.3126373c0 .1495304.0996437.2990627.291893.4129601l2.548893 1.4809265c.3987064.2278385 1.0394611.2278385 1.4310837 0l2.5631027-1.4738007c.1993752-.1210232.2990189-.2705555.2990189-.4200859l-.0569269-16.3126373c0 .1495309-.0996857.3061457-.2990608.4200864l-2.5631046 1.4738002c-.3915787.2349215-1.0395031.2349215-1.4382095 0l-2.5417671-1.480927c-.1993314-.1139408-.2990189-.2634288-.2990189-.4129596z" fill="#df3260"/></g></g><g><g><path d="m27.2749672 4.8801398c-.3954735.2283268-.3975868.6010022-.0046673.8293414l2.5471268 1.4802289c.3974209.2309561 1.0408115.2309499 1.436285.0026231l2.5592422-1.4775801c.4000359-.2309608.4021339-.6036272.004715-.8345833l-2.5471287-1.4802284c-.3929195-.2283397-1.036293-.2283425-1.4363289.0026186z" fill="#f45170"/></g></g></g><g><path d="m33.8690262 14.135952.0582428 11.4753685c0 .1455841.1019135.2984543.2984543.4148941l2.5475616 1.4775639c.3930359.2256832 1.0335693.2256832 1.4338913 0l2.5548515-1.4702778c.2110672-.1237259.3056946-.2765961.3056946-.4221802l-.0582428-11.4607973c0 .0072422-.0072403.0072422-.0072403.0145273.0145264-.1601105-.080101-.3202667-.2911682-.4439926l-2.5475655-1.4775639c-.3930359-.2329254-1.0335693-.2329254-1.4339371 0l-2.562088 1.4775639c-.1965408.1164846-.2984543.26931-.2911682.4221802z" fill="#ffd06c"/></g><g><g><g><path d="m41.0746613 25.6081429c0 .1499634-.0999756.2999878-.3099976.4199829l-2.5599976 1.4799805c-.4000244.2200317-1.039978.2200317-1.4299927 0l-2.5499878-1.4899902c-.2000122-.1099854-.3000488-.2600098-.3000488-.4099731l-.0499878-11.4700319c0-.1500244.1000366-.2999878.2999878-.4199829l2.5500488-1.4700317c.3999634-.2299805 1.0499878-.2299805 1.4400024-.0100098l2.5499878 1.4800415c.2116699.1251221.3056641.2876587.2861328.4511719.0006714-.0070801.0038452-.0134888.0038452-.0211792v.039978z" fill="#febc1f"/></g></g></g><g><g><path d="m34.1703377 13.7224312c-.3954773.2283268-.3975868.6010017-.0046692.8293409l2.5471268 1.4802294c.3974228.2309551 1.0408401.2309666 1.4363136.0026398l2.5592461-1.4775791c.4000359-.2309618.4021034-.6036453.0046806-.8346014l-2.5471268-1.4802284c-.3929176-.2283392-1.036293-.228343-1.4363289.0026188z" fill="#ffd06c"/></g></g><g enable-background="new"><g><g><path d="m33.8721695 14.1365938.0569687 11.4734564c0 .1495323.0996895.2990627.2990189.4129601l2.5417671 1.4809265c.3987083.2278385 1.039505.2278385 1.4382095 0l2.5559807-1.4737988c.206501-.1210251.3061447-.2705555.3061447-.4200878l-.0640564-11.4592028c0 .1423607-.1068115.2990179-.2990189.4057894l-2.5560188 1.4809265c-.3987045.2278385-1.039505.2278385-1.4382095-.0071259l-2.548851-1.4808846c-.1922493-.1139401-.291935-.2634715-.291935-.412959z" fill="#febc1f"/></g></g></g></g></g><g><g><g><g><path d="m31.9146881 24.728138-.0100098 5.7599487-1.2399902.7200317-13.1100464-7.5700073.0200196-11.6799927 1.2399902-.7299804 2.1799927 4.2199707.2399902-.1799927 1.2400513-.7299805 3.7399902 6.4099732.0499878-.0299683 1.2399902-.7200317 2.9700318 5.1400146z" fill="#5ec363"/></g></g></g><g><g><g enable-background="new"><g><g><path d="m19.8272648 16.2967262 1.2423763-.7219896-2.2503586-4.3425665-1.2423744.7219887z" fill="#78e75a"/></g></g><g><g><path d="m25.0002098 21.7326469 1.2423763-.7219905-3.7689876-6.4676962-1.2423744.7219896z" fill="#78e75a"/></g></g><g><g><path d="m29.2360115 26.0592785 1.2423763-.7219906-2.9710674-5.1417866-1.2423744.7219887z" fill="#78e75a"/></g></g><g><g><path d="m30.6725197 25.4466076 1.2423763-.7219906-1.4365082.6126709-1.2423763.7219906z" fill="#50b069"/></g></g><g><g><path d="m17.5769081 11.9541588-.0265007 11.6881504 13.112402 7.5704498.0097103-5.7661514-1.4365082.6126709-2.9710655-5.1417885-1.2647362.8151569-3.7689857-6.4676971-1.4039593 1.0317764z" fill="#72d561"/></g></g></g></g><g><g><path d="m30.6628094 31.212759 1.2423763-.7219887.0097103-5.7661533-1.2423763.7219906z" fill="#5ec363"/></g></g></g><g><g><g><path d="m28.9246368 29.268116-.0099487 2.9199829-1.25.7300415-13.1100464-7.5700073.0300293-8.8500366 1.2399903-.7199707 2.1799926 4.2000122.2299805-.170044 1.2400513-.7199707 3.7399902 6.4199829.0599976-.039978 1.2399902-.7300415 2.9699707 5.1500244z" fill="#efc348"/></g></g></g><g><g><g enable-background="new"><g><g><path d="m16.8323593 20.8441525 1.2423744-.7219887-2.2503566-4.3425675-1.2423754.7219887z" fill="#ffd651"/></g></g><g><g><path d="m22.0053043 26.2800732 1.2423764-.7219906-3.7689877-6.4676953-1.2423744.7219887z" fill="#ffd651"/></g></g><g><g><path d="m26.241106 30.6067047 1.2423764-.7219887-2.9710675-5.1417884-1.2423744.7219905z" fill="#ffd651"/></g></g><g><g><path d="m27.6776142 29.9940338 1.2423763-.7219887-1.4365081.6126709-1.2423764.7219887z" fill="#ffd651"/></g></g><g><g><path d="m27.6679039 32.9146347 1.2423763-.7219887.0097103-2.9206009-1.2423763.7219887z" fill="#ddb040"/></g></g></g></g><g><g><path d="m14.5820017 16.501585-.0264988 8.8426018 13.112401 7.5704479.0097103-2.9206009-1.4365082.6126709-2.9710655-5.1417866-1.2647362.8151551-3.7689857-6.4676972-1.4039593 1.0317765z" fill="#efc348"/></g></g></g></g></g><g><g><g><g><g><g fill="#111d33"><path d="m2.4446564 36.6281013c0 .0200195-.0100098.0400391-.0100098.0599976-.0100098-.0199585-.0100098-.039978-.0100098-.0599976z"/><path d="m15.8246613 36.6681404c-.0100098.0099487-.0100098.0299683-.0100098.039978-.0100098-.0100098-.0100098-.0200195-.0100098-.039978z"/></g></g></g><g><g><g fill="#111d33"><path d="m2.4246368 36.6281013c0 .0200195 0 .0400391.0100098.0599976 0-.0199585.0100098-.039978.0100098-.0599976-.0100098 0-.0200196 0-.0200196 0zm13.3800049.0400391c0 .0199585 0 .0299683.0100098.039978 0-.0100098 0-.0300293.0100098-.039978-.0100098 0-.0100098 0-.0200196 0z"/><path d="m14.4846344 33.0981331c-2.9799805-1.7200317-7.8099976-1.7200317-10.7699585 0-1.4700317.8599854-2.2000122 1.9799805-2.2000122 3.0999756l-.0100097 1.6799926c0 1.1400146.7399901 2.2800293 2.2399902 3.1400146 2.9800415 1.7299805 7.8099976 1.7299805 10.7800293 0 .1699829-.0999756.3300171-.2000122.4899902-.3099976.5999756-.4299927 1.039978-.9000244 1.3300171-1.4000244.25-.4499512.3800049-.9099731.3800049-1.3800049l.0099487-1.6799927c0-1.1399534-.75-2.2799681-2.25-3.1499632zm1.3300171 3.6099853c-.1799927.8399658-.8200073 1.6400146-1.8999634 2.2799683-2.6199951 1.5200195-6.9000244 1.5200195-9.5400391 0-1.1199951-.6499634-1.7699585-1.4599609-1.9400024-2.2999878-.0100098-.0199585-.0100098-.039978-.0100098-.0599976h.0200195c.1900024-.7999878.8099976-1.5899658 1.8900146-2.2199707 2.6199951-1.5100098 6.8999634-1.5100098 9.539978 0 1.1000366.6399536 1.7399902 1.4299927 1.9299927 2.2600098h.0200195c-.0100096.0099487-.0100096.0299683-.0100096.039978z"/></g></g></g><g><g><g fill="#111d33"><path d="m2.4446564 36.6281013c0 .0200195-.0100098.0400391-.0100098.0599976-.0100098-.0199585-.0100098-.039978-.0100098-.0599976z"/><path d="m15.8246613 36.6681404c-.0100098.0099487-.0100098.0299683-.0100098.039978-.0100098-.0100098-.0100098-.0200195-.0100098-.039978z"/></g></g></g><g><g><g><path d="m1.5 37.8818512c0 1.1353073.7488589 2.2755661 2.2466061 3.1404037 2.9809568 1.7247772 7.8123426 1.7247772 10.7739849 0 .1739225-.1015015.3382025-.2077751.4927816-.3189468.5991163-.420269 1.0435963-.8937378 1.3286304-1.3913841.2560787-.4493446.3865337-.9131393.3865337-1.3818283l.0048084-1.6861496c-.0048084.1643105-.3430099.3044395-.9131107.4203873-.0048361 0-.0096722 0-.0193443.004837.0048361.0144501.0048361.0289574.0096722.0434074-.1739225.8310432-.8116693 1.6330681-1.8938951 2.2707863-2.6234388 1.5219002-6.9040689 1.5219002-9.5468225 0-1.1160491-.6425514-1.7634678-1.4590874-1.9373906-2.2997437.0048359-.0192871.0096719-.0337944.014508-.0531387-.0096722 0-.0193443 0-.0241804-.004837-.5652639-.1159477-.8986306-.2609138-.9131095-.4251633z" fill="#111d33"/></g></g></g><g><g><g><path d="m1.5096722 36.2004814c0 1.1353645.7488589 2.2707863 2.2465768 3.1355629 2.9809566 1.720005 7.8123422 1.720005 10.7739849 0 1.4639244-.8551025 2.1983032-1.9711838 2.2031116-3.0920982.0048351-1.1353645-.7440233-2.2803993-2.2465773-3.1500435-2.9857931-1.7151356-7.8123431-1.7151356-10.7691784 0-1.473567.8599739-2.2079176 1.9808884-2.2079176 3.1065788zm.9227817.4831391c.0048361-.0192872.0096721-.0337945.0145082-.0531388.1835656-.8068047.8116693-1.5895462 1.8842227-2.2175903 2.6186032-1.5170631 6.8992333-1.5170631 9.5419865 0 1.096734.6328812 1.7393169 1.4300728 1.9277182 2.256279.0048361.0144501.0048361.0289574.0096722.0434074-.1739225.8310432-.8116693 1.6330681-1.8938951 2.2707863-2.6234388 1.5219002-6.9040689 1.5219002-9.5468225 0-1.1160487-.6425514-1.7634675-1.4590874-1.9373902-2.2997436z" fill="#4c5c75"/></g></g></g><g><g><g><path d="m2.4227817 36.6256447c0 .0193443.0048361.0386887.0096722.0579758.0048361-.0192872.0096721-.0337945.0145082-.0531388.1835656-.8068047.8116693-1.5895462 1.8842227-2.2175903 2.6186032-1.5170631 6.8992333-1.5170631 9.5419865 0 1.096734.6328812 1.7393169 1.4300728 1.9277182 2.256279.0048361.0144501.0048361.0289574.0096722.0434074.0048361-.0144501.0048361-.0337944.0096722-.0482445.2222252-1.1450958-.4251642-2.3384323-1.9470625-3.2129135-2.6427536-1.5170307-6.9233837-1.5170307-9.5419865 0-1.4880751.8648072-2.1306281 2.0436974-1.9084032 3.1742249z" fill="#111d33"/></g></g></g><g><g><g><g><path d="m15.9946442 40.2181282c.0100098.3999634-.2799683.8900146-.6300049 1.0999756-.1799927.1000366-.3499756.1099854-.4599609.0400391l-.7900391-.460022c-.1099854-.0700073-.1900024-.210022-.1900024-.4100342 0-.4099731.2900391-.8999634.6400146-1.0999756.1799927-.0999756.3400269-.1099854.4500122-.039978l.7700195.4499512c.1300049.0600586.209961.2100219.209961.4200439z" fill="#b0b8cf"/></g></g></g></g><g><g><g><g><path d="m15.8128328 39.8086853c-.1171112-.0669136-.2732258-.0557823-.4516659.0445824-.3512993.2063141-.6356878.6970177-.6356878 1.1040993 0 .1951523.0724926.3345528.1840219.4014664l-.7968378-.4622498c-.1115294-.0669098-.1840219-.2063141-.1840219-.4070816 0-.4070473.2843885-.8977509.6356878-1.0984802.1784401-.1059494.3401365-.1115303.4516659-.0446205z" fill="#e3e7f0"/></g></g></g></g><g><g><g><g><path d="m15.3596373 39.8554344c.3524532-.2034912.638195-.0406532.6393433.3643494.0011358.4009018-.2827501.8926125-.6352034 1.0961037-.3524532.2034874-.638195.0406532-.6393318-.3602524-.0011483-.4050026.2827377-.8967133.6351919-1.1002007z" fill="#b0b8cf"/></g></g></g></g><g><g><path d="m26.3601665 46.8491821c-.1158485.2399788-.2812901.4468307-.488142.5957565-.4633446.3557816-1.1004658.4384995-1.6713772.1737251-.0744896-.0413628-.1572094-.0827217-.2234173-.1323624l-8.9111395-6.1972733-.0248461-.0165634c-.0082827-.0082817-.0247965-.0165634-.0330782-.0248451-.0662069-.0578766-.0992851-.1571617-.0992851-.2895737 0-.3309822.2316484-.7281227.512989-.8936119.115798-.0661583.2233648-.0827217.3061361-.0579262.0165138 0 .0247955.0082817.0413599.0165634l.0413609.0165634 9.7799578 4.6583061c.8108426.3805773 1.1501084 1.3486788.7694817 2.1512415z" fill="#bf7d5a"/></g></g><g><g><path d="m26.3601665 46.8491821c-.1158485.2399788-.2812901.4468307-.488142.5957565-.3227005.0661583-.6701965.0247955-.992897-.1241302-.0744896-.0413589-.1572094-.0827217-.2234173-.1323624l-8.91119-6.1973228-.0247955-.0165138c-.0082827-.0082817-.0165644-.0165634-.0330782-.0248451-.0579252-.0579262-.0993357-.1572113-.0993357-.2895737 0-.206852.091053-.4302673.2234163-.6205559l9.7799578 4.6583061c.8108425.3805771 1.1501083 1.3486786.7694816 2.1512413z" fill="#dba660"/></g></g></g><g opacity=".2"><g><g><path d="m15.8132677 36.7132454c-.0242128.1211586-.064599.2423668-.1130724.3554878-.2585421.7028923-.8563995 1.3653984-1.7855339 1.9147797-1.8427019 1.0643158-4.4797029 1.3350029-6.463407 1.0099068-1.9172149-.2399254-4.6243577-1.3478432-5.0171881-3.3124771.5119972-2.5615463 4.4564657-3.4790154 7.093564-3.4013824h.0080867c2.417346.1273497 5.8158083 1.1235656 6.2775507 3.4336852z" fill="#638eff"/></g></g></g></g><g><g><g><path d="m13.1003876 32.0010376-.0028772 1.4397888-3.8566618 2.2415771-.594883-3.1525726.0028763-1.4369106c1.5834779-.0574799 3.1985635.2471428 4.4515457.9081173z" fill="#7e5af2"/></g></g><g><g><path d="m8.7408066 33.0873528-.0028772 2.8192177-5.6298218.8161545c-.0833344-.2356377-.1235721-.4741707-.1235721-.7127037l.0028768-2.8134613v-.0057564c.0028765-.8908768.5862706-1.7817707 1.7587767-2.4599876.9454985-.548893 2.1295109-.8793888 3.3594975-.9857197z" fill="#df3260"/></g></g><g><g><path d="m8.7839031 38.0906677-.0028591 1.4369087c-1.4599056-.0373611-2.8968163-.3793449-4.0118599-1.0230789-.738574-.4253197-1.2472458-.9339943-1.5288746-1.4742737l.0028765-1.439785 5.5206156-.798912z" fill="#febc1f"/></g></g><g><g><path d="m15.0862074 34.6191025-.0028763 1.4282799c-.0028772.8908806-.5891304 1.7788963-1.7587776 2.4599915-1.106431.643734-2.5433416.9828415-3.9974937 1.0202026l.0028763-1.4369087-.0172424-3.3767395.0086298-.0660934 4.1670399-2.4226303c1.0719298.6782187 1.6064566 1.5374869 1.597844 2.3938979z" fill="#5ec363"/></g></g><g><g><path d="m13.1046906 31.9980965-.0100098 1.4400024-3.8500366 2.2399902-.5999756-3.1499634v-1.4400024c1.5899658-.0499878 3.2000122.25 4.460022.9099732z" fill="#7e5af2"/></g></g><g><g><path d="m13.1015587 32.0015907-.0040779 1.4384384-3.8568487 2.2413559.0040779-1.4384384z" fill="#7e5af2"/></g><g><path d="m9.24471 34.2429466-.0040779 1.4384384-.5952616-3.150135.0040779-1.4384403z" fill="#986ff9"/></g><g><path d="m13.1015587 32.0015907-3.8568487 2.2413559-.5952616-3.1501369c1.5830698-.0566864 3.1986656.2462349 4.4521103.908781z" fill="#b28afd"/></g></g><g><g><path d="m8.7446442 33.0881233-.0100098 2.8200073-5.6299438.8099976c-.0800171-.2300415-.1200562-.4700317-.1200562-.710022v-2.8200073c0 .2399902.0400391.4800415.1300049.7200317-.3899536-1.1199951.1500244-2.3200073 1.6300049-3.1799927.9500122-.5500488 2.1300049-.8800049 3.3600464-.9800415z" fill="#df3260"/></g></g><g><g><path d="m8.7406416 33.0872803-.0040779 2.8199119-5.6295514.8159027.0040779-2.8199119z" fill="#df3260"/></g><g><path d="m8.1057901 29.7438602.6348515 3.34342-5.6295514.8159028c-.3912771-1.1113739.1506314-2.3101006 1.6345139-3.1724396.9466228-.5501156 2.1287221-.8790817 3.360186-.9868832z" fill="#f45170"/></g><g><path d="m2.9840569 36.0113945.0040746-2.819912c-.0006728.2384682.0403399.4770317.1229587.7117004l-.0040817 2.819912c-.0826149-.2346687-.1236277-.4732322-.1229516-.7117004z" fill="#cc104a"/></g></g><g><g><path d="m15.084671 34.6081429v1.4399414c0 .8900146-.5900269 1.7800293-1.7600098 2.460022-1.1099854.6400146-2.539978.9799805-4 1.0200195l.0100098-1.4400024-.0200195-3.3699951.0100098-.0700073 4.1599731-2.4199829c1.0700073.6699828 1.6000366 1.5199584 1.6000366 2.3800048z" fill="#5ec363"/></g></g><g><g><path d="m15.0868702 34.607563-.0040789 1.4384422c-.0025253.8908501-.5878811 1.7803383-1.757884 2.4602699-1.1081133.6439629-2.543622.9840851-3.9984655 1.0221863l.004076-1.4384346c1.4548464-.0381088 2.8903542-.3782272 3.9984674-1.0221939 1.170003-.6799316 1.7553587-1.569416 1.757885-2.4602699z" fill="#5ec363"/></g><g><path d="m13.4894428 32.2255363c2.1799002 1.3752747 2.1309614 3.5106697-.1604576 4.8422966-1.1081133.6439667-2.5436211.9840851-3.9984655 1.0221901l-.019001-3.376873.01087-.0659866z" fill="#78e75a"/></g></g><g><path d="m9.3305197 38.090023-.0040779 1.4384385-.019001-3.3768731.0040779-1.4384384z" fill="#b3885e"/></g><g><g><path d="m8.7846832 38.0881233v1.4400024c-1.460022-.0400391-2.9000244-.3800049-4.0200195-1.0200195-.7299805-.4299927-1.2399902-.9400024-1.5200195-1.4799805v-1.4400024l5.5200195-.7999878z" fill="#febc1f"/></g></g><g><g><path d="m8.7850895 38.0900154-.0040798 1.438446c-1.4584827-.0380974-2.8962278-.3791122-4.0116014-1.0230751-.7387528-.4265175-1.2485518-.9357491-1.5291388-1.4756317l.0040758-1.4384384c.2805891.5398827.7903881 1.0491104 1.5291414 1.4756317 1.115373.6439591 2.5531181.9849778 4.0116028 1.0230675z" fill="#febc1f"/></g><g><path d="m8.7649117 34.7921333.0201778 3.2978821c-1.4584846-.0380898-2.8962297-.3791084-4.0116029-1.0230675-.7387533-.4265213-1.2485523-.9357491-1.5291393-1.4756355z" fill="#ffd06c"/></g></g></g></g><g><g><path d="m41.608963 31.1610718c.144104.0831985.1279984.2202358-.0151978.3034534l-2.5604095 1.4879475c-.1431961.0832176-.3628731.0831985-.5069771.0000038l-.8562279-.4943428c-.1441307-.0832176-.1533585-.2153587-.0101624-.2985764l2.5604134-1.4879456c.1431923-.0832176.3882027-.0880966.5323334-.0048828z" fill="#4c5c75"/></g></g><g><g><path d="m11.3629503 16.9553089c.5157776.2977848 1.3494568.2976379 1.8621292-.0002937.5126696-.2979317.5101986-.7808304-.005579-1.0786133-.5162697-.298068-1.3499537-.297924-1.8626232.0000067-.5126714.2979326-.5101967.7808332.006073 1.0789003" fill="#4c5c75"/></g></g></g></svg>