<svg id="Layer_34" viewBox="0 0 512 512" xmlns="http://www.w3.org/2000/svg" xmlns:xlink="http://www.w3.org/1999/xlink" data-name="Layer 34"><linearGradient id="linear-gradient" gradientUnits="userSpaceOnUse" x1="370.64" x2="113.04" y1="347.24" y2="89.64"><stop offset="0" stop-color="#13b601"/><stop offset=".48" stop-color="#13b601"/><stop offset="1" stop-color="#cbf4b4"/></linearGradient><linearGradient id="linear-gradient-2" gradientUnits="userSpaceOnUse" x1="289.49" x2="222.95" y1="285.38" y2="218.85"><stop offset="0" stop-color="#cbf4b4"/><stop offset=".57" stop-color="#fff"/><stop offset="1" stop-color="#fff"/></linearGradient><path d="m496.53 129.86c-13.43-49.48-64.89-100.93-114.37-114.37-30.34-7.57-70.98-15.36-126.15-15.49-55.17.14-95.81 7.92-126.15 15.49-49.47 13.44-100.93 64.89-114.37 114.37-7.56 30.33-15.35 70.98-15.49 126.14.14 55.17 7.92 95.81 15.49 126.15 13.44 49.48 64.89 100.93 114.37 114.37 30.34 7.57 70.98 15.35 126.15 15.49 55.16-.14 95.81-7.92 126.15-15.49 49.48-13.44 100.93-64.89 114.37-114.37 7.57-30.33 15.35-70.98 15.49-126.15-.14-55.17-7.92-95.81-15.49-126.15z" fill="#e5f4d9"/><g><path d="m403.76 227.12v-.22c-.78-31.23-3.98-59.36-9.02-79.26l-.21-1.04-.36-1.14c-3.85-12.25-15.42-16.73-20.36-18.65-32.34-12.53-70.42-26.99-107.7-39.24-3.78-1.25-7.48-1.54-9.35-1.61l-.76-.03-.76.03c-1.87.07-5.56.36-9.32 1.6-37.3 12.26-75.39 26.72-107.74 39.25-4.94 1.91-16.49 6.4-20.35 18.64l-.36 1.14-.19.97-.03.12c-5.04 19.85-8.23 47.99-9.01 79.22v.22c-.63 42.88 3.46 63.76 6.01 72.51l.35 1.24c4.08 13.11 11.58 26.59 22.29 40.06 11.43 14.36 26.6 28.98 45.07 43.42 30.77 24.15 59.23 38.15 59.51 38.28l.46.22s.01 0 .02.01l.06.03c4.42 2.11 9.12 3.18 13.97 3.18h.01c4.88 0 9.61-1.08 14.05-3.22l.45-.22s.1-.05.25-.12c2.86-1.43 30.02-15.21 59.23-38.13 18.5-14.47 33.68-29.09 45.11-43.46 10.71-13.47 18.21-26.94 22.29-40.05l.24-.76.11-.48c2.54-8.7 6.64-29.59 6.02-72.51z" fill="url(#linear-gradient)"/><path d="m272.22 265.17v30.94c0 8.72-7.06 15.78-15.78 15.78s-15.78-7.06-15.78-15.78v-30.51c-11.38-5.65-19.2-17.38-19.2-30.95 0-19.08 15.47-34.55 34.55-34.55s34.55 15.47 34.55 34.55c0 13.22-7.43 24.7-18.34 30.51z" fill="url(#linear-gradient-2)"/></g></svg>