<svg id="Capa_1" enable-background="new 0 0 512 512" height="512" viewBox="0 0 512 512" width="512" xmlns="http://www.w3.org/2000/svg"><g><path d="m130.13 288.735 25.634 52.463-25.634 92.647-97.11-89.41c1.3-2.27 3.19-4.2 5.48-5.5 0-.01.01-.01.01-.01l83.6-48.21c2.48-1.43 5.26-2.09 8.02-1.98z" fill="#f69"/><path d="m226.72 344.735-96.59 89.11v-145.11c2.41.07 4.81.74 6.97 1.98l84.12 48.52h.01c2.29 1.3 4.18 3.23 5.49 5.5z" fill="#f37"/><g><path d="m432 60.005h-111c-8.284 0-15-6.716-15-15s6.716-15 15-15h111c8.284 0 15 6.716 15 15s-6.716 15-15 15z" fill="#25497e"/></g><g><path d="m191 60.005h-111c-8.284 0-15-6.716-15-15s6.716-15 15-15h111c8.284 0 15 6.716 15 15s-6.716 15-15 15z" fill="#4d69ad"/></g><path d="m256 .005 40 53.187-40 57.763-15 6.19-64.69-39.1c-.2-.99-.31-2-.31-3v-60.04c0-8.28 6.72-15 15-15h65z" fill="#9cf"/><g><path d="m436 464.005h-222.269c-8.284 0-15-6.716-15-15s6.716-15 15-15h222.269c8.271 0 15-6.729 15-15s-6.729-15-15-15h-132c-24.813 0-45-20.187-45-45s20.187-45 45-45h132c8.271 0 15-6.729 15-15s-6.729-15-15-15h-150c-12.648.038-24.401-5.072-33.024-14.513-8.665-9.485-13.006-22.253-11.976-35.144v-51.344c0-8.284 6.716-15 15-15s15 6.716 15 15v52c0 .484-.023.967-.07 1.448-.458 4.719 1.071 9.386 4.194 12.805 1.996 2.184 5.52 4.75 10.779 4.747h150.096c24.813 0 45 20.187 45 45s-20.187 45-45 45h-131.999c-8.271 0-15 6.729-15 15s6.729 15 15 15h132c24.813 0 45 20.187 45 45s-20.187 45.001-45 45.001z" fill="#f37"/></g><path d="m130.13 400.435 36.301 37.958-36.301 73.602c-2.61 0-5.23-.67-7.49-2h-.02l-84.11-48.51c-4.65-2.68-7.51-7.63-7.51-12.99v-96.57c-.01-2.63.71-5.23 2.02-7.49z" fill="#f37"/><path d="m228.73 352.225v96.56c0 5.36-2.86 10.32-7.5 12.99l-83.61 48.22c-2.26 1.33-4.88 2-7.49 2v-111.56l96.59-55.7c1.3 2.26 2.03 4.86 2.01 7.49z" fill="#cc295f"/><g><circle cx="45" cy="45.005" fill="#ffbe44" r="45"/></g><g><circle cx="467" cy="45.005" fill="#ff9200" r="45"/></g><path d="m336 15.005v60.04c0 1-.11 2.01-.31 3l-79.69 32.91v-110.95h65c8.28 0 15 6.72 15 15z" fill="#66b3ff"/><path d="m256 78.045 30 36.78-30 67.18h-25c-5.97 0-11.38-3.54-13.76-9.02l-40-92c-.4-.94-.71-1.93-.93-2.94z" fill="#66b3ff"/><path d="m335.69 78.045c-.22 1.01-.53 2-.93 2.94l-40 92c-2.38 5.48-7.79 9.02-13.76 9.02h-25v-103.96z" fill="#39f"/></g></svg>