<svg id="Capa_1" enable-background="new 0 0 512 512" viewBox="0 0 512 512" xmlns="http://www.w3.org/2000/svg"><g><g><g><path d="m262.934 347.973-38.252 72.826-31.753 18.332-12.226-85.12z" fill="#feb237"/></g></g><g><g><path d="m326.04 380.107-37.852 77.358-31.753 18.332-12.226-85.12z" fill="#feb237"/></g></g><g><g><path d="m178.735 206.719-81.331-5.786-31.753 18.332 67.604 53.148z" fill="#fff0ad"/></g></g><g><g><path d="m174.417 137.015-77.014-9.413-31.753 18.332 67.604 53.148z" fill="#fff0ad"/></g></g><g><g><path d="m351.694 420.339v73.329l-31.753 18.332-12.226-85.12z" fill="#feb237"/></g></g><g><g><path d="m288.188 420.339v73.329l31.753 18.332v-73.328l-9.634-18.367z" fill="#ffd15b"/></g></g><g><g><path d="m288.188 420.339 31.753-18.333 31.753 18.333-31.753 18.333z" fill="#60b7ff"/></g></g><g><g><path d="m224.682 384.136v73.329l31.753 18.332v-73.328l-9.634-18.367z" fill="#ffd15b"/></g></g><g><g><path d="m224.682 384.136 31.753-18.332 31.753 18.332-31.753 18.333z" fill="#60b7ff"/></g></g><g><g><path d="m161.176 347.47v73.329l31.753 18.332v-73.328l-9.634-18.367z" fill="#ffd15b"/></g></g><g><g><path d="m161.176 347.47 31.753-18.332 31.753 18.332-31.753 18.333z" fill="#60b7ff"/></g></g><g><g><path d="m161.308 91.167-63.504-36.664-31.753 18.332 67.603 53.148z" fill="#fff0ad"/></g></g><g><g><path d="m129.555 146.165-63.504-36.665v-36.665l63.504 36.664 11.089 17.527z" fill="#ffd15b"/></g></g><g><g><path d="m129.555 146.165 31.753-18.333v-36.665l-31.753 18.332z" fill="#60b7ff"/></g></g><g><g><path d="m129.155 219.264-63.505-36.664v-36.666l63.505 36.665 11.089 17.527z" fill="#ffd15b"/></g></g><g><g><path d="m129.155 219.264 31.753-18.333-.001-36.665-31.752 18.333z" fill="#60b7ff"/></g></g><g><g><path d="m129.155 292.595-63.504-36.665v-36.665l63.504 36.664 11.09 17.527z" fill="#ffd15b"/></g></g><g><g><path d="m129.155 292.595 31.753-18.333v-36.665l-31.753 18.332z" fill="#60b7ff"/></g></g><g><path d="m299.595 188.521 98.505-14.117v256.656l-63.505 36.665z" fill="#008b81"/></g><g><g><path d="m445.95 402.971-31.754-18.333-12.132-29.096-19.618 10.764-31.753 18.333 67.603 53.148z" fill="#fff0ad"/></g></g><g><path d="m112.324 82.741 222.27 96.334v288.65l-63.474-36.719-158.682-274.935z" fill="#0ab69f"/></g><g><path d="m175.83 46.076 222.27 128.328-63.506 36.665-222.27-128.328z" fill="#5de1c4"/></g><g><g><path d="m351.694 91.201v73.329l-31.753 18.332-12.226-85.12z" fill="#feb237"/></g></g><g><g><path d="m288.188 91.201-15.442 18.333 15.442 18.793v36.203l31.753 18.332v-73.328l-9.634-18.367z" fill="#ffd15b"/></g></g><g><g><path d="m288.188 91.201 31.753-18.332 31.753 18.332-31.753 18.333z" fill="#fff0ad"/></g></g><g><g><path d="m288.188 54.999v73.328l-31.753 18.333-12.226-85.121z" fill="#feb237"/></g></g><g><g><path d="m224.682 54.999-16.595 18.332 16.595 18.33v36.666l31.753 18.333v-73.329l-9.634-18.367z" fill="#ffd15b"/></g></g><g><g><path d="m224.682 54.999 31.753-18.333 31.753 18.333-31.753 18.332z" fill="#fff0ad"/></g></g><g><g><path d="m224.682 18.333v73.328l-31.753 18.333-12.226-85.121z" fill="#feb237"/></g></g><g><g><path d="m161.176 18.333v73.328l31.753 18.333v-73.329l-9.634-18.367z" fill="#ffd15b"/></g></g><g><g><path d="m161.176 18.333 31.753-18.333 31.753 18.333-31.753 18.332z" fill="#fff0ad"/></g></g><g><g><path d="m445.949 329.64-31.352-18.101-6.604-27.499-25.548 8.936-31.753 18.332 67.604 53.148z" fill="#fff0ad"/></g></g><g><g><path d="m414.196 384.638-63.504-36.664v-36.666l63.504 36.665 11.09 17.526z" fill="#ffd15b"/></g></g><g><g><path d="m414.196 384.638 31.753-18.333v-36.665l-31.753 18.333z" fill="#feb237"/></g></g><g><g><path d="m414.197 457.969-63.504-36.665v-36.665l63.504 36.664 11.089 17.527z" fill="#ffd15b"/></g></g><g><g><path d="m414.197 457.969 31.753-18.333v-36.665l-31.753 18.332z" fill="#feb237"/></g></g><g><g><path d="m446.35 256.541-63.505-36.664-31.752 18.332 67.603 53.148z" fill="#fff0ad"/></g></g><g><g><path d="m414.597 311.539-63.505-36.665.001-36.665 63.504 36.664 11.089 17.527z" fill="#ffd15b"/></g></g><g><g><path d="m414.597 311.539 31.753-18.333v-36.665l-31.753 18.332z" fill="#feb237"/></g></g><g><path d="m271.089 211.069 31.753 54.998-43.456 45.471-43.456-88.536z" fill="#fd9468"/></g><g><g><path d="m161.176 18.333 31.753-18.333 31.753 18.333-31.753 18.332z" fill="#fff0ad"/></g></g><g><path d="m302.842 266.067v146.661l-31.753 18.332-14.59-138.237z" fill="#fd5426"/></g><g><path d="m144.077 137.739 127.012 73.33-31.754 18.332-58.632-6.831-68.379-66.499z" fill="#fead8a"/></g><g><path d="m112.324 156.071 127.011 73.33 31.754 54.998v146.661l-158.765-91.663z" fill="#fe7d43"/></g><g fill="#fff0ad"><path d="m174.193 237.635c-.977-3.289-3.759-5.726-6.765-5.926-2.514-.17-4.802 1.217-5.838 3.526-.023.05-.044.1-.065.151l-27.422 66.791c-1.07 2.605.175 5.584 2.781 6.654 2.606 1.069 5.584-.176 6.654-2.781l4.614-11.239 37.202 21.479 6.211 22.471c.624 2.26 2.676 3.742 4.912 3.742.45 0 .907-.06 1.361-.186 2.714-.75 4.307-3.559 3.556-6.273zm-22.134 47.657 14.778-35.993 14.643 52.979z"/><path d="m226.237 265.681c-2.816 0-5.099 2.283-5.099 5.099v83.804c0 2.816 2.283 5.099 5.099 5.099s5.099-2.283 5.099-5.099v-83.804c0-2.816-2.283-5.099-5.099-5.099z"/></g></g><g/><g/><g/><g/><g/><g/><g/><g/><g/><g/><g/><g/><g/><g/><g/></svg>