<svg id="Layer_1" enable-background="new 0 0 512 512" height="512" viewBox="0 0 512 512" width="512" xmlns="http://www.w3.org/2000/svg"><path d="m459.234 478.755v-162.3c0-13.404-39.74-24.255-88.777-24.255s-88.777 10.851-88.777 24.255v162.3c0 13.404 39.74 24.255 88.777 24.255s88.777-10.851 88.777-24.255z" fill="#f9d266"/><path d="m370.457 394.82c-49.037 0-88.777-10.88-88.777-24.255v54.081c0 13.404 39.74 24.255 88.777 24.255 49.036 0 88.777-10.851 88.777-24.255v-54.081c0 13.375-39.741 24.255-88.777 24.255z" fill="#f4a93c"/><path d="m230.32 478.755v-162.3c0-13.404-39.74-24.255-88.777-24.255s-88.777 10.851-88.777 24.255v162.3c0 13.404 39.74 24.255 88.777 24.255s88.777-10.851 88.777-24.255z" fill="#f9d266"/><path d="m346.316 92.241c-1.365 0-2.731.058-4.067.145-7.698-22.021-28.701-37.804-53.365-37.804-9.877 0-19.144 2.524-27.22 6.963-8.802-19.787-28.614-33.597-51.68-33.597-31.229 0-56.531 25.271-56.531 56.46 0 3.075.232 6.064.726 9.023-25.709 5.31-45.028 28.027-45.028 55.27 0 31.16 25.303 56.46 56.531 56.46h12.491l16.181 3.424 6.391 15.406-9.005 13.868 18.447 18.423 13.886-8.994 15.426 6.383 3.457 16.16h26.087l3.457-16.16 15.426-6.383 13.886 8.994 18.447-18.423-9.006-13.868 6.391-15.406 16.181-3.424h12.492c31.229 0 56.531-25.299 56.531-56.46 0-31.189-25.303-56.46-56.532-56.46z" fill="#c0dafc"/><path d="m370.457 340.71c-49.037 0-88.777-10.88-88.777-24.255v54.11c0 13.375 39.74 24.255 88.777 24.255 49.036 0 88.777-10.88 88.777-24.255v-54.11c0 13.375-39.741 24.255-88.777 24.255z" fill="#f6b940"/><path d="m370.457 503.01c49.036 0 88.777-10.851 88.777-24.255v-54.11c0 13.404-39.74 24.255-88.777 24.255s-88.777-10.851-88.777-24.255v54.11c0 13.404 39.74 24.255 88.777 24.255z" fill="#d5883e"/><path d="m141.543 394.82c-49.037 0-88.777-10.88-88.777-24.255v54.081c0 13.404 39.74 24.255 88.777 24.255 49.036 0 88.777-10.851 88.777-24.255v-54.081c0 13.375-39.741 24.255-88.777 24.255z" fill="#f4a93c"/><path d="m141.543 340.71c-49.037 0-88.777-10.88-88.777-24.255v54.11c0 13.375 39.74 24.255 88.777 24.255 49.036 0 88.777-10.88 88.777-24.255v-54.11c0 13.375-39.741 24.255-88.777 24.255z" fill="#f6b940"/><path d="m141.543 503.01c49.036 0 88.777-10.851 88.777-24.255v-54.11c0 13.404-39.74 24.255-88.777 24.255s-88.777-10.851-88.777-24.255v54.11c0 13.404 39.74 24.255 88.777 24.255z" fill="#d5883e"/><g fill="#e2e7f6"><path d="m320.914 36.017c-7.065-3.409-15.064-3.924-22.522-1.453-3.146 1.042-4.851 4.437-3.809 7.583s4.438 4.847 7.583 3.809c4.485-1.487 9.292-1.178 13.515.859 3.312 1.613 6.031 4.143 7.862 7.315 1.111 1.926 3.128 3.002 5.202 3.002 1.018 0 2.049-.259 2.994-.804 2.87-1.656 3.854-5.326 2.198-8.196-3.034-5.254-7.53-9.44-13.023-12.115z"/><path d="m354.814 36.212c-5.413-9.493-13.519-17.041-23.446-21.828-12.748-6.134-27.138-7.071-40.518-2.639-3.146 1.042-4.851 4.437-3.809 7.583s4.438 4.85 7.583 3.809c10.411-3.449 21.612-2.717 31.536 2.058 7.722 3.724 14.026 9.589 18.229 16.961 1.107 1.941 3.133 3.029 5.218 3.029 1.007 0 2.029-.254 2.967-.789 2.879-1.641 3.882-5.305 2.24-8.184z"/></g><g fill="#f0ae42"><path d="m14 247.327c3.313 0 6-2.687 6-6v-12.938c0-3.313-2.687-6-6-6s-6 2.687-6 6v12.938c0 3.314 2.687 6 6 6z"/><path d="m14 285.208c3.313 0 6-2.687 6-6v-12.938c0-3.313-2.687-6-6-6s-6 2.687-6 6v12.938c0 3.313 2.687 6 6 6z"/><path d="m28.287 388.18h-8.287v-8.269c0-3.313-2.687-6-6-6s-6 2.687-6 6v14.269c0 3.313 2.687 6 6 6h14.287c3.313 0 6-2.687 6-6s-2.687-6-6-6z"/><path d="m14 323.06c3.313 0 6-2.687 6-6v-12.91c0-3.313-2.687-6-6-6s-6 2.687-6 6v12.91c0 3.313 2.687 6 6 6z"/><path d="m14 359.383c3.313 0 6-2.687 6-6v-11.353c0-3.313-2.687-6-6-6s-6 2.687-6 6v11.353c0 3.314 2.687 6 6 6z"/><path d="m28.287 145.297h-14.287c-3.313 0-6 2.687-6 6v14.269c0 3.313 2.687 6 6 6s6-2.687 6-6v-8.269h8.287c3.313 0 6-2.687 6-6s-2.687-6-6-6z"/><path d="m14 209.447c3.313 0 6-2.687 6-6v-12.91c0-3.313-2.687-6-6-6s-6 2.687-6 6v12.91c0 3.313 2.687 6 6 6z"/><path d="m66.215 145.297h-12.926c-3.313 0-6 2.687-6 6s2.687 6 6 6h12.926c3.313 0 6-2.687 6-6s-2.686-6-6-6z"/><path d="m498 222.389c-3.313 0-6 2.687-6 6v12.938c0 3.313 2.687 6 6 6s6-2.687 6-6v-12.938c0-3.313-2.687-6-6-6z"/><path d="m498 260.269c-3.313 0-6 2.687-6 6v12.938c0 3.313 2.687 6 6 6s6-2.687 6-6v-12.938c0-3.313-2.687-6-6-6z"/><path d="m498 373.911c-3.313 0-6 2.687-6 6v8.269h-8.287c-3.313 0-6 2.687-6 6s2.687 6 6 6h14.287c3.313 0 6-2.687 6-6v-14.269c0-3.313-2.687-6-6-6z"/><path d="m498 298.15c-3.313 0-6 2.687-6 6v12.91c0 3.313 2.687 6 6 6s6-2.687 6-6v-12.91c0-3.314-2.687-6-6-6z"/><path d="m498 336.031c-3.313 0-6 2.687-6 6v11.353c0 3.313 2.687 6 6 6s6-2.687 6-6v-11.353c0-3.314-2.687-6-6-6z"/><path d="m498 145.297h-14.287c-3.313 0-6 2.687-6 6s2.687 6 6 6h8.287v8.269c0 3.313 2.687 6 6 6s6-2.687 6-6v-14.269c0-3.313-2.687-6-6-6z"/><path d="m498 184.537c-3.313 0-6 2.687-6 6v12.91c0 3.313 2.687 6 6 6s6-2.687 6-6v-12.91c0-3.313-2.687-6-6-6z"/><path d="m458.71 145.297h-12.926c-3.313 0-6 2.687-6 6s2.687 6 6 6h12.926c3.313 0 6-2.687 6-6s-2.686-6-6-6z"/></g><path d="m317.644 208.584-6.391 15.406 9.005 13.869-18.446 18.423-13.886-8.994-15.426 6.383-3.457 16.16h-26.087l-3.457-16.16-15.425-6.383-13.886 8.994-18.447-18.423 9.006-13.869-6.391-15.406-16.181-3.423v-26.083l16.181-3.453 6.391-15.406-9.006-13.868 18.447-18.423 13.886 8.994 15.425-6.383 3.457-16.161h26.087l3.457 16.161 15.426 6.383 13.886-8.994 18.446 18.423-9.005 13.868 6.391 15.406 16.181 3.453v26.083z" fill="#474747"/><g fill="#a8cdf4"><path d="m163.292 190.22h-12.491c-11.856 0-22.853-3.653-31.94-9.882 10.165 14.974 27.339 24.823 46.823 24.823h12.491v-14.941z"/><path d="m378.263 102.121c6.124 9.025 9.702 19.913 9.702 31.639 0 30.36-24.022 55.146-54.14 56.399v15.001h12.492c31.229 0 56.531-25.299 56.531-56.46 0-19.344-9.74-36.406-24.585-46.579z"/></g><g><path d="m256 231.441c-21.713 0-39.378-17.646-39.378-39.336s17.665-39.336 39.378-39.336 39.378 17.646 39.378 39.336-17.665 39.336-39.378 39.336zm0-66.673c-15.097 0-27.378 12.263-27.378 27.336s12.282 27.336 27.378 27.336 27.378-12.263 27.378-27.336-12.281-27.336-27.378-27.336z" fill="#3d3d3d"/></g><ellipse cx="256" cy="192.105" fill="#c0dafc" rx="27.365" ry="27.336"/><path d="m256 164.768c-1.187 0-2.353.084-3.5.231 13.441 1.723 23.865 13.217 23.865 27.105s-10.424 25.382-23.865 27.105c1.147.147 2.313.231 3.5.231 15.089 0 27.365-12.263 27.365-27.336 0-15.072-12.276-27.336-27.365-27.336z" fill="#a8cdf4"/></svg>