<svg id="Icons" height="512" viewBox="0 0 60 60" width="512" xmlns="http://www.w3.org/2000/svg"><path d="m50.73 44 7.16 2.45a1.637 1.637 0 0 1 0 3.1l-27.35 9.36a1.665 1.665 0 0 1 -1.08 0l-27.35-9.36a1.637 1.637 0 0 1 0-3.1l7.16-2.45z" fill="#ff4d4d"/><path d="m50.73 36 7.16 2.45a1.637 1.637 0 0 1 0 3.1l-27.35 9.36a1.665 1.665 0 0 1 -1.08 0l-27.35-9.36a1.637 1.637 0 0 1 0-3.1l7.16-2.45z" fill="#f49e21"/><path d="m44 25.7 13.89 4.75a1.637 1.637 0 0 1 0 3.1l-27.35 9.36a1.665 1.665 0 0 1 -1.08 0l-27.35-9.36a1.637 1.637 0 0 1 0-3.1l13.89-4.75z" fill="#f7bb26"/><path d="m44 5v24c0 2.209-6.268 4-14 4s-14-1.791-14-4v-24z" fill="#2a2a49"/><g fill="#447"><ellipse cx="30" cy="5" rx="14" ry="4"/><path d="m16 21c0 2.209 6.268 4 14 4s14-1.791 14-4v-8c0 2.209-6.268 4-14 4s-14-1.791-14-4z"/></g></svg>