<svg enable-background="new 0 0 512 512" viewBox="0 0 512 512" xmlns="http://www.w3.org/2000/svg"><g id="_x32_8_Rendering"><g><path d="m436.031 75.209v308.211c0 13.657-11.071 24.728-24.728 24.728h-373.249c-13.657 0-24.728-11.071-24.728-24.728v-308.211c0-13.657 11.071-24.728 24.728-24.728h373.25c13.656 0 24.727 11.071 24.727 24.728z" fill="#fff"/><path d="m436.025 75.205v59.277h-195.282l-8.66-14.376h-94.047l-8.66 14.376h-116.044v-59.277c0-13.639 11.085-24.724 24.724-24.724h373.244c13.64 0 24.725 11.085 24.725 24.724z" fill="#f82f42"/><path d="m315.027 220.192v99.087l-90.349 40.885v-98.606z" fill="#26b8f4"/><path d="m315.027 220.192-90.349-40.95-90.349 40.95 90.349 41.366z" fill="#fff"/><path d="m134.329 220.192v99.087l90.349 40.885v-98.606z" fill="#26b8f4"/><path d="m240.714 183.601c0 8.4-7.171 15.196-16.035 15.196s-16.035-6.796-16.035-15.196 7.171-15.195 16.035-15.195c8.863-.001 16.035 6.795 16.035 15.195z" fill="#fff"/><path d="m240.714 261.558c0 8.4-7.171 15.196-16.035 15.196s-16.035-6.796-16.035-15.196 7.171-15.195 16.035-15.195c8.863 0 16.035 6.795 16.035 15.195z" fill="#fff"/><path d="m240.714 360.164c0 8.4-7.171 15.196-16.035 15.196s-16.035-6.796-16.035-15.196 7.171-15.195 16.035-15.195c8.863-.001 16.035 6.795 16.035 15.195z" fill="#fff"/><path d="m331.063 321.035c0 8.4-7.171 15.196-16.035 15.196s-16.035-6.796-16.035-15.196 7.171-15.195 16.035-15.195c8.863 0 16.035 6.795 16.035 15.195z" fill="#fff"/><path d="m331.063 220.192c0 8.4-7.171 15.196-16.035 15.196s-16.035-6.796-16.035-15.196 7.171-15.195 16.035-15.195c8.863 0 16.035 6.795 16.035 15.195z" fill="#fff"/><path d="m150.365 220.192c0 8.4-7.171 15.196-16.035 15.196s-16.035-6.796-16.035-15.196 7.171-15.195 16.035-15.195c8.863 0 16.035 6.795 16.035 15.195z" fill="#fff"/><path d="m150.365 321.035c0 8.4-7.171 15.196-16.035 15.196s-16.035-6.796-16.035-15.196 7.171-15.195 16.035-15.195c8.863 0 16.035 6.795 16.035 15.195z" fill="#fff"/><path d="m498.677 389.282c0 39.886-32.348 72.235-72.234 72.235-39.925 0-72.274-32.348-72.274-72.235 0-39.925 32.348-72.274 72.274-72.274 39.885.001 72.234 32.349 72.234 72.274z" fill="#fc3"/><g fill="#451f78"><path d="m70.486 85.201h-22.86c-4.019 0-7.28 3.261-7.28 7.28s3.261 7.28 7.28 7.28h22.86c4.019 0 7.28-3.261 7.28-7.28s-3.261-7.28-7.28-7.28z"/><path d="m126.083 85.201h-22.86c-4.019 0-7.28 3.261-7.28 7.28s3.261 7.28 7.28 7.28h22.86c4.019 0 7.28-3.261 7.28-7.28s-3.26-7.28-7.28-7.28z"/><path d="m181.681 85.201h-22.86c-4.019 0-7.28 3.261-7.28 7.28s3.261 7.28 7.28 7.28h22.86c4.019 0 7.28-3.261 7.28-7.28s-3.261-7.28-7.28-7.28z"/><path d="m399.913 73.555h-113.792c-4.019 0-7.28 3.261-7.28 7.28s3.261 7.28 7.28 7.28h113.792c4.019 0 7.28-3.261 7.28-7.28s-3.261-7.28-7.28-7.28z"/><path d="m399.913 96.851h-71.186c-4.019 0-7.28 3.261-7.28 7.28s3.261 7.28 7.28 7.28h71.186c4.019 0 7.28-3.261 7.28-7.28s-3.261-7.28-7.28-7.28z"/><path d="m338.344 220.194c0-12.394-10.461-22.476-23.315-22.476-6.575 0-12.497 2.66-16.739 6.895l-50.492-22.885c-1.007-11.505-10.93-20.601-23.118-20.601-12.189 0-22.111 9.096-23.118 20.601l-50.492 22.885c-4.243-4.236-10.165-6.896-16.739-6.896-12.854 0-23.315 10.081-23.315 22.476 0 9.929 6.757 18.275 16.035 21.242v58.358c-9.278 2.967-16.035 11.314-16.035 21.242 0 12.394 10.461 22.476 23.315 22.476 7.192 0 13.555-3.223 17.835-8.175l49.456 22.38c-.093.814-.257 1.608-.257 2.446 0 12.394 10.461 22.476 23.315 22.476s23.315-10.081 23.315-22.476c0-.838-.164-1.632-.257-2.446l49.456-22.379c4.281 4.952 10.643 8.175 17.835 8.175 12.854 0 23.315-10.081 23.315-22.476 0-9.929-6.757-18.275-16.035-21.242v-58.358c9.278-2.967 16.035-11.314 16.035-21.242zm-23.315-7.916c4.825 0 8.754 3.55 8.754 7.915s-3.929 7.915-8.754 7.915-8.754-3.55-8.754-7.915 3.929-7.915 8.754-7.915zm-90.349-36.591c4.825 0 8.754 3.55 8.754 7.915s-3.929 7.915-8.754 7.915-8.754-3.55-8.754-7.915c-.001-4.365 3.929-7.915 8.754-7.915zm-19.402 20.341c4.183 6.05 11.312 10.051 19.402 10.051s15.219-4 19.402-10.051l47.89 21.707c-.094.818-.258 1.617-.258 2.458 0 .871.166 1.698.267 2.544l-50.618 23.174c-4.239-4.199-10.14-6.83-16.683-6.83s-12.444 2.631-16.683 6.83l-50.618-23.174c.1-.846.267-1.673.267-2.544 0-.842-.164-1.64-.258-2.458zm19.402 73.445c-4.825 0-8.754-3.55-8.754-7.915s3.929-7.915 8.754-7.915 8.754 3.55 8.754 7.915-3.929 7.915-8.754 7.915zm-90.349-57.195c4.825 0 8.754 3.55 8.754 7.915s-3.929 7.915-8.754 7.915-8.754-3.55-8.754-7.915 3.928-7.915 8.754-7.915zm0 116.674c-4.825 0-8.754-3.55-8.754-7.915s3.929-7.915 8.754-7.915 8.754 3.55 8.754 7.915-3.929 7.915-8.754 7.915zm23.234-7.151c.009-.259.08-.502.08-.764 0-9.929-6.757-18.275-16.035-21.242v-58.358c3.591-1.148 6.821-3.038 9.402-5.596l21.851 10.003 28.768 13.171c-.1.845-.267 1.673-.267 2.544 0 9.929 6.757 18.275 16.035 21.242v56.121c-3.624 1.159-6.874 3.08-9.468 5.672zm67.115 46.278c-4.825 0-8.754-3.55-8.754-7.915s3.929-7.915 8.754-7.915 8.754 3.55 8.754 7.915-3.929 7.915-8.754 7.915zm16.748-23.486c-2.594-2.593-5.844-4.513-9.468-5.672v-56.121c9.278-2.967 16.035-11.314 16.035-21.242 0-.871-.166-1.699-.267-2.544l26.232-12.009 24.386-11.164c2.582 2.558 5.812 4.448 9.402 5.596v58.358c-9.278 2.967-16.035 11.314-16.035 21.242 0 .262.071.505.08.764zm73.601-15.641c-4.825 0-8.754-3.55-8.754-7.915s3.929-7.915 8.754-7.915 8.754 3.55 8.754 7.915-3.929 7.915-8.754 7.915z"/><path d="m443.296 311.566v-57.507c0-4.019-3.261-7.28-7.28-7.28s-7.28 3.261-7.28 7.28v55.785c-.769-.022-1.52-.116-2.294-.116-43.866 0-79.552 35.69-79.552 79.557 0 3.948.385 7.798.944 11.593h-309.806c-9.607 0-17.423-7.84-17.423-17.475v-241.638h108.773c2.555 0 4.92-1.337 6.238-3.522l6.536-10.854h85.818l6.536 10.854c1.318 2.185 3.683 3.522 6.238 3.522h187.993v74.969c0 4.019 3.261 7.28 7.28 7.28s7.28-3.261 7.28-7.28c.001-14.408-.003 45.968.009-141.529 0-17.646-14.357-32.003-32.003-32.003h-373.246c-17.61 0-32.012 14.328-32.012 32.003v308.198c0 17.665 14.347 32.036 31.984 32.036h313.374c10.856 31.015 40.35 53.36 75.039 53.36 43.843 0 79.514-35.671 79.514-79.514 0-38.078-26.892-69.958-62.66-77.719zm-198.439-184.362-6.536-10.854c-1.318-2.185-3.683-3.522-6.238-3.522h-94.046c-2.555 0-4.92 1.337-6.238 3.522l-6.536 10.854h-104.649v-52c0-9.601 7.798-17.423 17.414-17.423h373.284c9.607 0 17.423 7.816 17.423 17.423v52zm181.585 327.034c-35.837 0-64.992-29.14-64.992-64.954 0-35.837 29.154-64.996 64.992-64.996 35.814 0 64.954 29.159 64.954 64.996-.001 35.814-29.141 64.954-64.954 64.954z"/><path d="m449.804 362.998-34.188 38.648-12.139-16.67c-2.375-3.256-6.93-3.958-10.172-1.602-3.251 2.37-3.967 6.925-1.602 10.172l17.475 23.993c1.299 1.787 3.337 2.882 5.541 2.986.118.005.232.009.346.009 2.081 0 4.067-.891 5.451-2.455l40.188-45.431c2.668-3.014 2.384-7.612-.626-10.276-3.027-2.673-7.62-2.384-10.274.626z"/></g></g></g><g id="Layer_1"/></svg>