<svg id="Layer_1" enable-background="new 0 0 64 64" viewBox="0 0 64 64" xmlns="http://www.w3.org/2000/svg" xmlns:xlink="http://www.w3.org/1999/xlink"><linearGradient id="lg1"><stop offset="0" stop-color="#6ba6d6"/><stop offset="1" stop-color="#005c98"/></linearGradient><linearGradient id="SVGID_1_" gradientUnits="userSpaceOnUse" x1="49.047" x2="48.379" xlink:href="#lg1" y1="9.511" y2="10.849"/><linearGradient id="SVGID_2_" gradientUnits="userSpaceOnUse" x1="42.298" x2="38.462" xlink:href="#lg1" y1="2.271" y2="8.369"/><linearGradient id="SVGID_3_" gradientUnits="userSpaceOnUse" x1="11.856" x2="5.463" xlink:href="#lg1" y1="32.745" y2="44.646"/><linearGradient id="SVGID_4_" gradientUnits="userSpaceOnUse" x1="30.732" x2="20.207" xlink:href="#lg1" y1="2.971" y2="21.757"/><linearGradient id="SVGID_5_" gradientUnits="userSpaceOnUse" x1="16.472" x2="9.686" xlink:href="#lg1" y1="19.811" y2="31.122"/><g><g><path d="m53.11 12.85c.28-.03.56-.04.82-.03h.04c.28.02.55.07.8.14.01 0 .02.01.03.01.26.08.5.18.73.32l-10.2-5.93c-.01-.01-.03-.01-.04-.02-.12-.07-.24-.13-.36-.18-.11-.04-.22-.08-.33-.12-.01 0-.02-.01-.03-.01s-.01 0-.02-.01c-.13-.04-.27-.07-.4-.09-.12-.02-.25-.03-.38-.04-.01 0-.02 0-.04 0-.01 0-.01 0-.02 0-.16-.01-.31-.01-.48 0-.11 0-.22.02-.33.03-.04 0-.08.01-.13.01-.03 0-.06 0-.09.01-.21.03-.42.08-.64.14-.07.02-.14.04-.2.06l10.2 5.93c.32-.1.63-.16.93-.21.05 0 .1 0 .14-.01z" fill="url(#SVGID_1_)"/><path d="m45.95 6.7c.12-.04.24-.07.36-.1.11-.03.22-.05.33-.07.14-.03.28-.05.42-.07.08-.01.16-.02.24-.02.18-.01.35-.02.51-.01h.12c.2.01.4.04.59.07.05.01.09.02.14.03.15.03.3.08.44.13.04.02.09.03.13.05.18.07.36.15.52.25l-.01-.01s.01 0 .01.01l-10.2-5.93c-.01-.01-.03-.02-.04-.02-.13-.07-.26-.14-.4-.2-.03-.01-.05-.02-.08-.03-.04-.02-.09-.03-.14-.05-.07-.02-.14-.05-.21-.07s-.15-.04-.23-.05c-.05-.01-.09-.02-.14-.03-.03-.01-.05-.01-.08-.02-.16-.03-.32-.05-.48-.06-.01 0-.02 0-.03 0-.04 0-.08 0-.11 0-.13 0-.25-.01-.38 0-.04 0-.09.01-.13.01-.08.01-.16.02-.24.02-.08.01-.15.01-.22.02-.06.01-.13.03-.2.04-.11.02-.22.04-.33.07-.06.01-.12.02-.18.04s-.12.04-.18.06c-.19.06-.37.12-.56.19-.07.03-.13.04-.2.07-.04.02-.08.04-.11.06-.33.14-.66.3-1 .5-.42.24-.84.54-1.24.85-.08.06-.16.12-.24.18-.39.31-.76.64-1.13 1-.02.02-.05.04-.07.06-.2.2-.38.39-.57.59l10.2 5.93c.2-.22.42-.43.63-.64.36-.36.74-.69 1.13-1 .08-.06.16-.12.24-.18.41-.31.82-.6 1.24-.85.34-.2.67-.36 1-.5.11-.05.21-.09.31-.13.2-.07.39-.13.57-.19z" fill="url(#SVGID_2_)"/><path d="m10.7 45.01c0-.43.03-.87.1-1.32.01-.06.02-.13.03-.19.06-.4.14-.8.25-1.2.01-.03.01-.06.02-.08.12-.45.27-.91.45-1.36.01-.02.02-.04.03-.06.17-.43.37-.86.58-1.28.02-.03.03-.07.05-.1.22-.43.47-.85.73-1.26.01-.02.02-.03.03-.05.26-.4.53-.78.82-1.15.04-.04.07-.09.11-.13.26-.32.53-.62.81-.91.05-.05.1-.11.15-.15.33-.33.68-.64 1.03-.92l-10.2-5.93c-.34.27-.67.56-.98.87-.02.02-.03.04-.05.06-.06.04-.11.1-.16.15-.17.17-.34.35-.5.53-.1.12-.2.25-.31.37-.04.04-.07.09-.11.13-.03.04-.06.07-.09.11-.14.19-.29.38-.42.57-.11.15-.21.31-.31.47-.01.02-.02.03-.03.05-.01.01-.02.03-.03.04-.11.18-.22.36-.33.54-.1.18-.2.35-.3.54-.03.05-.05.1-.08.15-.02.03-.03.07-.05.1-.05.1-.1.19-.15.29-.09.18-.17.37-.25.55-.06.15-.12.29-.18.44-.01.02-.02.04-.03.07.01 0 0 .03-.01.05-.08.2-.15.4-.21.6-.07.21-.14.43-.2.64 0 .02-.01.04-.01.05-.01.03-.01.06-.02.09-.05.2-.1.39-.14.59-.04.21-.07.41-.11.62-.01.06-.02.12-.03.19 0 .03-.01.06-.02.09-.05.42-.08.83-.08 1.23 0 1 .18 1.84.5 2.53.32.68.78 1.2 1.35 1.53l10.2 5.93c-1.14-.68-1.85-2.08-1.85-4.08z" fill="url(#SVGID_3_)"/><path d="m23.42 19.61c.01-.02.02-.04.03-.06.29-.68.62-1.34.97-2 .03-.05.06-.1.09-.15.34-.61.7-1.21 1.08-1.78.05-.07.09-.13.14-.2.38-.55.78-1.09 1.19-1.6.08-.09.15-.19.23-.28.45-.53.91-1.04 1.39-1.52.36-.35.73-.66 1.11-.98.18-.15.36-.33.54-.47.57-.44 1.15-.84 1.75-1.18.44-.25.87-.46 1.29-.64.14-.06.27-.11.4-.16.24-.09.48-.17.71-.24.15-.05.31-.09.46-.13.14-.03.28-.06.41-.09.18-.03.36-.06.54-.08.1-.01.2-.02.31-.03.23-.02.45-.02.67-.01h.14c.26.01.51.05.75.1.06.01.12.03.18.04.19.04.38.1.56.16.06.02.12.04.17.06.23.09.46.2.67.32l-10.2-5.94c-.02-.01-.04-.02-.06-.03-.17-.09-.34-.18-.52-.25-.03-.01-.07-.02-.1-.03-.06-.02-.11-.04-.17-.06-.09-.03-.18-.07-.27-.1-.08-.03-.18-.05-.28-.07-.06-.01-.12-.03-.18-.04-.03-.01-.07-.02-.1-.02-.2-.03-.41-.06-.62-.07-.01 0-.02 0-.03 0-.04 0-.09 0-.14 0-.17-.01-.33-.01-.5 0-.05 0-.11.01-.17.02-.1.01-.2.02-.31.03-.1.01-.19.01-.29.03-.08.01-.17.04-.25.05-.14.03-.28.05-.41.09-.08.02-.15.03-.23.05s-.15.06-.23.08c-.23.07-.47.15-.71.24-.09.03-.17.05-.26.09-.05.02-.1.05-.15.07-.42.17-.84.37-1.28.62-.6.34-1.18.74-1.75 1.18-.18.14-.35.31-.53.46-.38.32-.76.63-1.12.99-.01.01-.01.01-.02.02-.38.37-.75.77-1.1 1.17-.09.11-.18.22-.27.33-.08.09-.15.19-.23.28-.11.13-.22.26-.32.39-.23.3-.46.61-.68.92-.07.1-.13.19-.19.29-.05.07-.09.13-.14.2-.09.13-.18.26-.26.39-.18.28-.36.57-.53.87-.1.17-.2.35-.29.52-.03.05-.06.1-.09.16s-.07.12-.1.18c-.15.29-.3.58-.44.87s-.28.59-.41.89c-.01.02-.01.03-.02.05s-.02.04-.03.07c-.11.27-.22.53-.33.8-.12.32-.24.65-.35.97-.03.08-.04.15-.07.23-.02.08-.05.15-.07.23-.06.2-.13.4-.18.6-.11.39-.21.79-.29 1.18-.02.08-.03.16-.05.24l10.2 5.93c.13-.67.31-1.34.52-2.02.02-.07.04-.15.07-.23.22-.67.47-1.34.75-2z" fill="url(#SVGID_4_)"/><path d="m31.94 9.38c3.81-2.2 7.12-1.71 8.9.81.99-1.07 2.09-2 3.24-2.67 4.42-2.55 8-.49 8.02 4.57 0 .33-.02.66-.04.98 3.19-.98 5.57.92 5.58 4.85.01 4.56-3.2 10.13-7.17 12.43-1.95 1.13-3.72 1.25-5.01.56-1.34 4.48-4.51 8.92-8.22 11.06-3.2 1.85-6 1.52-7.59-.48-.92 2.52-2.72 4.93-4.81 6.14-2.37 1.37-4.37.8-5.15-1.16-.79.88-1.68 1.63-2.61 2.17-3.5 2.02-6.35.4-6.36-3.61-.01-3.58 2.23-7.85 5.18-10.17-.28-.53-.44-1.21-.44-2.02-.01-3.07 2.14-6.8 4.81-8.34.65-.37 1.28-.58 1.84-.64 1.12-5.72 5.08-11.74 9.83-14.48z" fill="#6ba6d6"/><path d="m15.56 31.54c.06-.35.14-.7.24-1.05.01-.03.02-.06.03-.1.12-.38.26-.77.42-1.14 0-.01 0-.01.01-.02.17-.38.36-.76.57-1.13.01-.01.01-.02.02-.04.21-.36.43-.7.67-1.03.02-.03.04-.06.07-.09.22-.3.46-.58.71-.85.05-.06.11-.11.16-.17.2-.2.4-.39.61-.57.09-.08.18-.17.28-.24.29-.23.6-.45.91-.63.29-.17.58-.29.86-.4.06-.02.12-.04.17-.06.28-.09.55-.15.8-.18l-10.2-5.93c-.05.01-.11.01-.17.02-.14.02-.29.05-.44.09-.06.02-.13.05-.19.07s-.12.04-.17.06c-.07.02-.14.04-.21.07-.22.09-.44.2-.66.33-.31.18-.61.39-.91.63-.1.08-.19.16-.28.24-.14.12-.29.24-.43.37-.06.06-.12.13-.18.2-.05.06-.11.11-.16.17-.06.07-.12.13-.18.2-.13.15-.26.31-.39.48-.05.06-.09.12-.13.18-.02.03-.04.06-.07.09-.04.06-.08.11-.12.16-.1.14-.19.27-.28.42-.09.13-.17.27-.25.41-.01.01-.02.03-.02.04-.01.01-.01.02-.02.04-.06.11-.12.22-.18.33-.07.14-.14.27-.21.41-.06.13-.12.26-.18.39 0 .01 0 .01-.01.02 0 0 0 .01-.01.01-.06.14-.12.29-.18.43-.06.15-.11.3-.16.46-.03.08-.05.16-.07.24-.01.03-.02.06-.03.1-.02.05-.03.1-.05.16-.05.19-.1.37-.14.56-.02.11-.04.23-.06.34-.01.06-.02.12-.03.18-.01.05-.02.11-.03.16-.04.32-.06.64-.06.95 0 .81.16 1.49.44 2.02l10.2 5.93c-.28-.53-.44-1.21-.44-2.02 0-.36.03-.73.09-1.11.02-.08.03-.14.04-.2z" fill="url(#SVGID_5_)"/><path d="m51.21 8.17c-.72-1.18-2.09-1.98-3.51-1.99-1.42-.05-2.77.47-3.96 1.15-1.06.62-2 1.41-2.87 2.27-.69-.85-1.62-1.54-2.69-1.85-1.22-.37-2.51-.27-3.69.02-2.37.65-4.4 2.05-6.12 3.68-3.36 3.22-5.69 7.44-6.69 11.98-1.17.24-2.17.87-3 1.61-.92.82-1.67 1.81-2.25 2.87-.57 1.07-1.02 2.21-1.22 3.42-.19 1.11-.19 2.32.3 3.42-1.48 1.26-2.63 2.83-3.46 4.55-.86 1.78-1.42 3.74-1.35 5.71.09-1.96.75-3.85 1.68-5.54.95-1.69 2.19-3.21 3.7-4.38l.2-.16-.12-.24c-.47-.95-.44-2.13-.21-3.22.22-1.1.67-2.15 1.24-3.13.59-.96 1.27-1.87 2.12-2.59.83-.73 1.81-1.31 2.83-1.42l.35-.04.08-.36c.47-2.21 1.31-4.35 2.42-6.33 1.13-1.97 2.47-3.83 4.1-5.41 1.62-1.56 3.53-2.89 5.65-3.5 2.1-.62 4.5-.12 5.77 1.71l.28.41.33-.37c.87-.98 1.85-1.87 2.95-2.56s2.34-1.18 3.62-1.22c1.28-.06 2.54.57 3.29 1.64.73 1.09 1.05 2.43 1.11 3.77.04-1.31-.17-2.71-.88-3.9z" fill="#bad8e8"/></g><g><path d="m30.54 63.5-3.53-2.05-.07-25.68 3.52 2.05z" fill="#d19916"/><path d="m30.46 37.82-3.52-2.05 32.96-19.03 3.53 2.05z" fill="#fcc134"/><path d="m63.43 18.79.07 25.68-32.96 19.03-.08-25.68z" fill="#f0b11b"/><path d="m30.54 63.5 18.11-20.28-18.11-5.4z" fill="#fcc134"/><path d="m63.5 44.47-16.52-3.69 16.45-21.99z" fill="#fcc134"/><path d="m30.46 37.82 15.97 8.7c2.02 1.91 5.49-.1 7.51-4.37l9.48-23.36z" fill="#fed62f"/></g><path d="m54.14 15.34-3.33-1.94 2.79-1.61 3.33 1.94z" fill="#ff4588"/><path d="m45.4 20.38-3.33-1.93 2.79-1.61 3.33 1.93z" fill="#ff4588"/><path d="m54.11 2.44.03 12.9 2.79-1.61-5.74 9.96-5.79-3.31 2.79-1.61-.04-12.9z" fill="#ff276a"/><path d="m48.19 18.77-3.33-1.93-.04-12.9 3.33 1.93z" fill="#e50042"/><path d="m48.15 5.87-3.33-1.93 5.96-3.44 3.33 1.94z" fill="#ff4588"/><path d="m37.37 31.66-3.33-1.93-.04-12.91 3.33 1.94z" fill="#a3a3a3"/><path d="m34.54 20.37-3.33-1.94 5.75-9.95 3.33 1.93z" fill="#e5e5e5"/><path d="m40.29 10.41 5.78 3.3-2.79 1.61.04 12.91-5.95 3.43-.04-12.9-2.79 1.61z" fill="#d1d1d1"/></g></svg>