<svg id="Layer_1" enable-background="new 0 0 512 512" viewBox="0 0 512 512" xmlns="http://www.w3.org/2000/svg"><g><g clip-rule="evenodd" fill-rule="evenodd"><path d="m128.9 196.2h-20.9c-21.6 0-39-17.5-39-39 0-14.1 7.4-26.4 18.6-33.2 0-.4 0-.7 0-1.1 0-21.6 17.5-39 39-39 3.6 0 7.2.5 10.5 1.4 3.3-18.3 19.2-32.1 38.4-32.1 10 0 19.1 3.8 26 10 6.5-12.6 19.5-21.2 34.6-21.2 13.5 0 25.4 6.9 32.4 17.3 6.9-11.1 19.2-18.5 33.2-18.5 20.1 0 36.7 15.3 38.8 34.8 6.5-4.8 14.5-7.6 23.2-7.6 21.5 0 39 17.5 39 39 0 3.9-.6 7.7-1.7 11.3 1.2-.1 2.3-.2 3.5-.2 21.5 0 39 17.5 39 39 0 21.6-17.5 39-39 39h-20.9z" fill="#82d5f2"/><path d="m128.9 196.2h-20.9c-21.6 0-39-17.5-39-39 0-14.1 7.4-26.4 18.6-33.2 0-.4 0-.7 0-1.1 0-21.6 17.5-39 39-39 3.6 0 7.2.5 10.5 1.4 3.3-18.3 19.2-32.1 38.4-32.1 10 0 19.1 3.8 26 10 6.5-12.6 19.5-21.2 34.6-21.2 13.5 0 25.4 6.9 32.4 17.3 6.9-11.1 19.2-18.5 33.2-18.5 20.1 0 36.7 15.3 38.8 34.8 1.2-.9 2.4-1.7 3.6-2.4 1.6 9.3 2.5 18.9 2.5 28.6 0 35.1-11.1 67.7-30 94.3z" fill="#abebf9"/><path d="m184.6 124.7c-2.2 1.4-5.2.8-6.6-1.4s-.8-5.2 1.4-6.7c.2-.1 56.5-37.2 125-11.6 2.5.9 3.8 3.7 2.8 6.2s-3.7 3.8-6.2 2.8c-63.9-23.9-116.3 10.6-116.4 10.7z" fill="#c8f2fb"/></g><path d="m236.6 311.1c0-2.7 2.2-4.8 4.8-4.8s4.8 2.2 4.8 4.8v77.8c0 6.1-2.5 11.6-6.5 15.7s-9.6 6.5-15.7 6.5h-51.4c-2.7 0-4.8-2.2-4.8-4.8s2.2-4.8 4.8-4.8h51.4c3.4 0 6.6-1.4 8.9-3.7s3.7-5.4 3.7-8.8z" fill="#5e56a9"/><path d="m266.3 311.1c0-2.7 2.2-4.8 4.8-4.8s4.8 2.2 4.8 4.8v77.8c0 3.5 1.4 6.6 3.7 8.8 2.3 2.3 5.4 3.7 8.9 3.7h51.4c2.7 0 4.8 2.2 4.8 4.8s-2.2 4.8-4.8 4.8h-51.4c-6.1 0-11.6-2.5-15.7-6.5s-6.5-9.6-6.5-15.7z" fill="#5e56a9"/><g clip-rule="evenodd" fill-rule="evenodd"><path d="m163.9 164.1 92.4 35.5v117.2l-92.4-35.5z" fill="#f8bd40"/><path d="m256.3 316.8 92.3-35.5v-117.2l-92.3 35.5z" fill="#f9aa3a"/><path d="m163.9 164.1 92.4-34.1 92.3 34.1-92.3 35.5z" fill="#fa9934"/></g><g><path clip-rule="evenodd" d="m172.6 355.2v117.5h-114.6v-146.8h85.4z" fill="#dfe7f3" fill-rule="evenodd"/><path clip-rule="evenodd" d="m143.4 325.9 29.2 29.3h-29.2z" fill="#c1ccdc" fill-rule="evenodd"/><g fill="#4e95fb"><path d="m79.1 380.1c-3.4 0-6.1-2.8-6.1-6.1 0-3.4 2.8-6.1 6.1-6.1h72.5c3.4 0 6.1 2.8 6.1 6.1 0 3.4-2.8 6.1-6.1 6.1z"/><path d="m79.1 400.1c-3.4 0-6.1-2.8-6.1-6.1 0-3.4 2.8-6.1 6.1-6.1h72.5c3.4 0 6.1 2.8 6.1 6.1 0 3.4-2.8 6.1-6.1 6.1z"/><path d="m79.1 420.1c-3.4 0-6.1-2.8-6.1-6.1 0-3.4 2.8-6.1 6.1-6.1h72.5c3.4 0 6.1 2.8 6.1 6.1 0 3.4-2.8 6.1-6.1 6.1z"/><path d="m79.1 440.1c-3.4 0-6.1-2.8-6.1-6.1 0-3.4 2.8-6.1 6.1-6.1h72.5c3.4 0 6.1 2.8 6.1 6.1 0 3.4-2.8 6.1-6.1 6.1z"/><path d="m79.1 460.1c-3.4 0-6.1-2.8-6.1-6.1 0-3.4 2.8-6.1 6.1-6.1h72.5c3.4 0 6.1 2.8 6.1 6.1 0 3.4-2.8 6.1-6.1 6.1z"/></g><path clip-rule="evenodd" d="m58 325.9h42.7v146.8h-42.7z" fill="#e2e9f4" fill-rule="evenodd"/><g fill="#60a0fb"><path d="m80.3 380.1c-4.1 0-7.3-2.8-7.3-6.1 0-3.4 3.3-6.1 7.3-6.1h25.9v12.3h-25.9z"/><path d="m80.3 400.1c-4.1 0-7.3-2.8-7.3-6.1 0-3.4 3.3-6.1 7.3-6.1h25.9v12.3h-25.9z"/><path d="m80.3 420.1c-4.1 0-7.3-2.8-7.3-6.1 0-3.4 3.3-6.1 7.3-6.1h25.9v12.3h-25.9z"/><path d="m80.3 440.1c-4.1 0-7.3-2.8-7.3-6.1 0-3.4 3.3-6.1 7.3-6.1h25.9v12.3h-25.9z"/><path d="m80.3 460.1c-4.1 0-7.3-2.8-7.3-6.1 0-3.4 3.3-6.1 7.3-6.1h25.9v12.3h-25.9z"/></g></g><g><path clip-rule="evenodd" d="m454.5 355.2v117.5h-114.6v-146.8h85.3z" fill="#dfe7f3" fill-rule="evenodd"/><path clip-rule="evenodd" d="m425.2 325.9 29.3 29.3h-29.3z" fill="#c1ccdc" fill-rule="evenodd"/><g fill="#4e95fb"><path d="m360.9 380.1c-3.4 0-6.1-2.8-6.1-6.1 0-3.4 2.8-6.1 6.1-6.1h72.5c3.4 0 6.1 2.8 6.1 6.1 0 3.4-2.8 6.1-6.1 6.1z"/><path d="m360.9 400.1c-3.4 0-6.1-2.8-6.1-6.1 0-3.4 2.8-6.1 6.1-6.1h72.5c3.4 0 6.1 2.8 6.1 6.1 0 3.4-2.8 6.1-6.1 6.1z"/><path d="m360.9 420.1c-3.4 0-6.1-2.8-6.1-6.1 0-3.4 2.8-6.1 6.1-6.1h72.5c3.4 0 6.1 2.8 6.1 6.1 0 3.4-2.8 6.1-6.1 6.1z"/><path d="m360.9 440.1c-3.4 0-6.1-2.8-6.1-6.1 0-3.4 2.8-6.1 6.1-6.1h72.5c3.4 0 6.1 2.8 6.1 6.1 0 3.4-2.8 6.1-6.1 6.1z"/><path d="m360.9 460.1c-3.4 0-6.1-2.8-6.1-6.1 0-3.4 2.8-6.1 6.1-6.1h72.5c3.4 0 6.1 2.8 6.1 6.1 0 3.4-2.8 6.1-6.1 6.1z"/></g><path clip-rule="evenodd" d="m339.9 325.9h42.7v146.8h-42.7z" fill="#e2e9f4" fill-rule="evenodd"/><g fill="#60a0fb"><path d="m362.1 380.1c-4.1 0-7.4-2.8-7.4-6.1 0-3.4 3.3-6.1 7.4-6.1h25.9v12.3h-25.9z"/><path d="m362.1 400.1c-4.1 0-7.4-2.8-7.4-6.1 0-3.4 3.3-6.1 7.4-6.1h25.9v12.3h-25.9z"/><path d="m362.1 420.1c-4.1 0-7.4-2.8-7.4-6.1 0-3.4 3.3-6.1 7.4-6.1h25.9v12.3h-25.9z"/><path d="m362.1 440.1c-4.1 0-7.4-2.8-7.4-6.1 0-3.4 3.3-6.1 7.4-6.1h25.9v12.3h-25.9z"/><path d="m362.1 460.1c-4.1 0-7.4-2.8-7.4-6.1 0-3.4 3.3-6.1 7.4-6.1h25.9v12.3h-25.9z"/></g></g></g></svg>