<svg width="65" height="30" viewBox="0 0 65 30" fill="none" xmlns="http://www.w3.org/2000/svg">
<g id="CNN 1" clip-path="url(#clip0_6302_6998)">
<path id="Vector" d="M27.3806 0.0005822C24.5834 -0.0416697 22.1008 2.21979 22.1008 5.49257V20.2301C22.1037 20.7606 21.7074 21.2311 21.1306 21.2311H16.5238C6.55522 21.243 7.44599 8.48715 15.9311 8.47518C19.7033 8.46983 21.0217 8.47518 21.0217 8.47518V4.90122H15.7502C12.447 4.90656 9.94618 6.16449 8.26406 8.03989C6.58189 9.91534 5.7207 12.4129 5.72204 14.895C5.72334 17.2846 6.53835 19.7646 8.24078 21.6441C9.9432 23.5237 12.5317 24.809 16.1092 24.809H24.8044C25.3071 24.809 25.7333 24.3832 25.7333 23.8867V5.88143C25.7278 4.93987 26.2161 4.18291 27.0013 3.93235H27.0015C27.7632 3.68999 28.5997 4.00564 29.104 4.72287L29.1062 4.72607L29.1082 4.7294C30.3302 6.73171 33.3835 11.6436 36.1414 16.0714C37.5204 18.2853 38.8256 20.3784 39.7914 21.9265C40.2743 22.7006 40.6723 23.3385 40.9523 23.7872C41.23 24.2323 41.3844 24.4796 41.4016 24.5076C41.605 24.795 41.861 24.903 42.0743 24.8359H42.0744L42.0746 24.8357C42.1956 24.7981 42.2908 24.7129 42.362 24.5726C42.4332 24.4324 42.4754 24.2376 42.4754 24.0036V5.88401C42.4725 4.94545 42.9578 4.1869 43.7457 3.93777C44.5027 3.69505 45.3419 4.01072 45.8411 4.72866L45.8431 4.73149L45.8448 4.73445C47.0695 6.73549 50.1241 11.6475 52.8827 16.0753C55.6397 20.5005 58.1048 24.4485 58.1434 24.5099C58.1435 24.5101 58.1436 24.5102 58.1436 24.5103C58.343 24.7959 58.6152 24.9099 58.8425 24.8383C58.9656 24.7994 59.0639 24.7124 59.1373 24.572C59.2106 24.4316 59.2544 24.2382 59.2544 24.0063V0.112176V0.110944H55.6484V14.0642C55.6484 14.0642 53.4155 10.2776 49.6088 3.74218C45.8845 -2.66031 38.856 -0.0140517 38.8532 5.49516V14.0616C38.8532 14.0616 36.6738 10.2723 32.8696 3.73688C31.3556 1.13692 29.2944 0.0294914 27.3806 0.0005822ZM16.4017 0.110944C-4.31968 0.108365 -4.1231 29.6299 16.6808 29.6434H24.8096C28.3079 29.6459 30.5543 27.5711 30.5515 23.747V16.2694C30.5515 16.2694 35.1106 23.8283 36.8997 26.787C39.9435 31.8179 47.3093 30.8287 47.2908 24.5446V16.2747C47.2908 16.2747 51.8498 23.8308 53.6413 26.7936C56.6852 31.8229 64.0514 30.8327 64.0327 24.547V0.110944H60.4323V24.0061V24.0063C60.4348 25.1355 59.8018 25.7666 59.1987 25.9572L59.1984 25.9573C58.4627 26.1919 57.6624 25.878 57.1648 25.1652L57.1631 25.1628L57.1615 25.1603C57.0585 24.9959 47.3012 9.37086 44.8616 5.37888C44.6592 5.09147 44.3628 4.97339 44.0997 5.05654C43.8266 5.14403 43.653 5.43313 43.653 5.88352V24.0006V24.0009C43.6558 25.1346 43.0336 25.7639 42.4331 25.9572L42.4327 25.9573L42.4323 25.9575C41.7074 26.1853 40.9199 25.872 40.4254 25.1598L40.4241 25.1581L40.423 25.1564C40.4033 25.1257 40.2459 24.8738 39.9643 24.4232C39.6828 23.9727 39.2834 23.3332 38.7994 22.5577C37.8313 21.0067 36.5247 18.9119 35.1452 16.6975C32.3875 12.2708 29.3406 7.36918 28.1224 5.37359C27.9203 5.08663 27.6211 4.97064 27.3576 5.05408V5.05396C27.0814 5.1416 26.9061 5.43065 26.9086 5.87748V5.87785V23.8866C26.9086 25.0424 25.9611 25.9841 24.8044 25.9841H16.1091C12.1529 25.9841 9.25602 24.5479 7.35554 22.4414C5.45506 20.3348 4.54956 17.5641 4.54685 14.895C4.54415 12.1256 5.50326 9.33788 7.38584 7.23816C9.26842 5.13845 12.0769 3.73141 15.7475 3.72604H15.7476H21.0217V0.110944H16.4017Z" fill="#EC1C2E"/>
</g>
<defs>
<clipPath id="clip0_6302_6998">
<rect width="63.064" height="30" fill="white" transform="translate(0.96875)"/>
</clipPath>
</defs>
</svg>
