<svg width="24" height="25" viewBox="0 0 24 25" fill="none" xmlns="http://www.w3.org/2000/svg">
<g id="facebook" clip-path="url(#clip0_1280_43509)">
<path id="Vector" d="M24 12.5778C24 5.91781 18.63 0.507812 12 0.507812C5.37 0.507812 0 5.90781 0 12.5778C0 18.6078 4.39 23.6078 10.13 24.5078V16.0678H7.08V12.5778H10.12V9.91781C10.12 6.89781 11.92 5.21781 14.66 5.21781C15.97 5.21781 17.34 5.45781 17.34 5.45781V8.42781H15.84C14.34 8.42781 13.88 9.35781 13.88 10.3178V12.5778H17.2L16.67 16.0778H13.87V24.5078C19.62 23.6078 24 18.6078 24 12.5778Z" fill="white"/>
</g>
<defs>
<clipPath id="clip0_1280_43509">
<rect width="24" height="24" fill="white" transform="translate(0 0.507812)"/>
</clipPath>
</defs>
</svg>
