<svg width="24" height="24" viewBox="0 0 24 24" fill="none" xmlns="http://www.w3.org/2000/svg">
<g id="LinkSimple">
<path id="Vector" d="M8.81641 15.1804L15.1804 8.81641" stroke="black" stroke-opacity="0.7" stroke-linecap="round" stroke-linejoin="round"/>
<path id="Vector_2" d="M13.5909 16.7722L10.9392 19.4238C10.0953 20.2675 8.95077 20.7414 7.75743 20.7413C6.56409 20.7412 5.41965 20.2671 4.57583 19.4233C3.73201 18.5794 3.25791 17.435 3.25781 16.2417C3.25771 15.0483 3.73161 13.9038 4.57529 13.0598L7.22694 10.4082" stroke="black" stroke-opacity="0.7" stroke-linecap="round" stroke-linejoin="round"/>
<path id="Vector_3" d="M16.7741 13.5909L19.4258 10.9392C20.2694 10.0953 20.7433 8.95077 20.7432 7.75743C20.7431 6.56409 20.269 5.41965 19.4252 4.57583C18.5814 3.73201 17.437 3.25791 16.2436 3.25781C15.0503 3.25771 13.9058 3.73161 13.0618 4.57529L10.4102 7.22694" stroke="black" stroke-opacity="0.7" stroke-linecap="round" stroke-linejoin="round"/>
</g>
</svg>
