<svg width="61" height="30" viewBox="0 0 61 30" fill="none" xmlns="http://www.w3.org/2000/svg">
<g id="forbes-ar21 1">
<path id="Vector" d="M57.5414 14.8506L57.0414 14.9856C56.5664 13.3656 55.7689 12.6716 54.6439 12.6716C53.8539 12.6716 53.2939 13.1916 53.2939 14.0216C53.2939 14.8116 53.9439 15.2366 55.7109 15.9501C57.3374 16.5481 58.0119 17.2801 58.0119 18.5601C58.0119 20.5076 56.4819 21.7291 53.9689 21.7291C52.7604 21.7291 51.3914 21.4591 50.6199 21.1506L50.5234 18.4446L50.9984 18.3481C51.7119 20.1996 52.6249 20.9001 53.8134 20.9001C54.8419 20.9001 55.3819 20.1866 55.3819 19.4536C55.3819 18.7206 54.9639 18.2966 53.3569 17.7186C51.8269 17.2171 50.7794 16.5616 50.7794 14.9351C50.7794 13.3351 52.1869 11.9781 54.5794 11.9781C55.7109 11.9781 56.7394 12.1711 57.4144 12.4796L57.5414 14.8506ZM47.1914 15.6991C47.2494 14.4266 46.9914 12.5881 45.9444 12.5881C44.8709 12.5881 44.2794 14.3046 44.2604 15.7766L47.1914 15.6991ZM46.2014 11.9711C48.8364 11.9711 50.1094 13.8996 50.1289 16.4321H44.1969C44.1769 18.6756 45.3669 20.3721 47.5909 20.3721C48.5609 20.3721 49.1209 20.1021 49.7119 19.6781L49.9884 19.9866C49.3384 20.8736 47.9884 21.7216 46.1884 21.7216C43.2959 21.7216 41.2904 19.7356 41.2904 16.9326C41.2839 14.4001 42.9294 11.9701 46.2014 11.9701M37.6524 16.6626C37.5944 14.6626 36.8624 13.0696 35.4539 13.0696C35.1189 13.0696 34.8624 13.1276 34.4639 13.2626L34.5789 20.9696C34.7204 21.0276 35.0539 21.0661 35.2924 21.0661C36.6614 21.0661 37.6514 19.1311 37.6514 16.6631M40.5889 16.5131C40.5889 19.6821 38.5889 21.7261 35.1959 21.7261C33.9874 21.7261 32.7339 21.5331 31.6479 21.2826C31.7444 20.0101 31.7444 12.1291 31.6479 10.6441C31.5514 9.87262 31.3329 9.50612 30.7349 9.42912L30.3364 9.39062V9.03712L34.5214 8.26562C34.5014 8.91562 34.4634 10.6441 34.4634 12.6686C35.1964 12.3021 35.8709 12.0901 36.7834 12.0901C38.9624 12.0901 40.5834 13.9416 40.5834 16.5126M29.9334 14.7916C28.6414 13.9431 27.2534 14.3096 26.9764 14.7916C26.8544 16.2766 26.8799 18.5586 26.9964 19.7346C27.0544 20.5061 27.2729 20.8336 27.8704 20.8916L28.6604 20.9686V21.4701H22.7489V20.9686L23.2054 20.8916C23.7774 20.8336 23.9769 20.5066 24.0154 19.7346C24.1569 18.4811 24.1954 15.8521 24.0154 14.4056C23.9769 13.5766 23.7774 13.2676 23.2054 13.1906L22.7489 13.1326V12.7856L26.9719 11.9756L26.9139 14.1356C27.9039 11.8986 29.8709 11.6286 30.9379 12.2266L29.9334 14.7916ZM16.0749 16.8616C16.0749 19.2206 16.7114 21.1491 17.9969 21.1491C19.3854 21.1491 19.7839 19.2591 19.7839 16.8616C19.7839 14.4641 19.1669 12.5936 17.8619 12.5936C16.4619 12.5936 16.0749 14.4256 16.0749 16.8616ZM22.7729 16.8231C22.7729 19.5291 20.9859 21.7231 17.7979 21.7231C14.6609 21.7231 13.0799 19.6341 13.0799 16.8956C13.0799 14.2086 14.8669 11.9716 18.0549 11.9716C21.1919 11.9716 22.7729 14.0736 22.7729 16.8181M14.5629 12.1641L13.9129 12.3571C13.3599 10.4606 12.3829 9.38112 10.6989 9.38112H8.50041C8.37841 10.6411 8.32041 12.5886 8.37841 14.6911L9.84341 14.6141C10.8334 14.6141 11.2509 13.9006 11.4934 12.8641H12.0464V17.2481H11.4839C11.2459 16.1881 10.8339 15.4681 9.83391 15.4096L8.36891 15.3896C8.36891 16.9516 8.38891 18.2886 8.49091 19.0986C8.58741 20.2556 8.90891 20.7826 9.75741 20.8921L10.5544 20.9691V21.4706H3.37891V20.9691L3.97691 20.8921C4.80591 20.7771 5.14691 20.2556 5.24341 19.0986C5.40341 17.2086 5.44341 13.1721 5.24341 10.9286C5.14691 9.72863 4.80641 9.25112 3.97691 9.15462L3.37891 9.05812V8.53813H14.5489L14.5629 12.1641Z" fill="#33629A"/>
</g>
</svg>
