<svg width="53" height="30" viewBox="0 0 53 30" fill="none" xmlns="http://www.w3.org/2000/svg">
<g id="The Wall Street Journal_id3HBaCHXd_0 1" clip-path="url(#clip0_6302_6990)">
<g id="Group">
<g id="Group_2">
<g id="Group_3">
<g id="Group_4">
<path id="WSJ" fill-rule="evenodd" clip-rule="evenodd" d="M13.1257 5.33905C12.3122 1.47464 12.0579 1.3221 10.2274 1.22041V0.559388H18.4139V1.22041C16.1766 1.4238 16.1257 1.4238 16.9393 5.94922L19.6342 20.2374L22.8376 4.88142C23.4986 1.72888 23.2444 1.42379 21.1596 1.27125L20.4986 1.22041V0.559388H26.3461V1.22041C24.5664 1.37295 24.5664 1.83057 23.8545 5.18651L18.6173 30.0001H18.1088L13.6342 7.77973L8.90539 30.0001H8.39691L3.05793 3.96617C2.6003 1.67803 2.49861 1.3221 0.566406 1.22041V0.559388H8.54946V1.22041C6.51556 1.4238 6.46471 1.62718 7.27827 5.94922L10.024 20.1357L13.1257 5.33905ZM34.4308 29.8475C31.5325 29.8475 29.8037 27.1526 29.1427 27.1526C28.4308 27.1526 27.6173 28.678 27.363 29.3391H26.7528V19.7797H27.363C29.1427 25.017 31.9901 29.1357 34.3291 29.1357C35.702 29.1357 36.5664 27.8645 36.5664 25.9831C36.5664 19.0679 26.9054 14.5933 26.9054 6.10176C26.9054 2.64413 29.3461 -0.0507812 31.9901 -0.0507812C34.38 -0.0507812 35.702 1.88142 36.4647 1.88142C36.8715 1.88142 37.1766 1.57634 37.6851 0.355998H38.1427V8.89837H37.5325C36.4139 4.77973 34.1257 0.610236 31.8884 0.610236C30.5156 0.610236 29.4986 1.88142 29.4986 3.76278C29.4986 10.4238 39.1596 14.6441 39.1596 23.4407C39.2105 27.1018 36.9732 29.8475 34.4308 29.8475ZM44.4478 29.8475C41.4986 29.8475 40.3291 28.017 40.3291 26.2374C40.3291 24.4577 41.3969 22.6272 43.024 22.6272C44.7528 22.6272 45.4647 24.356 44.6511 25.5763C43.9901 26.6441 42.2105 26.7458 42.2105 27.5594C42.2105 28.8306 43.2783 29.1357 44.1427 29.1357C46.6851 29.1357 46.5325 27.5594 46.5325 22.1696V3.10176C46.5325 1.57634 46.1766 1.22041 44.5495 1.22041H43.9393V0.559388H52.4308V1.22041H51.7189C50.8545 1.22041 50.4986 1.57634 50.4986 3.15261V21.8136C50.4986 27.0509 46.7359 29.8475 44.4478 29.8475Z" fill="#EDF0F5"/>
</g>
</g>
</g>
</g>
</g>
<defs>
<clipPath id="clip0_6302_6990">
<rect width="51.8644" height="30" fill="white" transform="translate(0.566406)"/>
</clipPath>
</defs>
</svg>
