<svg width="24" height="25" viewBox="0 0 24 25" fill="none" xmlns="http://www.w3.org/2000/svg">
<g id="youtube">
<path id="Vector" d="M12.04 4.00609C12.63 4.00609 19.58 4.02609 21.38 4.50609C21.891 4.64692 22.3559 4.91973 22.728 5.29713C23.1001 5.67453 23.3664 6.14321 23.5 6.65609C24 8.55609 24 12.5061 24 12.5061V12.5461C24 12.9761 23.97 16.5761 23.5 18.3461C23.3679 18.8608 23.1023 19.3316 22.7301 19.7108C22.3579 20.0901 21.8922 20.3644 21.38 20.5061C19.62 20.9861 12.93 21.0061 12.08 21.0161H11.91C11.06 21.0161 4.37 20.9861 2.62 20.5161C2.10662 20.3736 1.64008 20.0977 1.26775 19.7166C0.895418 19.3355 0.63054 18.8627 0.5 18.3461C0.08 16.7361 0.01 13.6461 0 12.7461V12.2461C0.01 11.3461 0.08 8.25609 0.5 6.64609C0.635168 6.13505 0.902108 5.66844 1.27414 5.2929C1.64617 4.91736 2.11025 4.64605 2.62 4.50609C4.42 4.01609 11.37 3.99609 11.96 3.99609L12.04 4.00609ZM9.54 8.90609V16.0861L15.82 12.5061L9.54 8.91609V8.90609Z" fill="white"/>
</g>
</svg>
