<svg width="144" height="26" viewBox="0 0 144 26" fill="none" xmlns="http://www.w3.org/2000/svg">
<g id="greenish-default">
<path id="Vector" d="M46.5435 23.1784C44.495 23.1784 42.6841 22.7761 41.1108 21.9714C39.5375 21.1481 38.3212 19.9866 37.4614 18.4866C36.6017 16.9866 36.1719 15.2214 36.1719 13.1909C36.1719 11.1604 36.6017 9.39523 37.4614 7.89527C38.3212 6.37696 39.5375 5.21542 41.1108 4.41055C42.6841 3.58738 44.495 3.17578 46.5435 3.17578C47.9339 3.17578 49.1595 3.32214 50.2204 3.61483C51.2999 3.88922 52.2875 4.32822 53.1836 4.93188V8.91049C52.3789 8.25194 51.4553 7.77635 50.4126 7.48366C49.3882 7.17268 48.2176 7.01722 46.9005 7.01722C45.6749 7.01722 44.5679 7.27331 43.5802 7.78549C42.6108 8.27938 41.8426 8.99278 41.2755 9.92571C40.7084 10.8586 40.4247 11.947 40.4247 13.1909C40.4247 14.4531 40.6809 15.5598 41.1929 16.511C41.7236 17.4439 42.4643 18.1665 43.4155 18.6786C44.3667 19.1908 45.4644 19.4469 46.7082 19.4469C47.8424 19.4469 48.83 19.2457 49.6715 18.8433V15.139H46.571V12.0659H53.7049V21.3129C51.894 22.5567 49.5072 23.1784 46.5435 23.1784Z" fill="black" fill-opacity="0.3"/>
<path id="Vector_2" d="M54.668 9.59791H58.6739V11.4912C59.2045 10.851 59.9453 10.3662 60.8964 10.037C61.8476 9.68939 62.9271 9.51562 64.1341 9.51562V12.6711C62.8721 12.6711 61.7562 12.8631 60.7868 13.2473C59.8356 13.6314 59.177 14.2168 58.8111 15.0033V22.7687H54.668V9.59791Z" fill="black" fill-opacity="0.3"/>
<path id="Vector_3" d="M72.0985 23.181C69.574 23.181 67.5891 22.5775 66.1441 21.3701C64.6991 20.1447 63.9766 18.4343 63.9766 16.2392C63.9766 14.0624 64.6169 12.3429 65.8972 11.0808C67.196 9.81856 69.0434 9.1875 71.44 9.1875C73.0129 9.1875 74.3482 9.48018 75.4459 10.0655C76.5432 10.6509 77.3758 11.4649 77.9429 12.5076C78.5099 13.5319 78.7933 14.6935 78.7933 15.9923V17.666H67.9279C68.2205 19.349 69.7934 20.1904 72.647 20.1904C73.4885 20.1904 74.3575 20.1172 75.2536 19.9709C76.1502 19.8246 76.9277 19.6233 77.5863 19.3672V22.2756C76.9459 22.55 76.1227 22.7698 75.1164 22.9341C74.1106 23.0989 73.1043 23.181 72.0985 23.181ZM74.8695 14.9771C74.8149 14.099 74.4854 13.4222 73.8819 12.9466C73.2784 12.4527 72.4458 12.2057 71.3849 12.2057C70.3423 12.2057 69.519 12.4527 68.9155 12.9466C68.312 13.4405 67.9825 14.1173 67.9279 14.9771H74.8695Z" fill="black" fill-opacity="0.3"/>
<path id="Vector_4" d="M87.286 23.181C84.7619 23.181 82.777 22.5775 81.332 21.3701C79.887 20.1447 79.1641 18.4343 79.1641 16.2392C79.1641 14.0624 79.8044 12.3429 81.0851 11.0808C82.3835 9.81856 84.2313 9.1875 86.6275 9.1875C88.2008 9.1875 89.5361 9.48018 90.6338 10.0655C91.7311 10.6509 92.5633 11.4649 93.1304 12.5076C93.6974 13.5319 93.9812 14.6935 93.9812 15.9923V17.666H83.1153C83.408 19.349 84.9813 20.1904 87.8349 20.1904C88.6764 20.1904 89.5454 20.1172 90.4415 19.9709C91.3377 19.8246 92.1152 19.6233 92.7738 19.3672V22.2756C92.1334 22.55 91.3106 22.7698 90.3043 22.9341C89.2981 23.0989 88.2923 23.181 87.286 23.181ZM90.0574 14.9771C90.0024 14.099 89.6733 13.4222 89.0698 12.9466C88.4659 12.4527 87.6337 12.2057 86.5728 12.2057C85.5302 12.2057 84.7069 12.4527 84.1034 12.9466C83.4995 13.4405 83.1704 14.1173 83.1153 14.9771H90.0574Z" fill="black" fill-opacity="0.3"/>
<path id="Vector_5" d="M94.8984 9.59906H98.9044V11.2179C99.5083 10.5411 100.221 10.0381 101.045 9.70883C101.886 9.36126 102.764 9.1875 103.679 9.1875C105.472 9.1875 106.807 9.67224 107.685 10.6417C108.581 11.593 109.029 12.8826 109.029 14.5106V22.7698H104.886V14.9771C104.886 13.2758 104.099 12.4253 102.526 12.4253C101.831 12.4253 101.182 12.599 100.578 12.9466C99.9746 13.2758 99.4625 13.7698 99.0416 14.4283V22.7698H94.8984V9.59906Z" fill="black" fill-opacity="0.3"/>
<path id="Vector_6" d="M112.683 7.56615C112.044 7.56615 111.504 7.35579 111.065 6.93504C110.626 6.51434 110.406 5.98385 110.406 5.3436C110.406 4.72168 110.626 4.20035 111.065 3.7796C111.504 3.3406 112.044 3.12109 112.683 3.12109C113.324 3.12109 113.863 3.3406 114.302 3.7796C114.742 4.20035 114.961 4.72168 114.961 5.3436C114.961 5.98385 114.742 6.51434 114.302 6.93504C113.863 7.35579 113.324 7.56615 112.683 7.56615ZM110.598 9.5966H114.769V22.7673H110.598V9.5966Z" fill="black" fill-opacity="0.3"/>
<path id="Vector_7" d="M121.837 23.181C120.849 23.181 119.788 23.0714 118.654 22.852C117.538 22.6508 116.66 22.3582 116.02 21.974V18.7362C116.752 19.1752 117.63 19.5319 118.654 19.8063C119.679 20.0807 120.63 20.2178 121.508 20.2178C122.258 20.2178 122.807 20.1538 123.154 20.0258C123.502 19.8977 123.675 19.6599 123.675 19.3124C123.675 19.038 123.575 18.8185 123.374 18.6538C123.173 18.4709 122.861 18.3154 122.441 18.1874C122.038 18.041 121.361 17.8307 120.41 17.5563C119.295 17.227 118.416 16.8978 117.776 16.5685C117.154 16.2209 116.679 15.7911 116.35 15.2789C116.038 14.7667 115.883 14.1081 115.883 13.3033C115.883 11.9313 116.422 10.907 117.502 10.2302C118.599 9.53503 120.081 9.1875 121.947 9.1875C122.861 9.1875 123.804 9.28808 124.773 9.48933C125.761 9.67224 126.52 9.91919 127.051 10.2302V13.3856C126.52 13.038 125.825 12.7545 124.965 12.535C124.124 12.3155 123.3 12.2057 122.495 12.2057C121.745 12.2057 121.16 12.2789 120.74 12.4253C120.337 12.5716 120.136 12.846 120.136 13.2484C120.136 13.596 120.328 13.8612 120.712 14.0442C121.114 14.2271 121.855 14.4557 122.935 14.7301L123.483 14.8673C124.636 15.1783 125.532 15.5258 126.172 15.91C126.813 16.2758 127.261 16.724 127.517 17.2544C127.791 17.7666 127.929 18.416 127.929 19.2026C127.929 20.41 127.407 21.3795 126.365 22.1113C125.322 22.8245 123.813 23.181 121.837 23.181Z" fill="black" fill-opacity="0.3"/>
<path id="Vector_8" d="M128.883 2.49219H133.026V11.108C133.648 10.4677 134.352 9.9921 135.139 9.68112C135.925 9.35185 136.767 9.18723 137.663 9.18723C139.456 9.18723 140.791 9.67198 141.669 10.6415C142.565 11.5927 143.014 12.8823 143.014 14.5103V22.7695H138.871V14.9768C138.871 13.2756 138.084 12.425 136.511 12.425C135.816 12.425 135.166 12.5988 134.563 12.9463C133.959 13.2756 133.447 13.7695 133.026 14.428V22.7695H128.883V2.49219Z" fill="black" fill-opacity="0.3"/>
<path id="Vector_9" fill-rule="evenodd" clip-rule="evenodd" d="M22.0206 6.37339C22.0206 9.85879 19.1953 12.6843 15.7099 12.6843C12.2245 12.6843 9.39897 9.85879 9.39897 6.37339C9.39897 2.88798 12.2245 0.0625 15.7099 0.0625C19.1953 0.0625 22.0206 2.88798 22.0206 6.37339ZM1.03024 12.2256C7.9058 11.7622 13.8981 16.9099 14.4562 23.8002C14.5141 24.5142 14.5113 25.2189 14.4522 25.9098C7.57665 26.3732 1.5844 21.2255 1.02623 14.3353C0.968429 13.6213 0.971181 12.9164 1.03024 12.2256ZM18.9008 25.6685C25.7909 25.1104 30.9387 19.1181 30.4752 12.2425C29.7843 12.1835 29.0796 12.1807 28.3656 12.2385C21.4754 12.7967 16.3277 18.7889 16.7912 25.6645C17.4819 25.7236 18.1868 25.7264 18.9008 25.6685Z" fill="black" fill-opacity="0.3"/>
</g>
</svg>
