<svg width="90" height="28" viewBox="0 0 90 28" fill="none" xmlns="http://www.w3.org/2000/svg">
<g id="invert-default">
<path id="Vector" d="M33.8359 6.78125H36.5013V21.133H33.8359V6.78125Z" fill="black" fill-opacity="0.3"/>
<path id="Vector_2" d="M45.3218 10.0625C46.7023 10.0625 47.8095 10.4657 48.6432 11.2722C49.4769 12.0786 49.8938 13.2746 49.8938 14.8601V21.1339H47.331V15.1883C47.331 14.2314 47.1055 13.5138 46.6543 13.0354C46.2034 12.5433 45.561 12.2973 44.7273 12.2973C43.784 12.2973 43.039 12.5843 42.4924 13.1584C41.9457 13.7188 41.6721 14.5322 41.6721 15.5982V21.1339H39.1094V10.1855H41.5492V11.6002C41.973 11.0945 42.5061 10.7118 43.1485 10.4521C43.791 10.1924 44.5154 10.0625 45.3218 10.0625Z" fill="black" fill-opacity="0.3"/>
<path id="Vector_3" d="M62.172 10.1836L57.4767 21.1319H54.832L50.1367 10.1836H52.8021L56.2055 18.3026L59.7115 10.1836H62.172Z" fill="black" fill-opacity="0.3"/>
<path id="Vector_4" d="M72.7414 15.7212C72.7414 15.899 72.7278 16.1517 72.7004 16.4799H64.1096C64.2602 17.2862 64.6497 17.9287 65.2785 18.4071C65.9209 18.872 66.7136 19.1042 67.6567 19.1042C68.8595 19.1042 69.8505 18.7077 70.6296 17.915L72.0034 19.4938C71.5112 20.0815 70.8892 20.5257 70.1374 20.8263C69.3857 21.1272 68.5383 21.2775 67.5953 21.2775C66.3924 21.2775 65.3331 21.0382 64.4172 20.56C63.5015 20.0815 62.7907 19.4185 62.2849 18.5711C61.7928 17.7101 61.5469 16.7395 61.5469 15.6598C61.5469 14.5936 61.7861 13.6368 62.2646 12.7894C62.7565 11.9283 63.4332 11.2585 64.2942 10.7801C65.1553 10.3017 66.1259 10.0625 67.2055 10.0625C68.2718 10.0625 69.2217 10.3017 70.0554 10.7801C70.9028 11.2448 71.5589 11.9078 72.0237 12.7688C72.5022 13.6163 72.7414 14.6005 72.7414 15.7212ZM67.2055 12.1128C66.3855 12.1128 65.6884 12.3588 65.1143 12.8509C64.5538 13.3293 64.2122 13.9718 64.0893 14.7781H70.3016C70.1921 13.9854 69.8572 13.3429 69.297 12.8509C68.7366 12.3588 68.0395 12.1128 67.2055 12.1128Z" fill="black" fill-opacity="0.3"/>
<path id="Vector_5" d="M76.6158 11.7828C77.3539 10.6347 78.6524 10.2656 80.5111 10.2656V12.3159C80.2925 12.2749 80.0943 12.2544 79.9167 12.2544C78.919 12.2544 78.1397 12.7328 77.5795 13.3205C77.019 13.8946 76.7388 14.7283 76.7388 15.8218V21.1319H74.1758V10.1836H76.6158V11.7828Z" fill="black" fill-opacity="0.3"/>
<path id="Vector_6" d="M89.1582 20.5388C88.8573 20.7847 88.4884 20.9693 88.0509 21.0923C87.6274 21.2155 87.1762 21.2769 86.6977 21.2769C85.4949 21.2769 84.5655 20.9626 83.9094 20.3339C83.2533 19.7051 82.9254 18.7891 82.9254 17.5865V12.3172H81.1211V10.2669H82.9254V7.76562H85.4882V10.2669H88.4201V12.3172H85.4882V17.5249C85.4882 18.058 85.6181 18.4679 85.8777 18.7551C86.1373 19.0284 86.5132 19.1653 87.0053 19.1653C87.5794 19.1653 88.0579 19.0147 88.4405 18.7141L89.1582 20.5388Z" fill="black" fill-opacity="0.3"/>
<path id="Vector_7" fill-rule="evenodd" clip-rule="evenodd" d="M27.1312 13.9992C27.1312 21.2606 21.2449 27.1468 13.9836 27.1468C6.72234 27.1468 0.835938 21.2606 0.835938 13.9992C0.835938 6.73796 6.72234 0.851562 13.9836 0.851562C21.2449 0.851562 27.1312 6.73796 27.1312 13.9992ZM22.9992 13.9992C22.9992 18.9783 18.9629 23.0146 13.9838 23.0146C13.6386 23.0146 13.2979 22.9953 12.9627 22.9576C17.4937 22.4815 21.025 18.6491 21.025 13.9917C21.025 9.3579 17.5288 5.54052 13.0305 5.03349C13.3437 5.00057 13.6618 4.98368 13.9838 4.98368C18.9629 4.98368 22.9992 9.02008 22.9992 13.9992ZM11.0723 20.3495C14.0436 19.8246 16.3037 17.1812 16.3037 13.9992C16.3037 10.8171 14.0436 8.17366 11.0723 7.64894C11.4318 7.58671 11.8016 7.55428 12.179 7.55428C15.7384 7.55428 18.6239 10.4398 18.6239 13.9992C18.6239 17.5586 15.7384 20.4441 12.179 20.4441C11.8016 20.4441 11.4318 20.4116 11.0723 20.3495Z" fill="black" fill-opacity="0.3"/>
</g>
</svg>
